<?xml version="1.0" encoding="UTF-8"?> <svg xmlns="http://www.w3.org/2000/svg" width="328" height="300" viewBox="0 0 328 300" fill="none"> <g clip-path="url(#clip0_4368_115401)"> <path d="M109.527 119.168C120.883 119.168 129.931 123.01 136.661 130.695C143.53 138.38 146.959 148.669 146.959 161.569V224.967H121.408V163.426C121.408 157.253 119.954 152.451 117.051 149.015C114.147 145.586 110.052 143.868 104.772 143.868C98.9594 143.868 94.4088 145.859 91.1025 149.835C87.9306 153.817 86.3475 159.578 86.3475 167.123V224.961H60.7967V163.42C60.7967 157.247 59.3421 152.445 56.4389 149.009C53.5356 145.58 49.4407 143.862 44.16 143.862C38.482 143.862 33.9256 145.853 30.4908 149.829C27.1903 153.811 25.5372 159.572 25.5372 167.117V224.955H-0.00782391V122.051H25.543V132.959C31.4839 123.763 40.6609 119.168 53.0742 119.168C65.4874 119.168 74.203 124.109 80.0095 133.985C86.6104 124.103 96.4475 119.168 109.521 119.168H109.527ZM179.748 80.8821H203.517V224.967H176.184V110.936L150.038 118.555L143.302 94.2672L179.748 80.8882V80.8821ZM272.196 227.845C254.899 227.845 241.294 221.052 231.393 207.467C221.62 193.748 216.736 175.561 216.736 152.919C216.736 130.276 221.62 112.162 231.393 98.5771C241.294 84.8521 254.899 77.9926 272.196 77.9926C289.493 77.9926 303.226 84.8521 312.999 98.5771C322.772 112.162 327.655 130.276 327.655 152.919C327.655 175.561 322.772 193.742 312.999 207.467C303.226 221.052 289.627 227.845 272.196 227.845ZM251.201 188.12C255.956 196.079 262.954 200.061 272.196 200.061C281.437 200.061 288.441 196.012 293.19 187.914C298.074 179.816 300.521 168.155 300.521 152.925C300.521 137.694 298.08 125.821 293.19 117.729C288.435 109.631 281.437 105.582 272.196 105.582C262.954 105.582 255.956 109.631 251.201 117.729C246.446 125.827 244.069 137.555 244.069 152.925C244.069 168.295 246.446 180.023 251.201 188.12Z" fill="#14234B"></path> <path d="M125.271 90.841C130.05 91.533 134.472 88.073 135.138 83.1014C135.804 78.1358 132.474 73.5406 127.69 72.8486L125.271 90.841ZM107.899 69.9713C103.12 69.2792 98.6982 72.7393 98.0323 77.7109C97.3664 82.6764 100.696 87.2717 105.48 87.9637L107.899 69.9713ZM127.69 72.8486L107.899 69.9713L105.48 87.9637L125.271 90.841L127.69 72.8486Z" fill="#14234B"></path> <path d="M167.308 45.2056C166.765 50.1894 170.217 54.6875 175.013 55.252C179.809 55.8165 184.137 52.229 184.681 47.2452L167.308 45.2056ZM188.711 10.1009C189.255 5.1172 185.802 0.619093 181.006 0.0545529C176.21 -0.509987 171.882 3.07757 171.339 8.06131L188.711 10.1009ZM184.675 47.2452L188.711 10.1009L171.339 8.06131L167.302 45.2056L184.675 47.2452Z" fill="#14234B"></path> <path d="M139.791 58.6015C142.963 62.3833 148.483 62.784 152.123 59.4878C155.762 56.1916 156.147 50.4551 152.976 46.6733L139.791 58.6015ZM130.947 20.3827C127.775 16.6009 122.255 16.2003 118.616 19.4965C114.976 22.7927 114.591 28.5291 117.763 32.3109L130.947 20.3827ZM152.976 46.6733L130.947 20.3827L117.763 32.3109L139.791 58.6015L152.976 46.6733Z" fill="#14234B"></path> <path d="M195.873 55.2988C192.637 59.0199 192.918 64.7624 196.498 68.1254C200.079 71.4884 205.611 71.197 208.842 67.4759L195.868 55.2988H195.873ZM224.065 49.963C227.301 46.2419 227.02 40.4994 223.44 37.1364C219.859 33.7734 214.327 34.0648 211.096 37.7859L224.07 49.963H224.065ZM208.847 67.4698L224.065 49.963L211.091 37.7859L195.873 55.2927L208.847 67.4698Z" fill="#14234B"></path> <path d="M25.0749 263.905C27.7503 266.794 29.1114 270.315 29.1114 274.455C29.1114 278.595 27.7445 282.171 25.0749 285.06C22.3995 287.949 19.1224 289.37 15.302 289.37C10.7748 289.37 7.33416 287.5 4.98586 283.755V288.635H0.242541V248.929H4.99171V265.149C7.34 261.404 10.7748 259.534 15.3078 259.534C19.1282 259.534 22.4053 261.009 25.0807 263.905H25.0749ZM21.5816 281.715C23.4393 279.73 24.3622 277.345 24.3622 274.455C24.3622 271.566 23.4334 269.18 21.5816 267.25C19.724 265.265 17.4342 264.299 14.7062 264.299C11.9782 264.299 9.62988 265.265 7.77227 267.25C5.91467 269.18 4.98586 271.56 4.98586 274.455C4.98586 277.351 5.91467 279.73 7.77227 281.715C9.62988 283.646 11.9198 284.605 14.7062 284.605C17.4926 284.605 19.7299 283.64 21.5816 281.715Z" fill="#14234B"></path> <path d="M52.7521 260.274H57.8283L46.6944 290.389C44.3461 296.799 40.035 300.375 34.5791 299.974V295.379C37.9087 295.664 40.3622 293.734 41.9452 289.594L42.4359 288.519L30.5367 260.274H35.613L44.8894 282.51L52.7462 260.274H52.7521Z" fill="#14234B"></path> <path d="M89.8165 248.928C93.3623 248.928 96.2597 250.178 98.6021 252.612C100.95 255.053 102.148 258.057 102.148 261.687C102.148 265.318 100.945 268.322 98.6021 270.763C96.2538 273.203 93.3623 274.447 89.8165 274.447H81.0308V288.628H75.9545V248.922H89.8165V248.928ZM89.8165 269.518C91.9428 269.518 93.6894 268.778 95.0563 267.309C96.4232 265.779 97.1301 263.903 97.1301 261.694C97.1301 257.159 94.0165 253.869 89.8165 253.869H81.0308V269.524H89.8165V269.518Z" fill="#14234B"></path> <path d="M128.186 260.271H132.935V288.632H128.186V283.751C125.837 287.497 122.402 289.366 117.869 289.366C114.049 289.366 110.772 287.946 108.102 285.057C105.427 282.161 104.066 278.592 104.066 274.452C104.066 270.312 105.433 266.797 108.102 263.901C110.778 261.006 114.049 259.531 117.869 259.531C122.397 259.531 125.837 261.4 128.186 265.146V260.265V260.271ZM125.405 281.712C127.263 279.727 128.186 277.341 128.186 274.452C128.186 271.562 127.257 269.177 125.405 267.246C123.547 265.261 121.257 264.296 118.471 264.296C115.685 264.296 113.447 265.261 111.596 267.246C109.738 269.177 108.809 271.556 108.809 274.452C108.809 277.347 109.738 279.727 111.596 281.712C113.453 283.642 115.743 284.601 118.471 284.601C121.199 284.601 123.547 283.636 125.405 281.712Z" fill="#14234B"></path> <path d="M149.584 272.185C153.842 273.15 159.52 274.795 159.462 280.865C159.462 283.421 158.48 285.515 156.57 287.051C154.66 288.581 152.259 289.376 149.257 289.376C143.964 289.376 139.98 286.766 138.397 282.741L142.492 280.301C143.368 283.02 145.933 284.726 149.262 284.726C152.376 284.726 154.666 283.536 154.666 280.872C154.666 278.662 152.265 277.411 149.262 276.677C144.951 275.487 139.384 274.012 139.384 267.996C139.384 265.556 140.313 263.516 142.112 261.926C143.97 260.336 146.26 259.546 149.046 259.546C153.468 259.546 157.125 261.756 158.872 265.447L154.888 267.772C153.906 265.331 151.938 264.142 149.046 264.142C146.371 264.142 144.186 265.501 144.186 267.942C144.186 270.151 146.587 271.347 149.59 272.197L149.584 272.185Z" fill="#14234B"></path> <path d="M188.987 271.218V288.628H184.238V271.497C184.238 266.902 181.673 264.237 177.467 264.237C172.718 264.237 169.552 267.242 169.552 273.597V288.628H164.803V248.922H169.552V264.346C171.462 261.111 174.412 259.526 178.396 259.526C184.781 259.526 188.987 264.006 188.987 271.212V271.218Z" fill="#14234B"></path> <path d="M218.205 260.271H222.955V288.632H218.205V283.751C215.857 287.497 212.422 289.366 207.889 289.366C204.069 289.366 200.792 287.946 198.116 285.057C195.441 282.161 194.08 278.592 194.08 274.452C194.08 270.312 195.447 266.797 198.116 263.901C200.792 261.006 204.069 259.531 207.889 259.531C212.416 259.531 215.857 261.4 218.205 265.146V260.265V260.271ZM215.425 281.712C217.282 279.727 218.205 277.341 218.205 274.452C218.205 271.562 217.277 269.177 215.425 267.246C213.567 265.261 211.277 264.296 208.491 264.296C205.705 264.296 203.467 265.261 201.615 267.246C199.758 269.177 198.835 271.556 198.835 274.452C198.835 277.347 199.764 279.727 201.615 281.712C203.473 283.642 205.763 284.601 208.491 284.601C211.219 284.601 213.567 283.636 215.425 281.712Z" fill="#14234B"></path> <path d="M244.503 248.928C248.049 248.928 250.946 250.178 253.289 252.612C255.637 255.053 256.834 258.057 256.834 261.687C256.834 265.318 255.631 268.322 253.289 270.763C250.94 273.203 248.049 274.447 244.503 274.447H235.717V288.628H230.641V248.922H244.503V248.928ZM244.503 269.518C246.629 269.518 248.376 268.778 249.743 267.309C251.11 265.779 251.817 263.903 251.817 261.694C251.817 257.159 248.703 253.869 244.503 253.869H235.717V269.524H244.503V269.518Z" fill="#14234B"></path> <path d="M282.878 260.271H287.627V288.632H282.878V283.751C280.53 287.497 277.095 289.366 272.562 289.366C268.741 289.366 265.464 287.946 262.789 285.057C260.113 282.161 258.752 278.592 258.752 274.452C258.752 270.312 260.119 266.797 262.789 263.901C265.464 261.006 268.741 259.531 272.562 259.531C277.089 259.531 280.53 261.4 282.878 265.146V260.265V260.271ZM280.097 281.712C281.955 279.727 282.878 277.341 282.878 274.452C282.878 271.562 281.949 269.177 280.097 267.246C278.24 265.261 275.95 264.296 273.163 264.296C270.377 264.296 268.14 265.261 266.288 267.246C264.43 269.177 263.507 271.556 263.507 274.452C263.507 277.347 264.436 279.727 266.288 281.712C268.146 283.642 270.435 284.601 273.163 284.601C275.891 284.601 278.24 283.636 280.097 281.712Z" fill="#14234B"></path> <path d="M313.883 260.274H318.959L307.825 290.389C305.477 296.799 301.166 300.375 295.71 299.974V295.379C299.04 295.664 301.493 293.734 303.076 289.594L303.567 288.519L291.668 260.274H296.744L306.02 282.51L313.877 260.274H313.883Z" fill="#14234B"></path> </g> <defs> <clipPath id="clip0_4368_115401"> <rect width="81.7963" height="74.891" fill="white" transform="scale(4.00584)"></rect> </clipPath> </defs> </svg> 