<?xml version="1.0" encoding="UTF-8"?> <svg xmlns="http://www.w3.org/2000/svg" width="265" height="55" viewBox="0 0 265 55" fill="none"> <g clip-path="url(#clip0_4356_115746)"> <path d="M162.994 22.0977C164.204 22.0977 165.257 22.3265 166.155 22.7843C167.053 23.2263 167.748 23.8459 168.239 24.647C168.73 25.4303 168.975 26.3222 168.975 27.3187C168.975 28.3151 168.73 29.2149 168.239 30.014C167.75 30.7974 167.055 31.4189 166.155 31.8767C165.257 32.3187 164.204 32.5377 162.994 32.5377H160.299V39.2524H157.604V22.0977H162.996H162.994ZM162.971 30.014C163.983 30.014 164.776 29.7693 165.348 29.278C165.92 28.7709 166.207 28.1178 166.207 27.3167C166.207 26.5156 165.92 25.8625 165.348 25.3554C164.776 24.8483 163.985 24.5957 162.971 24.5957H160.299V30.012H162.971V30.014Z" fill="white"></path> <path d="M176.141 26.7305C177.221 26.7305 178.16 26.9258 178.959 27.3185C179.76 27.6934 180.38 28.234 180.822 28.9365C181.264 29.6389 181.483 30.4479 181.483 31.3635V39.2542H179.006V37.8078C178.564 38.3149 178.01 38.7313 177.339 39.0569C176.668 39.3666 175.942 39.5225 175.159 39.5225C173.803 39.5225 172.682 39.1634 171.8 38.4452C170.934 37.7269 170.502 36.7778 170.502 35.6018C170.502 34.8658 170.689 34.2048 171.066 33.6168C171.441 33.0288 171.972 32.571 172.659 32.2435C173.345 31.9002 174.137 31.7285 175.036 31.7285H178.933V31.3122C178.933 30.6097 178.681 30.0375 178.174 29.5975C177.667 29.1555 176.99 28.9365 176.139 28.9365C175.403 28.9365 174.815 29.0845 174.375 29.3785C173.933 29.6725 173.631 30.0395 173.468 30.4815H170.895C171.108 29.3212 171.678 28.4057 172.609 27.7368C173.556 27.0679 174.732 26.7324 176.137 26.7324L176.141 26.7305ZM175.382 37.3422C176.443 37.3422 177.301 37.0482 177.955 36.4602C178.608 35.8722 178.935 35.1441 178.935 34.2798V33.7905H175.382C174.663 33.7905 174.099 33.9463 173.691 34.2561C173.298 34.5659 173.103 35 173.103 35.5545C173.103 36.0774 173.308 36.5095 173.716 36.8528C174.125 37.1804 174.681 37.3422 175.384 37.3422H175.382Z" fill="white"></path> <path d="M189.411 39.5225C188.431 39.5225 187.557 39.3509 186.789 39.0075C186.037 38.6642 185.441 38.1907 184.999 37.5869C184.557 36.9831 184.321 36.2964 184.289 35.5288H186.813C186.862 36.0517 187.115 36.4839 187.572 36.8272C188.046 37.1547 188.668 37.3165 189.435 37.3165C190.088 37.3165 190.619 37.1942 191.027 36.9495C191.436 36.6891 191.641 36.3201 191.641 35.8465C191.641 35.3394 191.412 34.9724 190.954 34.7435C190.512 34.4989 189.828 34.27 188.896 34.0569C187.999 33.8438 187.263 33.6247 186.69 33.3959C186.134 33.167 185.653 32.8078 185.244 32.3165C184.836 31.8094 184.63 31.1326 184.63 30.2822C184.63 29.6113 184.834 29.0075 185.244 28.4689C185.653 27.9302 186.207 27.504 186.911 27.1942C187.63 26.8844 188.423 26.7285 189.289 26.7285C190.106 26.7285 190.866 26.9002 191.568 27.2435C192.271 27.5711 192.835 28.0269 193.259 28.6168C193.683 29.2048 193.912 29.8659 193.946 30.6018H191.422C191.389 30.1125 191.16 29.7119 190.735 29.4002C190.327 29.0904 189.804 28.9345 189.167 28.9345C188.595 28.9345 188.121 29.0569 187.746 29.3015C187.387 29.5304 187.207 29.8481 187.207 30.2565C187.207 30.5999 187.322 30.8781 187.551 31.0892C187.795 31.2846 188.089 31.4483 188.433 31.5786C188.776 31.693 189.273 31.8311 189.928 31.9949C190.844 32.208 191.586 32.427 192.158 32.6559C192.73 32.869 193.22 33.2281 193.628 33.7352C194.037 34.2246 194.242 34.8876 194.242 35.7202C194.242 36.8963 193.784 37.8276 192.868 38.5143C191.971 39.1851 190.818 39.5186 189.413 39.5186L189.411 39.5225Z" fill="white"></path> <path d="M203.598 26.7307C204.561 26.7307 205.42 26.9675 206.171 27.4411C206.939 27.8989 207.535 28.5362 207.961 29.3531C208.385 30.1542 208.598 31.052 208.598 32.0484V39.2544H206.049V32.3681C206.049 31.3874 205.779 30.6041 205.24 30.0161C204.717 29.4123 203.999 29.1084 203.083 29.1084C202.168 29.1084 201.434 29.4103 200.828 30.0161C200.224 30.6199 199.92 31.4052 199.92 32.3681V39.2544H197.371V21.6084H199.92V28.3724C200.901 27.2773 202.126 26.7307 203.596 26.7307H203.598Z" fill="white"></path> <path d="M217.247 26.7305C218.326 26.7305 219.265 26.9258 220.064 27.3185C220.866 27.6934 221.485 28.234 221.927 28.9365C222.369 29.6389 222.588 30.4479 222.588 31.3635V39.2542H220.112V37.8078C219.67 38.3149 219.115 38.7313 218.444 39.0569C217.774 39.3666 217.047 39.5225 216.264 39.5225C214.909 39.5225 213.788 39.1634 212.906 38.4452C212.04 37.7269 211.607 36.7778 211.607 35.6018C211.607 34.8658 211.795 34.2048 212.172 33.6168C212.547 33.0288 213.077 32.571 213.764 32.2435C214.451 31.9002 215.242 31.7285 216.142 31.7285H220.039V31.3122C220.039 30.6097 219.786 30.0375 219.279 29.5975C218.772 29.1555 218.095 28.9365 217.245 28.9365C216.509 28.9365 215.921 29.0845 215.481 29.3785C215.039 29.6725 214.737 30.0395 214.573 30.4815H212C212.213 29.3212 212.783 28.4057 213.715 27.7368C214.662 27.0679 215.838 26.7324 217.243 26.7324L217.247 26.7305ZM216.487 37.3422C217.549 37.3422 218.407 37.0482 219.06 36.4602C219.713 35.8722 220.041 35.1441 220.041 34.2798V33.7905H216.487C215.769 33.7905 215.205 33.9463 214.796 34.2561C214.403 34.5659 214.208 35 214.208 35.5545C214.208 36.0774 214.413 36.5095 214.822 36.8528C215.23 37.1804 215.787 37.3422 216.489 37.3422H216.487Z" fill="white"></path> <path d="M231.389 22.0977C232.598 22.0977 233.652 22.3265 234.55 22.7843C235.448 23.2263 236.142 23.8459 236.633 24.647C237.125 25.4303 237.369 26.3222 237.369 27.3187C237.369 28.3151 237.125 29.2149 236.633 30.014C236.144 30.7974 235.45 31.4189 234.55 31.8767C233.652 32.3187 232.596 32.5377 231.389 32.5377H228.693V39.2524H225.998V22.0977H231.391H231.389ZM231.365 30.014C232.377 30.014 233.171 29.7693 233.743 29.278C234.315 28.7709 234.601 28.1178 234.601 27.3167C234.601 26.5156 234.315 25.8625 233.743 25.3554C233.171 24.8483 232.379 24.5957 231.365 24.5957H228.693V30.012H231.365V30.014Z" fill="white"></path> <path d="M244.536 26.7305C245.615 26.7305 246.554 26.9258 247.353 27.3185C248.155 27.6934 248.774 28.234 249.216 28.9365C249.658 29.6389 249.877 30.4479 249.877 31.3635V39.2542H247.403V37.8078C246.961 38.3149 246.406 38.7313 245.735 39.0569C245.067 39.3666 244.338 39.5225 243.555 39.5225C242.2 39.5225 241.081 39.1634 240.197 38.4452C239.331 37.7269 238.898 36.7778 238.898 35.6018C238.898 34.8658 239.086 34.2048 239.463 33.6168C239.84 33.0288 240.37 32.571 241.055 32.2435C241.742 31.9002 242.533 31.7285 243.433 31.7285H247.33V31.3122C247.33 30.6097 247.077 30.0375 246.57 29.5975C246.063 29.1555 245.386 28.9365 244.536 28.9365C243.8 28.9365 243.212 29.0845 242.772 29.3785C242.33 29.6725 242.028 30.0395 241.866 30.4815H239.293C239.506 29.3212 240.076 28.4057 241.01 27.7368C241.957 27.0679 243.133 26.7324 244.538 26.7324L244.536 26.7305ZM243.776 37.3422C244.838 37.3422 245.696 37.0482 246.349 36.4602C247.002 35.8722 247.33 35.1441 247.33 34.2798V33.7905H243.776C243.058 33.7905 242.494 33.9463 242.085 34.2561C241.692 34.5659 241.497 35 241.497 35.5545C241.497 36.0774 241.7 36.5095 242.111 36.8528C242.519 37.1804 243.076 37.3422 243.778 37.3422H243.776Z" fill="white"></path> <path d="M257.765 35.381L261.441 26.999H264.162L256.466 44.1538H253.795L256.441 38.2481L251.123 26.999H253.917L257.765 35.381Z" fill="white"></path> <path d="M121.528 41.0561V47.8201C121.528 51.5553 118.499 54.5841 114.764 54.5841C111.029 54.5841 108 51.5573 108 47.8201C108 44.0829 111.029 41.0561 114.764 41.0561H121.528ZM135.056 41.0561C142.527 41.0561 148.584 34.9985 148.584 27.528C148.584 20.0576 142.528 14 135.056 14C127.584 14 121.528 20.0576 121.528 27.528V41.0561H135.056Z" fill="#00DBC8"></path> </g> <path d="M28.9221 20.858C30.9875 20.858 32.6333 21.5305 33.8572 22.8756C35.1066 24.2207 35.7303 26.0215 35.7303 28.2793V39.3755H31.0831V28.6044C31.0831 27.5238 30.8186 26.6834 30.2905 26.0821C29.7625 25.4818 29.0177 25.1811 28.0573 25.1811C27.0001 25.1811 26.1725 25.5296 25.5711 26.2255C24.9942 26.9225 24.7063 27.9308 24.7063 29.2514V39.3745H20.0591V28.6033C20.0591 27.5228 19.7945 26.6824 19.2665 26.081C18.7385 25.4807 17.9937 25.1801 17.0332 25.1801C16.0005 25.1801 15.1718 25.5286 14.5471 26.2245C13.9468 26.9214 13.6461 27.9297 13.6461 29.2503V39.3734H9V21.3627H13.6472V23.2719C14.7277 21.6623 16.3968 20.858 18.6545 20.858C20.9122 20.858 22.4974 21.7228 23.5535 23.4515C24.7541 21.7218 26.5433 20.858 28.921 20.858H28.9221ZM41.6939 14.1571H46.017V39.3755H41.0458V19.4173L36.2902 20.7507L35.0652 16.4998L41.6939 14.1582V14.1571ZM58.5083 39.8791C55.3624 39.8791 52.8879 38.6902 51.087 36.3125C49.3095 33.9113 48.4213 30.7282 48.4213 26.7653C48.4213 22.8023 49.3095 19.6319 51.087 17.2542C52.8879 14.8519 55.3624 13.6514 58.5083 13.6514C61.6542 13.6514 64.152 14.8519 65.9295 17.2542C67.707 19.6319 68.5952 22.8023 68.5952 26.7653C68.5952 30.7282 67.707 33.9103 65.9295 36.3125C64.152 38.6902 61.6786 39.8791 58.5083 39.8791ZM54.6898 32.9264C55.5547 34.3193 56.8275 35.0163 58.5083 35.0163C60.1891 35.0163 61.463 34.3076 62.3267 32.8903C63.215 31.473 63.6601 29.432 63.6601 26.7663C63.6601 24.1006 63.216 22.0225 62.3267 20.6062C61.4619 19.1889 60.1891 18.4802 58.5083 18.4802C56.8275 18.4802 55.5547 19.1889 54.6898 20.6062C53.825 22.0235 53.3926 24.0762 53.3926 26.7663C53.3926 29.4564 53.825 31.5091 54.6898 32.9264Z" fill="white"></path> <path d="M31.7861 15.8996C32.6551 16.0207 33.4594 15.4151 33.5805 14.545C33.7017 13.6759 33.0961 12.8716 32.2259 12.7505L31.7861 15.8996ZM28.6263 12.2469C27.7572 12.1257 26.9529 12.7313 26.8318 13.6015C26.7107 14.4706 27.3163 15.2749 28.1865 15.396L28.6263 12.2469ZM32.2259 12.7505L28.6263 12.2469L28.1865 15.396L31.7861 15.8996L32.2259 12.7505Z" fill="white"></path> <path d="M39.4321 7.91277C39.3333 8.78505 39.9612 9.57233 40.8335 9.67114C41.7058 9.76994 42.493 9.14203 42.5918 8.26976L39.4321 7.91277ZM43.3249 1.7686C43.4238 0.89632 42.7958 0.109041 41.9236 0.0102328C41.0513 -0.0885755 40.264 0.539335 40.1652 1.41161L43.3249 1.7686ZM42.5908 8.26976L43.3249 1.7686L40.1652 1.41161L39.431 7.91277L42.5908 8.26976Z" fill="white"></path> <path d="M34.4266 10.2576C35.0036 10.9195 36.0076 10.9897 36.6695 10.4127C37.3314 9.83583 37.4015 8.83181 36.8246 8.16991L34.4266 10.2576ZM32.8181 3.56841C32.2412 2.9065 31.2372 2.83638 30.5752 3.41329C29.9133 3.99021 29.8432 4.99423 30.4201 5.65614L32.8181 3.56841ZM36.8246 8.16991L32.8181 3.56841L30.4201 5.65614L34.4266 10.2576L36.8246 8.16991Z" fill="white"></path> <path d="M44.627 9.67887C44.0384 10.3302 44.0894 11.3352 44.7406 11.9238C45.3919 12.5124 46.3981 12.4614 46.9856 11.8102L44.6259 9.67887H44.627ZM49.7544 8.74498C50.343 8.09369 50.292 7.08861 49.6407 6.50001C48.9894 5.91141 47.9833 5.96241 47.3957 6.61369L49.7554 8.74498H49.7544ZM46.9867 11.8091L49.7544 8.74498L47.3947 6.61369L44.627 9.67781L46.9867 11.8091Z" fill="white"></path> <path d="M81.9219 25.4844H83.2891V29.6484C83.5964 29.2474 83.9635 28.9427 84.3906 28.7344C84.8177 28.5208 85.2812 28.4141 85.7812 28.4141C86.8229 28.4141 87.6667 28.7734 88.3125 29.4922C88.9635 30.2057 89.2891 31.2604 89.2891 32.6562C89.2891 33.9792 88.9688 35.0781 88.3281 35.9531C87.6875 36.8281 86.7995 37.2656 85.6641 37.2656C85.0286 37.2656 84.4922 37.112 84.0547 36.8047C83.7943 36.6224 83.5156 36.3307 83.2188 35.9297V37H81.9219V25.4844ZM85.5781 36.0234C86.3385 36.0234 86.9062 35.7214 87.2812 35.1172C87.6615 34.513 87.8516 33.7161 87.8516 32.7266C87.8516 31.8464 87.6615 31.1172 87.2812 30.5391C86.9062 29.9609 86.3516 29.6719 85.6172 29.6719C84.9766 29.6719 84.4141 29.9089 83.9297 30.3828C83.4505 30.8568 83.2109 31.638 83.2109 32.7266C83.2109 33.513 83.3099 34.151 83.5078 34.6406C83.8776 35.5625 84.5677 36.0234 85.5781 36.0234ZM96.1641 28.6328H97.7188C97.5208 29.1693 97.0807 30.3932 96.3984 32.3047C95.888 33.7422 95.4609 34.9141 95.1172 35.8203C94.3047 37.9557 93.7318 39.2578 93.3984 39.7266C93.0651 40.1953 92.4922 40.4297 91.6797 40.4297C91.4818 40.4297 91.3281 40.4219 91.2188 40.4062C91.1146 40.3906 90.9844 40.362 90.8281 40.3203V39.0391C91.0729 39.1068 91.25 39.1484 91.3594 39.1641C91.4688 39.1797 91.5651 39.1875 91.6484 39.1875C91.9089 39.1875 92.099 39.1432 92.2188 39.0547C92.3438 38.9714 92.4479 38.8672 92.5312 38.7422C92.5573 38.7005 92.651 38.487 92.8125 38.1016C92.974 37.7161 93.0911 37.4297 93.1641 37.2422L90.0703 28.6328H91.6641L93.9062 35.4453L96.1641 28.6328Z" fill="white"></path> <defs> <clipPath id="clip0_4356_115746"> <rect width="156.163" height="40.5841" fill="white" transform="translate(108 14)"></rect> </clipPath> </defs> </svg> 