<?xml version="1.0" encoding="UTF-8"?> <svg xmlns="http://www.w3.org/2000/svg" width="79" height="43" viewBox="0 0 79 43" fill="none"> <g clip-path="url(#clip0_4401_116481)"> <path d="M46.5156 2.43383C46.507 2.11261 46.5637 1.79301 46.6824 1.4944C46.8012 1.1958 46.9794 0.92447 47.2062 0.696882C47.4331 0.469294 47.7038 0.290223 48.002 0.170537C48.3002 0.0508505 48.6197 -0.00694906 48.9409 0.000665476H59.4479C59.9435 0.0169406 60.4215 0.188244 60.8146 0.490462H60.9094C61.1898 0.808613 61.419 1.16839 61.5888 1.55694V1.65174C61.6836 1.75444 61.6836 1.84924 61.7863 1.84924C64.2623 3.00164 66.4836 4.63623 68.3202 6.65737C70.1569 8.67851 71.572 11.0456 72.4829 13.6203C72.5837 13.7283 72.6521 13.8624 72.6804 14.0073C72.9727 14.8842 73.265 15.6585 73.4704 16.3773H73.5731C74.1334 16.286 74.7063 16.3089 75.2575 16.4447C75.8087 16.5804 76.3268 16.8263 76.7805 17.1673C77.6802 17.9064 78.3537 18.8837 78.7239 19.9876C79.0368 20.9635 79.2019 21.9807 79.2137 23.0055C79.2356 23.5343 79.2012 24.0639 79.111 24.5855C79.0162 24.8778 79.0162 25.2648 78.9214 25.5571C78.5093 27.4215 77.4792 29.0918 75.9984 30.2971C75.0563 31.1107 73.8367 31.5294 72.5935 31.4663C72.1659 31.4562 71.7413 31.3925 71.3295 31.2767V31.3715C71.1408 32.0303 70.8474 32.6545 70.4605 33.2201C69.7492 34.3007 68.8963 35.2811 67.9246 36.1353C65.7937 37.9263 63.3944 39.3712 60.8146 40.4171C60.0246 40.7094 59.3531 40.899 58.6737 41.2071C58.571 41.3098 58.571 41.4046 58.4762 41.4994C58.4067 41.7879 58.2746 42.0576 58.0891 42.2894C57.9763 42.4403 57.8296 42.5626 57.6608 42.6463C57.492 42.73 57.3058 42.7728 57.1174 42.7713H53.8073C53.5947 42.7768 53.3843 42.7264 53.1971 42.6252C53.01 42.524 52.8527 42.3756 52.7408 42.1946C52.5001 41.7808 52.3732 41.3105 52.3732 40.8318C52.3732 40.353 52.5001 39.8828 52.7408 39.469C52.8428 39.2787 52.9979 39.1222 53.1873 39.0184C53.3766 38.9146 53.592 38.868 53.8073 38.8844H57.0147C57.2944 38.8705 57.5722 38.9376 57.8147 39.0778C58.0571 39.2179 58.2539 39.4251 58.3814 39.6744C58.3898 39.7491 58.4232 39.8187 58.4762 39.8719L59.9377 39.2873C62.3504 38.3169 64.6013 36.985 66.6132 35.3373C67.3904 34.7576 68.0796 34.0685 68.6593 33.2913C69.0491 32.7282 69.4052 32.1425 69.7258 31.5374C69.8768 31.2217 70.0087 30.8972 70.1208 30.5657C69.8813 30.4197 69.7009 30.1939 69.6113 29.9281C69.5217 29.6622 69.5287 29.3734 69.631 29.1121C69.8285 28.6223 69.9233 28.2353 70.1208 27.7455C71.0372 24.9924 71.3339 22.0709 70.9898 19.1898C70.7378 17.0664 70.1484 14.9969 69.2439 13.0594C68.3388 11.0753 67.05 9.28983 65.4519 7.80587C64.1229 6.4818 62.5755 5.39678 60.8778 4.59847H60.388C60.1379 4.70775 59.8705 4.77193 59.598 4.78806H48.7987C48.2972 4.79328 47.8077 4.63492 47.4043 4.33699C47.0009 4.03906 46.7055 3.61777 46.563 3.13694V3.04215C46.4862 2.85737 46.4537 2.65715 46.4682 2.45755" fill="white"></path> <path d="M6.94411 16.1876L6.7861 16.4482L4.266 15.7926L3.634 18.1626H3.3101L2.67811 15.7926L0.150102 16.4482L0 16.1876L1.98291 14.2994L0 12.4034L0.150102 12.1586L2.67811 12.8221L3.3101 10.4521H3.634L4.266 12.8221L6.7861 12.1586L6.94411 12.4034L4.95332 14.2994L6.94411 16.1876Z" fill="white"></path> <path d="M19.6563 22.5042C21.1544 21.5149 21.9175 20.1299 21.9175 18.3209C21.9175 16.512 21.2957 15.127 20.0803 14.1377C18.8649 13.1484 17.3951 12.6396 15.6427 12.6396C13.862 12.6396 12.3922 13.1484 11.1768 14.1377C9.96138 15.127 9.36782 16.512 9.36782 18.3209C9.36782 20.1299 10.1027 21.5149 11.6008 22.5042C9.76353 23.5217 8.68945 25.2741 8.68945 27.3092C8.68945 29.1182 9.31129 30.5597 10.5832 31.6055C11.8551 32.6513 13.551 33.1601 15.6427 33.1601C19.8259 33.1601 22.5676 30.9272 22.5676 27.3092C22.5676 25.1893 21.6066 23.5782 19.6563 22.5042ZM15.6427 15.7205C17.3668 15.7205 18.667 16.6816 18.667 18.4623C18.667 20.1582 17.3386 21.204 15.6427 21.204C13.9185 21.204 12.6183 20.1582 12.6183 18.4623C12.6183 16.6816 13.862 15.7205 15.6427 15.7205ZM15.6427 30.0792C13.4097 30.0792 11.9399 28.9486 11.9399 26.9983C11.9399 25.048 13.4097 23.9174 15.6427 23.9174C17.8191 23.9174 19.3171 25.048 19.3171 26.9983C19.3171 28.9486 17.8191 30.0792 15.6427 30.0792Z" fill="white"></path> <path d="M35.5002 22.5042C36.9983 21.5149 37.7614 20.1299 37.7614 18.3209C37.7614 16.512 37.1396 15.127 35.9242 14.1377C34.7088 13.1484 33.239 12.6396 31.4866 12.6396C29.7059 12.6396 28.2361 13.1484 27.0207 14.1377C25.8053 15.127 25.2117 16.512 25.2117 18.3209C25.2117 20.1299 25.9466 21.5149 27.4447 22.5042C25.6074 23.5217 24.5334 25.2741 24.5334 27.3092C24.5334 29.1182 25.1552 30.5597 26.4271 31.6055C27.699 32.6513 29.395 33.1601 31.4866 33.1601C35.6698 33.1601 38.4115 30.9272 38.4115 27.3092C38.4115 25.1893 37.4505 23.5782 35.5002 22.5042ZM31.4866 15.7205C33.2107 15.7205 34.5109 16.6816 34.5109 18.4623C34.5109 20.1582 33.1825 21.204 31.4866 21.204C29.7624 21.204 28.4622 20.1582 28.4622 18.4623C28.4622 16.6816 29.7059 15.7205 31.4866 15.7205ZM31.4866 30.0792C29.2536 30.0792 27.7838 28.9486 27.7838 26.9983C27.7838 25.048 29.2536 23.9174 31.4866 23.9174C33.663 23.9174 35.161 25.048 35.161 26.9983C35.161 28.9486 33.663 30.0792 31.4866 30.0792Z" fill="white"></path> <path d="M38.6513 14.8443L39.4427 17.6143L43.4281 16.4837V32.7927H46.6786V13.0071H43.8521L38.6513 14.8443Z" fill="white"></path> <path d="M63.4135 30.3619C64.7985 28.4964 65.4769 26.009 65.4769 22.8999C65.4769 19.7907 64.7985 17.3034 63.4135 15.4379C62.0568 13.5724 60.163 12.6396 57.704 12.6396C55.2449 12.6396 53.3512 13.5724 51.9662 15.4379C50.6094 17.3034 49.9311 19.7907 49.9311 22.8999C49.9311 26.009 50.6094 28.4964 51.9662 30.3619C53.3512 32.2274 55.2449 33.1601 57.704 33.1601C60.163 33.1601 62.0568 32.2274 63.4135 30.3619ZM57.704 29.9944C54.7927 29.9944 53.1816 27.4506 53.1816 22.8999C53.1816 18.3492 54.7927 15.8053 57.704 15.8053C60.6435 15.8053 62.2264 18.3492 62.2264 22.8999C62.2264 27.4506 60.6435 29.9944 57.704 29.9944Z" fill="white"></path> </g> <defs> <clipPath id="clip0_4401_116481"> <rect width="79" height="42.66" fill="white"></rect> </clipPath> </defs> </svg> 