<?xml version="1.0" encoding="UTF-8"?> <svg xmlns="http://www.w3.org/2000/svg" width="1052" height="952" viewBox="0 0 1052 952" fill="none"> <path d="M190.662 770.429C188.34 769.456 184.835 767.716 180.147 765.211C175.977 762.11 171.506 758.747 166.734 755.123C162.48 750.904 159.387 747.171 157.455 743.925C155.565 741.238 155.186 736.205 156.316 728.827C158.006 721.413 159.971 717.633 162.209 717.488C163.972 718.497 166.622 716.359 170.16 711.072C173.698 705.786 177.214 700.219 180.709 694.374C184.163 687.969 185.847 684.207 185.763 683.089C186.154 680.816 187.426 679.048 189.58 677.784C192.252 675.925 194.643 674.084 196.755 672.262C199.216 667.607 202.516 662.898 206.655 658.134C211.312 652.775 214.913 648.327 217.457 644.791C221.512 638.909 228.994 629.995 239.902 618.05C250.81 606.104 261.417 593.897 271.723 581.429C282.505 567.806 292.013 555.951 300.25 545.865C308.444 535.219 312.674 527.921 312.938 523.97C312.938 523.97 313.714 523.077 315.267 521.291C317.336 518.909 319.707 516.789 322.378 514.93C325.05 513.071 328.476 510.039 332.658 505.835C337.399 501.594 341.321 497.687 344.426 494.114C345.208 489.568 347.822 483.218 352.268 475.063C357.231 466.313 362.3 458.96 367.474 453.005C371.445 446.005 375.093 438.464 378.42 430.381C381.705 421.74 383.759 415.425 384.583 411.439C385.798 405.179 385.524 401.544 383.76 400.535C381.955 398.966 374.75 396.624 362.143 393.508C348.376 389.905 333.42 389.189 317.277 391.36C301.651 392.935 284.572 401.347 266.04 416.596C258.333 418.782 251.227 421.49 244.723 424.721C238.778 427.916 233.546 429.38 229.027 429.111C226.705 428.137 223.997 425.784 220.904 422.052C217.811 418.319 214.459 414.884 210.848 411.746L201.126 394.677L226.071 378.731C247.918 362.704 267.864 351.297 285.908 344.508C304.513 337.682 321.839 336.278 337.887 340.295C344.042 339.895 349.701 340.371 354.864 341.722C359.985 342.514 362.545 342.91 362.545 342.91C366.98 342.061 372.765 344.214 379.902 349.37C386.997 353.968 393.917 359.981 400.663 367.41C407.968 374.803 413.595 382.305 417.543 389.916C427.508 402.755 431.381 416.833 429.162 432.148C427.461 446.868 420.395 465.027 407.966 486.623C405.421 490.16 399.793 497.548 391.081 508.789C382.369 520.031 372.364 532.76 361.065 546.979C350.283 560.602 340.236 572.772 330.922 583.491C322.169 594.172 316.498 601.002 313.911 603.979C310.12 605.911 303.848 612.218 295.094 622.9C286.858 632.986 277.866 644.245 268.119 656.677C258.89 668.514 250.976 679.141 244.376 688.56C238.293 697.383 235.812 701.758 236.931 701.686C236.54 703.959 237.464 705.023 239.702 704.877C241.898 704.173 245.451 702.819 250.361 700.815C258.544 697.475 269.245 693.971 282.464 690.305C296.243 686.602 310.344 683.44 324.767 680.819C339.147 677.639 351.632 675.424 362.222 674.176C373.372 672.891 379.849 673.033 381.655 674.602C382.985 677.325 383.908 678.389 384.426 677.793C385.461 676.603 385.978 676.007 385.978 676.007C386.802 672.02 393.713 670.448 406.71 671.291C420.266 672.098 432.487 673.834 443.372 676.5C449.654 677.778 454.516 678.868 457.958 679.769C461.959 680.633 464.044 682.183 464.213 684.42C464.213 684.42 464.878 685.782 466.208 688.505C468.056 690.633 470.806 693.545 474.458 697.242C483.96 703.93 485.438 708.611 478.891 711.283C472.345 713.955 457.732 714.06 435.054 711.597C420.504 712.54 408.537 714.159 399.15 716.453C396.996 717.717 392.282 718.584 385.007 719.056C377.732 719.528 370.759 720.261 364.086 721.255C353.929 720.79 343.899 722.002 333.995 724.892C324.049 727.223 312.249 731.078 298.597 736.459C293.687 738.463 286.043 741.487 275.664 745.532C265.285 749.576 254.066 753.675 242.008 757.828C229.95 761.981 218.948 765.223 209.002 767.554C199.616 769.848 193.503 770.807 190.662 770.429Z" fill="#FB774D"></path> <path d="M500.785 821.409C491.695 820.496 485.371 816.398 481.815 809.116C478.758 801.802 478.773 792.035 481.861 779.815C484.949 767.595 491.166 753.669 500.513 738.038C504.701 733.76 508.428 730.012 511.694 726.796C514.922 723.08 516.903 719.446 517.638 715.893C519.868 712.242 524.847 705.158 532.574 694.641C540.264 683.625 549.356 671.265 559.85 657.563C570.345 643.861 580.608 630.425 590.642 617.253C601.173 604.05 610.091 592.704 617.395 583.215C624.699 573.727 628.543 568.218 628.929 566.691C630.962 567.06 633.131 565.918 635.437 563.264C637.705 560.112 639.207 556.759 639.941 553.206C641.137 549.122 643.368 545.471 646.633 542.254C649.862 538.539 653.203 536.319 656.656 535.595C657.466 533.038 658.563 530.963 659.946 529.371C661.33 527.779 662.196 525.97 662.544 523.944C662.892 521.918 663.758 520.109 665.142 518.517C667.024 516.892 668.14 515.067 668.488 513.041C672.676 508.763 679.862 501.035 690.045 489.857C700.191 478.181 711.951 464.647 725.325 449.256C738.7 433.865 752.516 417.694 766.775 400.743C781.034 383.791 794.37 367.902 806.785 353.073C819.199 338.245 829.288 325.822 837.053 315.802C844.818 305.783 849.143 299.993 850.027 298.434C853.03 291.728 857.637 289.676 863.848 292.279C867.189 290.059 871.179 289.8 875.818 291.503C875.818 291.503 876.161 292.732 876.848 295.192C877.996 297.121 879.755 300.513 882.126 305.367C884.996 310.19 886.331 314.61 886.133 318.63C885.898 322.151 884.472 326.501 881.855 331.679C879.774 337.323 877.139 342.251 873.948 346.465C871.256 350.646 866.414 356.219 859.421 363.183C852.927 370.115 842.706 380.794 828.758 395.221C825.567 399.435 819.111 406.865 809.389 417.512C800.128 427.628 790.193 438.79 779.586 450.997C768.942 462.705 759.699 473.071 751.859 482.093C743.982 490.617 739.831 495.394 739.408 496.423C737.45 497.051 735.05 498.458 732.208 500.646C729.865 502.801 727.653 506.701 725.572 512.345C721.883 516.591 715.869 523.241 707.53 532.296C699.69 541.318 692.311 549.81 685.394 557.771C678.937 565.201 675.516 569.68 675.13 571.208C674.245 572.768 672.843 574.111 670.923 575.237C669.003 576.363 666.584 577.521 663.667 578.712C663.131 578.246 662.42 578.793 661.535 580.353C661.149 581.881 660.956 582.644 660.956 582.644C661.107 584.638 659.163 588.771 655.125 595.042C651.548 600.783 645.784 607.418 637.831 614.945C630.104 625.462 619.896 639.647 607.209 657.498C594.983 674.818 582.333 693.167 569.259 712.546C556.647 731.393 545.4 748.4 535.517 763.565C525.672 779.228 519.478 790.147 516.937 796.322C513.661 806.05 510.889 812.49 508.62 815.642C506.851 818.762 504.239 820.684 500.785 821.409ZM756.224 709.438C764.45 698.888 770.949 688.7 775.721 678.875C780.493 669.05 784.847 656.998 788.782 642.72C790.289 636.111 790.647 627.574 789.858 617.107C789.069 606.641 787.371 600.741 784.764 599.408C779.589 597.239 773.547 596.88 766.64 598.329C760.193 599.248 753.742 603.423 747.285 610.853C735.53 621.131 725.747 634.286 717.934 650.318C710.583 665.82 703.363 683.066 696.275 702.056C691.803 715.869 691.383 726.914 695.015 735.193C699.107 742.941 706.546 745.213 717.331 742.01C728.153 739.305 741.118 728.447 756.224 709.438ZM704.495 781.155C699.508 781.479 695.193 780.757 691.551 778.99C688.408 777.19 684.71 774.675 680.457 771.445C671.875 763.988 665.807 756.619 662.25 749.337C658.694 742.055 657.419 735.126 658.427 728.55C659.162 724.997 659.185 721.99 658.499 719.531C658.273 716.54 658.16 715.045 658.16 715.045C655.978 712.682 655.366 711.22 656.326 710.656C657.286 710.093 657.959 709.048 658.345 707.521C660.839 707.359 661.418 705.068 660.082 700.647C659.358 697.689 660.577 690.598 663.74 679.375C666.903 668.151 671.121 657.611 676.392 647.753C678.585 643.604 681.681 638.145 685.682 631.375C689.682 624.604 694.181 617.802 699.179 610.967C704.675 604.1 709.767 598.511 714.454 594.2C723.79 585.081 732.049 578.285 739.229 573.813C746.41 569.341 754.414 565.817 763.242 563.241C772.031 560.167 778.191 558.766 781.72 559.038C785.211 558.811 790.194 561.744 796.667 567.835C805.908 570.742 812.749 575.056 817.19 580.778C822.093 585.969 825.456 594.015 827.28 604.915C829.18 616.812 829.216 630.582 827.389 646.226C826.022 661.34 818.223 680.877 803.992 704.838C795.069 719.44 786.631 730.505 778.679 738.032C770.726 745.559 761.277 753.183 750.331 760.905C742.266 766.937 734.836 771.425 728.041 774.37C721.284 777.813 713.435 780.075 704.495 781.155ZM631.428 440.319C639.654 429.769 646.153 419.582 650.926 409.757C655.698 399.931 660.052 387.88 663.987 373.601C665.493 366.993 665.852 358.455 665.062 347.989C664.273 337.523 662.575 331.623 659.969 330.289C654.793 328.121 648.752 327.761 641.844 329.211C635.398 330.13 628.946 334.304 622.49 341.734C610.735 352.012 600.951 365.168 593.139 381.2C585.787 396.701 578.567 413.947 571.479 432.938C567.008 446.75 566.588 457.796 570.219 466.074C574.312 473.822 581.769 476.344 592.592 473.639C603.377 470.435 616.322 459.329 631.428 440.319ZM578.895 511.338C573.908 511.661 569.593 510.939 565.951 509.172C562.808 507.373 559.11 504.858 554.857 501.628C546.275 494.171 540.206 486.802 536.65 479.52C533.094 472.238 531.819 465.309 532.827 458.733C533.562 455.179 533.585 452.173 532.899 449.713C532.673 446.723 532.56 445.227 532.56 445.227C530.377 442.865 529.766 441.402 530.726 440.839C531.686 440.276 532.359 439.231 532.745 437.703C535.239 437.541 535.818 435.25 534.482 430.829C533.758 427.871 534.977 420.78 538.14 409.557C541.303 398.334 545.521 387.793 550.792 377.936C552.985 373.787 556.081 368.327 560.082 361.557C564.082 354.787 568.581 347.984 573.579 341.15C579.075 334.282 584.167 328.693 588.854 324.383C598.19 315.263 606.449 308.468 613.629 303.995C620.81 299.523 628.814 295.999 637.642 293.423C646.431 290.349 652.591 288.948 656.12 289.22C659.611 288.994 664.594 291.926 671.067 298.017C680.308 300.924 687.149 305.238 691.59 310.96C696.493 316.152 699.856 324.197 701.68 335.097C703.58 346.994 703.616 360.765 701.789 376.409C700.422 391.522 692.623 411.06 678.392 435.021C669.469 449.622 661.031 460.687 653.079 468.214C645.126 475.742 635.677 483.366 624.731 491.087C616.666 497.119 609.255 501.857 602.497 505.3C595.703 508.245 587.835 510.257 578.895 511.338Z" fill="#FB774D"></path> </svg> 