<?xml version="1.0" encoding="UTF-8"?> <svg xmlns="http://www.w3.org/2000/svg" width="146" height="17" viewBox="0 0 146 17" fill="none"> <path d="M0.278409 13V1.36364H4.53977C5.36553 1.36364 6.04924 1.5 6.59091 1.77273C7.13258 2.04167 7.53788 2.4072 7.80682 2.86932C8.07576 3.32765 8.21023 3.8447 8.21023 4.42045C8.21023 4.9053 8.12121 5.31439 7.94318 5.64773C7.76515 5.97727 7.52652 6.24242 7.22727 6.44318C6.93182 6.64015 6.60606 6.78409 6.25 6.875V6.98864C6.63636 7.00758 7.01326 7.13258 7.38068 7.36364C7.75189 7.59091 8.05871 7.91477 8.30114 8.33523C8.54356 8.75568 8.66477 9.26705 8.66477 9.86932C8.66477 10.464 8.52462 10.9981 8.24432 11.4716C7.9678 11.9413 7.53977 12.3144 6.96023 12.5909C6.38068 12.8636 5.64015 13 4.73864 13H0.278409ZM2.03409 11.4943H4.56818C5.40909 11.4943 6.01136 11.3314 6.375 11.0057C6.73864 10.6799 6.92045 10.2727 6.92045 9.78409C6.92045 9.41667 6.82765 9.07955 6.64205 8.77273C6.45644 8.46591 6.19129 8.22159 5.84659 8.03977C5.50568 7.85795 5.10038 7.76705 4.63068 7.76705H2.03409V11.4943ZM2.03409 6.39773H4.38636C4.7803 6.39773 5.13447 6.32197 5.44886 6.17045C5.76705 6.01894 6.01894 5.80682 6.20455 5.53409C6.39394 5.25758 6.48864 4.93182 6.48864 4.55682C6.48864 4.07576 6.32008 3.67235 5.98295 3.34659C5.64583 3.02083 5.12879 2.85795 4.43182 2.85795H2.03409V6.39773ZM10.6108 13V4.27273H12.3097V13H10.6108ZM11.4688 2.92614C11.1733 2.92614 10.9195 2.82765 10.7074 2.63068C10.4991 2.42992 10.3949 2.19129 10.3949 1.91477C10.3949 1.63447 10.4991 1.39583 10.7074 1.19886C10.9195 0.998106 11.1733 0.897727 11.4688 0.897727C11.7642 0.897727 12.0161 0.998106 12.2244 1.19886C12.4366 1.39583 12.5426 1.63447 12.5426 1.91477C12.5426 2.19129 12.4366 2.42992 12.2244 2.63068C12.0161 2.82765 11.7642 2.92614 11.4688 2.92614ZM14.4134 13V11.8352L19.1406 5.82955V5.75H14.5668V4.27273H21.2599V5.51136L16.7145 11.4432V11.5227H21.419V13H14.4134ZM25.1222 7.81818V13H23.4233V4.27273H25.054V5.69318H25.1619C25.3627 5.23106 25.6771 4.85985 26.1051 4.57955C26.5369 4.29924 27.0805 4.15909 27.7358 4.15909C28.3305 4.15909 28.8513 4.28409 29.2983 4.53409C29.7453 4.7803 30.0919 5.14773 30.3381 5.63636C30.5843 6.125 30.7074 6.72917 30.7074 7.44886V13H29.0085V7.65341C29.0085 7.02083 28.8438 6.52652 28.5142 6.17045C28.1847 5.81061 27.732 5.63068 27.1562 5.63068C26.7623 5.63068 26.4119 5.71591 26.1051 5.88636C25.8021 6.05682 25.5616 6.30682 25.3835 6.63636C25.2093 6.96212 25.1222 7.35606 25.1222 7.81818ZM36.7472 13.1761C35.8873 13.1761 35.1468 12.9924 34.5256 12.625C33.9081 12.2538 33.4309 11.733 33.0938 11.0625C32.7604 10.3883 32.5938 9.59848 32.5938 8.69318C32.5938 7.79924 32.7604 7.01136 33.0938 6.32955C33.4309 5.64773 33.9006 5.11553 34.5028 4.73295C35.1089 4.35038 35.8172 4.15909 36.6278 4.15909C37.1203 4.15909 37.5975 4.24053 38.0597 4.40341C38.5218 4.56629 38.9366 4.82197 39.304 5.17045C39.6714 5.51894 39.9612 5.97159 40.1733 6.52841C40.3854 7.08144 40.4915 7.75379 40.4915 8.54545V9.14773H33.554V7.875H38.8267C38.8267 7.42803 38.7358 7.0322 38.554 6.6875C38.3722 6.33902 38.1165 6.06439 37.7869 5.86364C37.4612 5.66288 37.0786 5.5625 36.6392 5.5625C36.1619 5.5625 35.7453 5.67992 35.3892 5.91477C35.0369 6.14583 34.7642 6.44886 34.571 6.82386C34.3816 7.19508 34.2869 7.59848 34.2869 8.03409V9.02841C34.2869 9.61174 34.3892 10.108 34.5938 10.517C34.8021 10.9261 35.0919 11.2386 35.4631 11.4545C35.8343 11.6667 36.268 11.7727 36.7642 11.7727C37.0862 11.7727 37.3797 11.7273 37.6449 11.6364C37.91 11.5417 38.1392 11.4015 38.3324 11.2159C38.5256 11.0303 38.6733 10.8011 38.7756 10.5284L40.3835 10.8182C40.2547 11.2917 40.0237 11.7064 39.6903 12.0625C39.3608 12.4148 38.946 12.6894 38.446 12.8864C37.9498 13.0795 37.3835 13.1761 36.7472 13.1761ZM48.9162 6.40341L47.3764 6.67614C47.312 6.47917 47.2098 6.29167 47.0696 6.11364C46.9332 5.93561 46.7476 5.78977 46.5128 5.67614C46.2779 5.5625 45.9844 5.50568 45.6321 5.50568C45.151 5.50568 44.7495 5.61364 44.4276 5.82955C44.1056 6.04167 43.9446 6.31629 43.9446 6.65341C43.9446 6.94508 44.0526 7.17992 44.2685 7.35795C44.4844 7.53598 44.8329 7.68182 45.3139 7.79545L46.7003 8.11364C47.5033 8.29924 48.1018 8.58523 48.4957 8.97159C48.8897 9.35795 49.0866 9.85985 49.0866 10.4773C49.0866 11 48.9351 11.4659 48.6321 11.875C48.3329 12.2803 47.9143 12.5985 47.3764 12.8295C46.8423 13.0606 46.223 13.1761 45.5185 13.1761C44.5412 13.1761 43.7438 12.9678 43.1264 12.5511C42.509 12.1307 42.1302 11.5341 41.9901 10.7614L43.6321 10.5114C43.7344 10.9394 43.9446 11.2633 44.2628 11.483C44.581 11.6989 44.9957 11.8068 45.5071 11.8068C46.0639 11.8068 46.509 11.6913 46.8423 11.4602C47.1757 11.2254 47.3423 10.9394 47.3423 10.6023C47.3423 10.3295 47.2401 10.1004 47.0355 9.91477C46.8348 9.72917 46.526 9.58902 46.1094 9.49432L44.6321 9.17045C43.8177 8.98485 43.2154 8.68939 42.8253 8.28409C42.4389 7.87879 42.2457 7.36553 42.2457 6.74432C42.2457 6.22917 42.3897 5.77841 42.6776 5.39205C42.9654 5.00568 43.3632 4.70455 43.8707 4.48864C44.3783 4.26894 44.9598 4.15909 45.6151 4.15909C46.5582 4.15909 47.3007 4.36364 47.8423 4.77273C48.384 5.17803 48.742 5.72159 48.9162 6.40341ZM60.7173 9.38068V4.27273H62.4219V13H60.7514V11.4886H60.6605C60.4598 11.9545 60.1378 12.3428 59.6946 12.6534C59.2552 12.9602 58.7079 13.1136 58.0526 13.1136C57.492 13.1136 56.9957 12.9905 56.5639 12.7443C56.1359 12.4943 55.7988 12.125 55.5526 11.6364C55.3101 11.1477 55.1889 10.5436 55.1889 9.82386V4.27273H56.8878V9.61932C56.8878 10.214 57.0526 10.6875 57.3821 11.0398C57.7116 11.392 58.1397 11.5682 58.6662 11.5682C58.9844 11.5682 59.3007 11.4886 59.6151 11.3295C59.9332 11.1705 60.1965 10.9299 60.4048 10.608C60.617 10.286 60.7211 9.87689 60.7173 9.38068ZM57.1491 2.90341C56.8802 2.90341 56.6454 2.80492 56.4446 2.60795C56.2438 2.4072 56.1435 2.17614 56.1435 1.91477C56.1435 1.63068 56.2438 1.39394 56.4446 1.20455C56.6454 1.01515 56.8802 0.920454 57.1491 0.920454C57.4332 0.920454 57.67 1.01515 57.8594 1.20455C58.0526 1.39394 58.1491 1.63068 58.1491 1.91477C58.1491 2.17614 58.0526 2.4072 57.8594 2.60795C57.67 2.80492 57.4332 2.90341 57.1491 2.90341ZM60.4901 2.90341C60.2211 2.90341 59.9863 2.80492 59.7855 2.60795C59.5848 2.4072 59.4844 2.17614 59.4844 1.91477C59.4844 1.63068 59.5848 1.39394 59.7855 1.20455C59.9863 1.01515 60.2211 0.920454 60.4901 0.920454C60.7741 0.920454 61.0109 1.01515 61.2003 1.20455C61.3935 1.39394 61.4901 1.63068 61.4901 1.91477C61.4901 2.17614 61.3935 2.4072 61.2003 2.60795C61.0109 2.80492 60.7741 2.90341 60.4901 2.90341ZM68.3807 13.1761C67.536 13.1761 66.8087 12.9848 66.1989 12.6023C65.5928 12.2159 65.1269 11.6837 64.8011 11.0057C64.4754 10.3277 64.3125 9.55114 64.3125 8.67614C64.3125 7.78977 64.4792 7.00758 64.8125 6.32955C65.1458 5.64773 65.6155 5.11553 66.2216 4.73295C66.8277 4.35038 67.5417 4.15909 68.3636 4.15909C69.0265 4.15909 69.6174 4.2822 70.1364 4.52841C70.6553 4.77083 71.0739 5.11174 71.392 5.55114C71.714 5.99053 71.9053 6.50379 71.9659 7.09091H70.3125C70.2216 6.68182 70.0133 6.32955 69.6875 6.03409C69.3655 5.73864 68.9337 5.59091 68.392 5.59091C67.9186 5.59091 67.5038 5.71591 67.1477 5.96591C66.7955 6.21212 66.5208 6.56439 66.3239 7.02273C66.1269 7.47727 66.0284 8.01515 66.0284 8.63636C66.0284 9.27273 66.125 9.82197 66.3182 10.2841C66.5114 10.7462 66.7841 11.1042 67.1364 11.358C67.4924 11.6117 67.911 11.7386 68.392 11.7386C68.714 11.7386 69.0057 11.6799 69.267 11.5625C69.5322 11.4413 69.7538 11.2689 69.9318 11.0455C70.1136 10.822 70.2405 10.553 70.3125 10.2386H71.9659C71.9053 10.803 71.7216 11.3068 71.4148 11.75C71.108 12.1932 70.697 12.5417 70.1818 12.7955C69.6705 13.0492 69.0701 13.1761 68.3807 13.1761ZM67.767 12.9545H68.8807L68.7898 13.4205C69.1193 13.4735 69.4072 13.6061 69.6534 13.8182C69.8996 14.0303 70.0227 14.3504 70.0227 14.7784C70.0265 15.2898 69.8049 15.7045 69.358 16.0227C68.9148 16.3409 68.2727 16.5 67.4318 16.5L67.3977 15.5511C67.7917 15.5511 68.1098 15.4943 68.3523 15.3807C68.5985 15.267 68.7235 15.0833 68.7273 14.8295C68.7311 14.5758 68.6364 14.3977 68.4432 14.2955C68.2538 14.1932 67.9508 14.1212 67.5341 14.0795L67.767 12.9545ZM79.3111 9.38068V4.27273H81.0156V13H79.3452V11.4886H79.2543C79.0535 11.9545 78.7315 12.3428 78.2884 12.6534C77.849 12.9602 77.3016 13.1136 76.6463 13.1136C76.0857 13.1136 75.5895 12.9905 75.1577 12.7443C74.7296 12.4943 74.3925 12.125 74.1463 11.6364C73.9039 11.1477 73.7827 10.5436 73.7827 9.82386V4.27273H75.4815V9.61932C75.4815 10.214 75.6463 10.6875 75.9759 11.0398C76.3054 11.392 76.7334 11.5682 77.2599 11.5682C77.5781 11.5682 77.8944 11.4886 78.2088 11.3295C78.527 11.1705 78.7902 10.9299 78.9986 10.608C79.2107 10.286 79.3149 9.87689 79.3111 9.38068ZM75.7429 2.90341C75.474 2.90341 75.2391 2.80492 75.0384 2.60795C74.8376 2.4072 74.7372 2.17614 74.7372 1.91477C74.7372 1.63068 74.8376 1.39394 75.0384 1.20455C75.2391 1.01515 75.474 0.920454 75.7429 0.920454C76.027 0.920454 76.2637 1.01515 76.4531 1.20455C76.6463 1.39394 76.7429 1.63068 76.7429 1.91477C76.7429 2.17614 76.6463 2.4072 76.4531 2.60795C76.2637 2.80492 76.027 2.90341 75.7429 2.90341ZM79.0838 2.90341C78.8149 2.90341 78.58 2.80492 78.3793 2.60795C78.1785 2.4072 78.0781 2.17614 78.0781 1.91477C78.0781 1.63068 78.1785 1.39394 78.3793 1.20455C78.58 1.01515 78.8149 0.920454 79.0838 0.920454C79.3679 0.920454 79.6046 1.01515 79.794 1.20455C79.9872 1.39394 80.0838 1.63068 80.0838 1.91477C80.0838 2.17614 79.9872 2.4072 79.794 2.60795C79.6046 2.80492 79.3679 2.90341 79.0838 2.90341ZM84.9972 7.81818V13H83.2983V4.27273H84.929V5.69318H85.0369C85.2377 5.23106 85.5521 4.85985 85.9801 4.57955C86.4119 4.29924 86.9555 4.15909 87.6108 4.15909C88.2055 4.15909 88.7263 4.28409 89.1733 4.53409C89.6203 4.7803 89.9669 5.14773 90.2131 5.63636C90.4593 6.125 90.5824 6.72917 90.5824 7.44886V13H88.8835V7.65341C88.8835 7.02083 88.7188 6.52652 88.3892 6.17045C88.0597 5.81061 87.607 5.63068 87.0312 5.63068C86.6373 5.63068 86.2869 5.71591 85.9801 5.88636C85.6771 6.05682 85.4366 6.30682 85.2585 6.63636C85.0843 6.96212 84.9972 7.35606 84.9972 7.81818ZM97.0952 13V4.27273H98.7259V5.69318H98.8338C99.0156 5.21212 99.313 4.83712 99.7259 4.56818C100.139 4.29545 100.633 4.15909 101.209 4.15909C101.792 4.15909 102.281 4.29545 102.675 4.56818C103.072 4.84091 103.366 5.21591 103.555 5.69318H103.646C103.855 5.22727 104.186 4.85606 104.641 4.57955C105.095 4.29924 105.637 4.15909 106.266 4.15909C107.057 4.15909 107.703 4.4072 108.203 4.90341C108.707 5.39962 108.959 6.14773 108.959 7.14773V13H107.26V7.30682C107.26 6.71591 107.099 6.28788 106.777 6.02273C106.455 5.75758 106.071 5.625 105.624 5.625C105.071 5.625 104.641 5.79545 104.334 6.13636C104.027 6.47348 103.874 6.9072 103.874 7.4375V13H102.18V7.19886C102.18 6.72538 102.033 6.3447 101.737 6.05682C101.442 5.76894 101.057 5.625 100.584 5.625C100.262 5.625 99.9645 5.71023 99.6918 5.88068C99.4228 6.04735 99.205 6.2803 99.0384 6.57955C98.8755 6.87879 98.794 7.22538 98.794 7.61932V13H97.0952ZM114.987 1.36364V13H113.226V3.125H113.158L110.374 4.94318V3.26136L113.277 1.36364H114.987ZM122.186 13.1932C121.288 13.1894 120.521 12.9527 119.885 12.483C119.249 12.0133 118.762 11.3295 118.425 10.4318C118.088 9.53409 117.919 8.45265 117.919 7.1875C117.919 5.92614 118.088 4.84848 118.425 3.95455C118.766 3.06061 119.254 2.37879 119.891 1.90909C120.531 1.43939 121.296 1.20455 122.186 1.20455C123.076 1.20455 123.839 1.44129 124.476 1.91477C125.112 2.38447 125.599 3.06629 125.936 3.96023C126.277 4.85038 126.447 5.92614 126.447 7.1875C126.447 8.45644 126.279 9.53977 125.942 10.4375C125.605 11.3314 125.118 12.0152 124.482 12.4886C123.845 12.9583 123.08 13.1932 122.186 13.1932ZM122.186 11.6761C122.974 11.6761 123.589 11.2917 124.033 10.5227C124.48 9.75379 124.703 8.64205 124.703 7.1875C124.703 6.22159 124.601 5.4053 124.396 4.73864C124.196 4.06818 123.906 3.56061 123.527 3.21591C123.152 2.86742 122.705 2.69318 122.186 2.69318C121.402 2.69318 120.786 3.07954 120.339 3.85227C119.893 4.625 119.667 5.73674 119.663 7.1875C119.663 8.1572 119.764 8.97727 119.964 9.64773C120.169 10.3144 120.459 10.8201 120.834 11.1648C121.209 11.5057 121.66 11.6761 122.186 11.6761ZM139.97 12.483L138.947 11.4716L142.499 7.92045H133.578V6.44318H142.499L138.947 2.89773L139.97 1.88068L145.271 7.18182L139.97 12.483Z" fill="#00DBC8"></path> </svg> 