<svg width="17" height="16" viewBox="0 0 17 16" fill="none" xmlns="http://www.w3.org/2000/svg">
<path d="M13.6551 0C15.2506 0 16.544 1.29341 16.544 2.88889V5.55556C16.544 5.92375 16.2455 6.22223 15.8773 6.22223C15.5092 6.22223 15.2107 5.92375 15.2107 5.55556V2.88889C15.2107 2.02978 14.5142 1.33333 13.6551 1.33333H10.9884C10.6203 1.33333 10.3218 1.03485 10.3218 0.666667C10.3218 0.29848 10.6203 0 10.9884 0H13.6551Z" fill="#0360B9"/>
<path d="M3.43284 0C1.83734 0 0.543945 1.2934 0.543945 2.88889V5.55556C0.543945 5.92375 0.842425 6.22223 1.21061 6.22223C1.5788 6.22223 1.87728 5.92375 1.87728 5.55556V2.88889C1.87728 2.02978 2.57372 1.33333 3.43284 1.33333H6.0995C6.46769 1.33333 6.76617 1.03485 6.76617 0.666667C6.76617 0.29848 6.46769 0 6.0995 0H3.43284Z" fill="#0360B9"/>
<path d="M13.6551 16.0001C15.2506 16.0001 16.544 14.7066 16.544 13.1112V10.4445C16.544 10.0763 16.2455 9.77783 15.8773 9.77783C15.5092 9.77783 15.2107 10.0763 15.2107 10.4445V13.1112C15.2107 13.9703 14.5142 14.6667 13.6551 14.6667H10.9884C10.6203 14.6667 10.3218 14.9652 10.3218 15.3334C10.3218 15.7016 10.6203 16.0001 10.9884 16.0001H13.6551Z" fill="#0360B9"/>
<path d="M0.543945 13.1112C0.543945 14.7066 1.83734 16.0001 3.43284 16.0001H6.0995C6.46769 16.0001 6.76617 15.7016 6.76617 15.3334C6.76617 14.9652 6.46769 14.6667 6.0995 14.6667H3.43284C2.57372 14.6667 1.87728 13.9703 1.87728 13.1112V10.4445C1.87728 10.0763 1.5788 9.77783 1.21061 9.77783C0.842425 9.77783 0.543945 10.0763 0.543945 10.4445V13.1112Z" fill="#0360B9"/>
<path d="M8.54387 10.6678C10.0167 10.6678 11.2105 9.47394 11.2105 8.00114C11.2105 6.52834 10.0167 5.33447 8.54387 5.33447C7.07107 5.33447 5.8772 6.52834 5.8772 8.00114C5.8772 9.47394 7.07107 10.6678 8.54387 10.6678ZM8.54387 9.33447C7.80751 9.33447 7.21053 8.73749 7.21053 8.00114C7.21053 7.26478 7.80751 6.66781 8.54387 6.66781C9.28022 6.66781 9.8772 7.26478 9.8772 8.00114C9.8772 8.73749 9.28022 9.33447 8.54387 9.33447Z" fill="#0360B9"/>
<path d="M4.54367 4.88813C5.0346 4.88813 5.43256 4.49017 5.43256 3.99924C5.43256 3.50833 5.0346 3.11035 4.54367 3.11035C4.05276 3.11035 3.65479 3.50833 3.65479 3.99924C3.65479 4.49017 4.05276 4.88813 4.54367 4.88813Z" fill="#0360B9"/>
</svg>