<?xml version="1.0" encoding="UTF-8"?> <svg xmlns="http://www.w3.org/2000/svg" width="293" height="293" viewBox="0 0 293 293" fill="none"> <circle cx="146.5" cy="146.5" r="145.615" fill="#FFECE3" stroke="#EFD4C6" stroke-width="1.76871"></circle> <g clip-path="url(#clip0_2064_28892)"> <path fill-rule="evenodd" clip-rule="evenodd" d="M96.5684 110.513C97.9787 112.857 104.356 122.886 105.529 125.427C108.521 131.905 110.543 139.018 110.542 146.717C110.542 160.795 100.145 172.21 87.3176 172.21C74.4903 172.21 64.0936 160.795 64.0936 146.717C64.0936 128.548 75.3299 113.648 84.1458 102.592C85.7801 100.542 88.8507 100.535 90.4864 102.585C92.4444 105.04 94.5209 107.686 96.5684 110.513Z" fill="#F37961"></path> <path d="M115.388 150.667C115.388 149.643 116.205 148.813 117.211 148.813C118.216 148.813 119.033 149.643 119.033 150.667C119.033 158.187 116.245 165.007 111.74 169.953C107.203 174.932 100.927 178.014 93.9866 178.014C87.0463 178.014 80.7692 174.934 76.2334 169.953C71.7279 165.007 68.9405 158.187 68.9405 150.667C68.9405 130.944 81.564 115.172 90.7021 103.754C91.2845 103.026 91.822 102.355 92.572 101.41C93.2005 100.614 94.345 100.488 95.1282 101.127C95.2394 101.219 95.3377 101.322 95.4229 101.432C96.1483 102.348 96.6974 103.032 97.2696 103.746C104.337 112.576 113.498 124.024 117.286 137.933C117.553 138.916 116.985 139.936 116.018 140.208C115.052 140.48 114.05 139.902 113.783 138.918C110.199 125.759 101.308 114.647 94.449 106.078L93.9881 105.503L93.5213 106.086C84.7285 117.072 72.5833 132.245 72.5833 150.667C72.5833 157.225 74.9965 163.152 78.8951 167.433C82.7633 171.68 88.0997 174.306 93.9866 174.306C99.8735 174.306 105.21 171.68 109.078 167.433C112.977 163.154 115.388 157.225 115.388 150.667Z" fill="#14234B"></path> <path d="M93.9879 167.218C92.9822 167.218 92.1658 166.387 92.1658 165.364C92.1658 164.341 92.9822 163.51 93.9879 163.51C97.0658 163.51 99.859 162.133 101.886 159.909C103.944 157.65 105.217 154.514 105.217 151.037C105.217 150.014 106.033 149.183 107.039 149.183C108.045 149.183 108.861 150.014 108.861 151.037C108.861 155.474 107.213 159.504 104.548 162.429C101.852 165.388 98.1192 167.218 93.9879 167.218Z" fill="#14234B"></path> </g> <g clip-path="url(#clip1_2064_28892)"> <path fill-rule="evenodd" clip-rule="evenodd" d="M186.481 96.6442C188.595 94.3135 188.03 87.016 191.742 82.0405C193.119 80.1948 196.069 81.115 196.183 83.415C196.705 93.8816 203.524 112.085 181.666 127.87C180.333 128.832 178.492 128.253 177.874 126.729C176.359 122.992 172.636 120.834 169.585 118.016C166.359 115.037 164.668 111.883 164.05 108.23C163.662 105.933 160.614 105.385 159.452 107.404C156.066 113.289 154.717 120.303 154.981 127.229C155.058 129.248 152.873 130.527 151.165 129.451C134.935 119.234 131.28 105.722 138.677 89.1432C139.545 87.1992 142.335 87.1628 143.193 89.1094C143.628 90.0944 144.199 91.0649 144.887 92.0793C145.936 93.6249 148.272 93.4571 149.12 91.7931C155.435 79.3933 166.344 66.9465 178.976 63.4369C180.702 62.9582 182.35 64.4918 182.028 66.2548C180.096 76.8228 181.292 87.7598 186.48 96.6424" fill="#F37961"></path> <path d="M196.818 116.187C197.25 115.275 198.337 114.886 199.248 115.316C200.159 115.748 200.547 116.837 200.115 117.749C198.327 121.508 195.845 124.812 192.949 127.723C190.088 130.597 186.831 133.079 183.439 135.23C182.589 135.769 181.465 135.515 180.927 134.666C180.745 134.379 180.654 134.058 180.645 133.74C180.484 129.895 177.7 127.612 174.84 125.269C173.96 124.548 173.073 123.821 172.26 123.071C169.495 120.52 167.751 117.825 166.788 114.823C166.338 113.421 166.063 111.961 165.939 110.427C164.186 113.037 162.903 115.936 162.045 118.984C160.571 124.222 160.338 129.905 161.114 135.353C161.253 136.35 160.558 137.273 159.563 137.412C159.171 137.466 158.79 137.392 158.465 137.221C146.798 131.051 140.056 123.511 137.878 114.662C135.708 105.846 138.123 95.8776 144.758 84.8056C145.276 83.9417 146.396 83.6611 147.257 84.1781C147.916 84.5734 148.234 85.3227 148.116 86.037L148.119 86.0377C147.732 88.4023 147.974 90.2242 148.718 91.9621C149.224 93.1455 149.973 94.3366 150.923 95.6474C154.52 88.3213 159.714 80.8943 165.939 75.131C171.967 69.5571 178.983 65.5159 186.499 64.5667C187.499 64.4443 188.41 65.1561 188.532 66.1573C188.57 66.4716 188.526 66.7787 188.415 67.0553L188.417 67.0556C187.491 69.3703 186.951 72.1074 186.747 75.0376L186.743 75.0845C186.527 78.2577 186.705 81.6587 187.216 85.0062C187.631 87.7236 188.265 90.4073 189.089 92.8984C189.424 93.9152 189.791 94.8992 190.187 95.8408L190.433 94.6783C191.494 89.5871 192.872 82.9847 200.148 80.217C201.089 79.8619 202.139 80.3365 202.494 81.2791C202.675 81.7579 202.64 82.2665 202.438 82.6962L202.441 82.6968C201.488 84.7118 201.938 88.1852 202.48 92.3773C203.021 96.5645 203.65 101.41 203.141 106.65C203.04 107.651 202.147 108.384 201.147 108.283C200.147 108.182 199.416 107.289 199.518 106.287C199.986 101.463 199.387 96.8359 198.87 92.8387C198.524 90.1627 198.211 87.7434 198.249 85.6131C195.498 88.2255 194.67 92.1898 193.997 95.4216C193.469 97.9499 193.016 100.117 191.81 101.509C191.677 101.674 191.512 101.82 191.317 101.936C190.449 102.446 189.331 102.156 188.822 101.287C187.579 99.1599 186.502 96.6932 185.628 94.0428C184.745 91.3652 184.061 88.4834 183.616 85.561C183.068 81.9709 182.88 78.301 183.112 74.8513L183.114 74.7908C183.26 72.6693 183.567 70.63 184.048 68.7386C178.423 70.1403 173.112 73.461 168.409 77.8132C161.797 83.9344 156.403 92.0714 152.998 99.8357C152.882 100.126 152.691 100.391 152.427 100.598C151.635 101.219 150.489 101.079 149.869 100.286C147.872 97.7413 146.33 95.6574 145.366 93.4032C145.194 93.0009 145.042 92.5959 144.91 92.1867C141.072 100.181 139.851 107.393 141.427 113.795C143.16 120.832 148.317 127.013 157.142 132.3C156.828 127.493 157.25 122.603 158.541 118.009C160.02 112.752 162.633 107.877 166.574 103.948L166.577 103.948C166.951 103.575 167.484 103.368 168.05 103.425C169.049 103.529 169.776 104.426 169.671 105.426C169.345 108.556 169.475 111.275 170.26 113.716C171.027 116.109 172.453 118.288 174.734 120.394C175.525 121.125 176.337 121.79 177.144 122.449C179.95 124.75 182.699 127.002 183.797 130.618C186.142 128.979 188.371 127.166 190.372 125.156C192.981 122.532 195.213 119.562 196.819 116.189" fill="#14234B"></path> </g> <g clip-path="url(#clip2_2064_28892)"> <path fill-rule="evenodd" clip-rule="evenodd" d="M137.341 205.468L125.132 203.616C124.026 203.448 123.455 202.195 124.045 201.237L147.063 163.913C147.392 163.379 148.004 163.095 148.62 163.188L170.871 166.563C172.048 166.742 172.595 168.133 171.861 169.08L153.1 193.278C152.367 194.225 152.914 195.616 154.091 195.795L167.471 197.824C168.868 198.036 169.281 199.862 168.115 200.67L126.652 229.331C125.207 230.329 123.484 228.543 124.514 227.116L138.363 207.942C139.051 206.99 138.493 205.644 137.34 205.469L137.341 205.468Z" fill="#F37961"></path> <path d="M142.062 201.351C143.083 201.506 143.786 202.468 143.63 203.498C143.473 204.528 142.517 205.238 141.496 205.084L133.679 203.898C132.658 203.743 131.955 202.781 132.111 201.751C132.158 201.445 132.275 201.167 132.443 200.932L157.182 160.816C157.589 160.154 158.336 159.833 159.053 159.941L159.054 159.937L184.952 163.866C185.974 164.021 186.676 164.983 186.52 166.013C186.464 166.378 186.309 166.703 186.086 166.963L166.072 192.777L182.825 195.318C183.847 195.473 184.549 196.435 184.393 197.465C184.305 198.048 183.961 198.529 183.493 198.807L131.407 234.813C130.555 235.4 129.392 235.18 128.812 234.323C128.352 233.641 128.395 232.764 128.858 232.136L149.527 203.519C150.132 202.676 151.302 202.487 152.136 203.095C152.971 203.703 153.157 204.88 152.551 205.724L138.256 225.517L177.571 198.339L162.343 196.029L162.343 196.026C162.036 195.979 161.737 195.857 161.475 195.651C160.662 195.012 160.516 193.828 161.151 193.005L181.223 167.118L159.705 163.854L137.049 200.591L142.062 201.351Z" fill="#14234B"></path> </g> <defs> <clipPath id="clip0_2064_28892"> <rect width="13.7143" height="19.2957" fill="white" transform="translate(64.0936 100.719) scale(4.00585)"></rect> </clipPath> <clipPath id="clip1_2064_28892"> <rect width="16.8849" height="19.2971" fill="white" transform="translate(145.775 54.9374) scale(4.00585) rotate(13.1505)"></rect> </clipPath> <clipPath id="clip2_2064_28892"> <rect width="14.7862" height="19.6414" fill="white" transform="translate(130.83 155.656) scale(4.00585) rotate(8.6258)"></rect> </clipPath> </defs> </svg> 