<?xml version="1.0" encoding="UTF-8"?> <svg xmlns="http://www.w3.org/2000/svg" width="291" height="291" viewBox="0 0 291 291" fill="none"> <rect width="291" height="291" rx="35.2231" fill="#5AC033"></rect> <path d="M91.8281 187.187C93.1956 185.895 94.8048 185.03 95.7716 183.593V171.387C93.8507 169.275 91.6754 167.513 89.9262 165.249H60.7375C60.4258 178.352 60.5594 208.666 60.9346 210.524H89.6782C91.7199 208.482 93.7617 206.434 95.8098 204.386V190.825C94.5377 189.654 93.4373 188.255 91.8281 187.187ZM67.8422 173.091C68.2175 172.748 68.5801 172.417 68.9808 172.055H88.1198V183.828H68.4592C67.3906 180.304 68.1094 176.679 67.8422 173.091ZM87.9863 203.33H68.5674C67.8041 202.045 67.855 200.62 67.8868 199.202C67.9058 198.356 67.8868 197.516 67.8931 196.67C67.9059 194.686 67.7341 192.688 68.4656 190.698H87.9926C88.2725 192.313 88.2788 201.568 87.9863 203.33Z" fill="white"></path> <path d="M123.735 177.456C121.986 179.829 119.619 181.629 117.641 183.881H110.626V186.011C110.626 193.536 110.626 201.073 110.619 208.604C110.619 209.278 110.816 210.029 110.009 210.481H103.489V181.921C105.022 180.401 106.618 178.811 108.259 177.183H123.684C123.709 177.329 123.76 177.418 123.735 177.456Z" fill="white"></path> <path d="M148.491 177.099H130.853C128.398 179.548 126.209 181.742 124.091 183.854H146.175C147.002 185.947 146.398 188.071 146.595 190.227H128.588C126.928 191.887 125.332 193.484 123.742 195.074V205.499C125.446 207.204 127.087 208.845 128.741 210.498H148.23C150.024 208.705 151.658 207.07 153.318 205.41V181.92C151.69 180.286 150.094 178.695 148.491 177.099ZM146.544 203.68H130.98C130.846 202.662 130.948 201.555 130.935 200.455C130.916 199.342 130.929 198.223 130.929 197.046H146.544V203.68Z" fill="white"></path> <path d="M195.024 115.682C194.159 114.372 193.466 112.947 192.709 111.567C192.461 111.109 192.346 110.511 191.984 110.193C191.131 109.455 190.654 108.456 190.26 107.509C189.624 105.988 188.371 104.799 187.97 103.171C185.731 100.06 184.154 96.562 182.125 93.3308C181.285 91.9951 180.713 90.5003 179.867 89.1964C177.66 85.8317 175.853 82.2443 173.818 78.7905C172.959 77.3339 172.183 75.8646 170.93 74.7006H122.278C121.426 75.4575 120.93 76.4879 120.325 77.4484C119.193 79.2357 118.271 81.1312 117.113 82.8994C116.477 83.879 115.777 84.8712 115.319 85.9525C114.989 86.7412 114.747 87.6953 114.175 88.1914C113.373 88.8784 113.208 89.8007 112.75 90.6021C111.707 92.434 110.492 94.1704 109.48 96.015C108.666 97.5034 108.043 99.1317 107.019 100.48C105.919 101.918 105.429 103.66 104.335 105.098C103.355 106.389 102.776 107.973 101.956 109.385C100.696 111.548 99.3098 113.64 98.114 115.835C97.6879 116.611 97.0073 117.355 97.0836 118.239C97.9741 119.689 98.8392 121.018 99.6151 122.405C99.9713 123.041 100.442 123.664 100.671 124.288C100.964 125.096 101.345 125.719 101.924 126.317C102.229 126.635 102.388 127.099 102.586 127.513C102.929 128.219 103.126 129.033 103.603 129.618C105.034 131.38 106.02 133.441 107.07 135.393C108.024 137.174 109.118 138.892 110.072 140.685C111.02 142.473 112.139 144.203 113.125 145.984C114.117 147.758 115.409 149.368 116.127 151.295C116.286 151.721 116.471 152.16 116.738 152.516C118.144 154.367 119.231 156.403 120.357 158.419C120.879 159.36 121.413 160.302 122.259 161.014H171.464C172.38 159.424 173.239 157.948 174.072 156.46C174.333 156.008 174.498 155.506 174.759 155.054C176.197 152.612 177.761 150.245 179.053 147.733C180.07 145.736 181.419 143.948 182.436 141.951C183.06 140.73 183.594 139.445 184.351 138.307C186.456 135.114 188.256 131.749 190.184 128.454C190.616 127.716 190.813 126.819 191.38 126.209C192.041 125.496 192.359 124.625 192.874 123.862C193.663 122.71 194.026 121.343 195.03 120.281C195.539 119.74 196.016 118.881 196.074 117.991C196.15 117.037 195.514 116.42 195.024 115.682ZM173.519 121.489C173.01 122.469 172.444 123.442 171.916 124.421C171.732 124.759 171.674 125.216 171.35 125.452C170.307 126.209 170.161 127.513 169.455 128.479C167.858 130.668 166.605 133.085 165.307 135.438C164.404 137.085 163.247 138.618 162.636 140.45C162.35 141.302 161.669 142.021 161.167 142.816H132.436C131.641 142.161 131.425 141.029 130.547 140.552C130.439 140.126 130.598 139.801 130.356 139.458C129.446 138.16 128.626 136.825 127.913 135.4C127.01 133.574 125.91 131.844 124.784 130.146C124.377 129.535 124.078 128.887 123.715 128.263C122.825 126.73 122.055 125.102 120.936 123.696C120.694 123.397 120.535 122.997 120.395 122.653C119.721 120.999 118.799 119.486 117.749 117.876C122.545 109.582 127.373 101.218 132.175 92.9174H160.791C161.892 93.7951 162.337 95.2326 163.107 96.4602C164.64 98.909 165.956 101.485 167.413 103.972C168.539 105.899 169.505 107.954 170.784 109.76C171.942 111.395 172.686 113.233 173.831 114.861C174.498 115.816 174.925 116.935 175.446 117.953C175.109 119.365 174.117 120.332 173.519 121.489Z" fill="white"></path> <path d="M197.201 179.504C196.133 181.165 195.166 182.876 194.237 184.618C193.251 186.476 192.062 188.225 190.981 190.031C190.275 191.214 189.549 192.391 188.913 193.612C187.819 195.705 186.28 197.55 185.46 199.788C183.672 201.474 183.055 203.885 181.732 205.856C180.746 207.326 179.919 208.903 178.991 210.481H174.71C173.508 209.527 172.923 207.981 172.16 206.62C170.798 204.215 169.361 201.862 167.892 199.528C167.58 199.032 167.179 198.516 166.938 198.007C165.621 195.279 164.05 192.709 162.434 190.152C161.773 189.103 161.143 187.99 160.628 186.883C159.954 185.452 158.491 184.459 158.383 182.748C157.645 182.049 156.907 181.343 156.741 180.255C155.616 179.619 156.131 178.029 154.891 177.634C155.094 177.31 155.12 177.246 155.164 177.196C155.209 177.151 155.272 177.094 155.329 177.094C157.861 177.087 160.392 177.087 162.873 177.087C163.636 177.685 163.789 178.595 164.247 179.326C165.366 181.107 166.55 182.85 167.593 184.688C169.215 187.544 170.811 190.419 172.567 193.212C173.947 195.406 175.276 197.651 176.593 200.234C178.228 197.543 179.773 195.069 181.255 192.55C182.788 189.955 184.156 187.233 185.822 184.746C187.47 182.265 188.538 179.454 190.459 177.151H198.2C198.276 178.162 197.621 178.856 197.201 179.504Z" fill="white"></path> <path d="M232.471 193.644C230.989 190.362 228.801 187.455 227.345 184.154C226.671 183.34 226.085 182.487 225.57 181.508C224.807 180.064 224.19 178.506 223.051 177.163H203.785C202.081 179.759 200.63 182.43 199.11 185.044C197.558 187.716 196.108 190.438 194.391 193.141C194.403 193.618 194.511 194.159 194.753 194.763C195.205 195.889 196.051 196.741 196.528 197.835C197.717 200.558 199.479 202.962 200.993 205.5C201.972 207.135 202.895 208.801 203.862 210.487H223.001C223.198 210.175 223.465 209.99 223.611 209.641C224.037 208.617 224.489 207.573 225.131 206.683C226.791 204.368 227.841 201.709 229.476 199.375C230.481 197.937 231.187 196.29 232.045 194.744C232.249 194.394 232.618 194.121 232.471 193.644ZM218.879 203.312H207.748C205.948 200.176 204.141 197.008 202.322 193.828C203.162 192.079 204.059 190.495 205.108 188.969C206.1 187.518 206.845 185.903 207.716 184.313H218.822C221.143 187.111 222.504 190.648 224.629 193.822C222.53 196.983 220.984 200.348 218.879 203.312Z" fill="white"></path> <path d="M195.024 115.682C194.159 114.372 193.466 112.947 192.709 111.567C192.461 111.109 192.346 110.511 191.984 110.193C191.131 109.455 190.654 108.456 190.26 107.509C189.624 105.988 188.371 104.799 187.97 103.171C185.731 100.06 184.154 96.562 182.125 93.3308C181.285 91.9951 180.713 90.5003 179.867 89.1964C177.66 85.8317 175.853 82.2443 173.818 78.7905C172.959 77.3339 172.183 75.8646 170.93 74.7006H122.278C121.426 75.4575 120.93 76.4879 120.325 77.4484C119.193 79.2357 118.271 81.1312 117.113 82.8994C116.477 83.879 115.777 84.8712 115.319 85.9525C114.989 86.7412 114.747 87.6953 114.175 88.1914C113.373 88.8784 113.208 89.8007 112.75 90.6021C111.707 92.434 110.492 94.1704 109.48 96.015C108.666 97.5034 108.043 99.1317 107.019 100.48C105.919 101.918 105.429 103.66 104.335 105.098C103.355 106.389 102.776 107.973 101.956 109.385C100.696 111.548 99.3098 113.64 98.114 115.835C97.6879 116.611 97.0073 117.355 97.0836 118.239C97.9741 119.689 98.8392 121.018 99.6151 122.405C99.9713 123.041 100.442 123.664 100.671 124.288C100.964 125.096 101.345 125.719 101.924 126.317C102.229 126.635 102.388 127.099 102.586 127.513C102.929 128.219 103.126 129.033 103.603 129.618C105.034 131.38 106.02 133.441 107.07 135.393C108.024 137.174 109.118 138.892 110.072 140.685C111.02 142.473 112.139 144.203 113.125 145.984C114.117 147.758 115.409 149.368 116.127 151.295C116.286 151.721 116.471 152.16 116.738 152.516C118.144 154.367 119.231 156.403 120.357 158.419C120.879 159.36 121.413 160.302 122.259 161.014H171.464C172.38 159.424 173.239 157.948 174.072 156.46C174.333 156.008 174.498 155.506 174.759 155.054C176.197 152.612 177.761 150.245 179.053 147.733C180.07 145.736 181.419 143.948 182.436 141.951C183.06 140.73 183.594 139.445 184.351 138.307C186.456 135.114 188.256 131.749 190.184 128.454C190.616 127.716 190.813 126.819 191.38 126.209C192.041 125.496 192.359 124.625 192.874 123.862C193.663 122.71 194.026 121.343 195.03 120.281C195.539 119.74 196.016 118.881 196.074 117.991C196.15 117.037 195.514 116.42 195.024 115.682ZM173.519 121.489C173.01 122.469 172.444 123.442 171.916 124.421C171.732 124.759 171.674 125.216 171.35 125.452C170.307 126.209 170.161 127.513 169.455 128.479C167.858 130.668 166.605 133.085 165.307 135.438C164.404 137.085 163.247 138.618 162.636 140.45C162.35 141.302 161.669 142.021 161.167 142.816H132.436C131.641 142.161 131.425 141.029 130.547 140.552C130.439 140.126 130.598 139.801 130.356 139.458C129.446 138.16 128.626 136.825 127.913 135.4C127.01 133.574 125.91 131.844 124.784 130.146C124.377 129.535 124.078 128.887 123.715 128.263C122.825 126.73 122.055 125.102 120.936 123.696C120.694 123.397 120.535 122.997 120.395 122.653C119.721 120.999 118.799 119.486 117.749 117.876C122.545 109.582 127.373 101.218 132.175 92.9174H160.791C161.892 93.7951 162.337 95.2326 163.107 96.4602C164.64 98.909 165.956 101.485 167.413 103.972C168.539 105.899 169.505 107.954 170.784 109.76C171.942 111.395 172.686 113.233 173.831 114.861C174.498 115.816 174.925 116.935 175.446 117.953C175.109 119.365 174.117 120.332 173.519 121.489Z" fill="white"></path> <path d="M91.8281 187.187C93.1956 185.895 94.8048 185.03 95.7716 183.593V171.387C93.8507 169.275 91.6754 167.513 89.9262 165.249H60.7375C60.4258 178.352 60.5594 208.666 60.9346 210.524H89.6782C91.7199 208.482 93.7617 206.434 95.8098 204.386V190.825C94.5377 189.654 93.4373 188.255 91.8281 187.187ZM67.8422 173.091C68.2175 172.748 68.5801 172.417 68.9808 172.055H88.1198V183.828H68.4592C67.3906 180.304 68.1094 176.679 67.8422 173.091ZM87.9863 203.33H68.5674C67.8041 202.045 67.855 200.62 67.8868 199.202C67.9058 198.356 67.8868 197.516 67.8931 196.67C67.9059 194.686 67.7341 192.688 68.4656 190.698H87.9926C88.2725 192.313 88.2788 201.568 87.9863 203.33Z" fill="white"></path> <path d="M148.491 177.099H130.853C128.398 179.548 126.209 181.742 124.091 183.854H146.175C147.002 185.947 146.398 188.071 146.595 190.227H128.588C126.928 191.887 125.332 193.484 123.742 195.074V205.499C125.446 207.204 127.087 208.845 128.741 210.498H148.23C150.024 208.705 151.658 207.07 153.318 205.41V181.92C151.69 180.286 150.094 178.695 148.491 177.099ZM146.544 203.68H130.98C130.846 202.662 130.948 201.555 130.935 200.455C130.916 199.342 130.929 198.223 130.929 197.046H146.544V203.68Z" fill="white"></path> <path d="M232.471 193.644C230.989 190.362 228.801 187.455 227.345 184.154C226.671 183.34 226.085 182.487 225.57 181.508C224.807 180.064 224.19 178.506 223.051 177.163H203.785C202.081 179.759 200.63 182.43 199.11 185.044C197.558 187.716 196.108 190.438 194.391 193.141C194.403 193.618 194.511 194.159 194.753 194.763C195.205 195.889 196.051 196.741 196.528 197.835C197.717 200.558 199.479 202.962 200.993 205.5C201.972 207.135 202.895 208.801 203.862 210.487H223.001C223.198 210.175 223.465 209.99 223.611 209.641C224.037 208.617 224.489 207.573 225.131 206.683C226.791 204.368 227.841 201.709 229.476 199.375C230.481 197.937 231.187 196.29 232.045 194.744C232.249 194.394 232.618 194.121 232.471 193.644ZM218.879 203.312H207.748C205.948 200.176 204.141 197.008 202.322 193.828C203.162 192.079 204.059 190.495 205.108 188.969C206.1 187.518 206.845 185.903 207.716 184.313H218.822C221.143 187.111 222.504 190.648 224.629 193.822C222.53 196.983 220.984 200.348 218.879 203.312Z" fill="white"></path> <path d="M198.194 177.157C198.276 178.162 197.621 178.856 197.201 179.504C196.133 181.165 195.166 182.876 194.237 184.618C193.251 186.476 192.062 188.225 190.981 190.031C190.275 191.214 189.549 192.391 188.913 193.612C187.819 195.705 186.28 197.55 185.46 199.788C183.672 201.474 183.055 203.885 181.732 205.856C180.746 207.326 179.919 208.903 178.991 210.481H174.71C173.508 209.527 172.923 207.981 172.16 206.62C170.798 204.215 169.361 201.862 167.892 199.528C167.58 199.032 167.179 198.516 166.938 198.007C165.621 195.279 164.05 192.709 162.434 190.152C161.773 189.103 161.143 187.99 160.628 186.883C159.954 185.452 158.491 184.459 158.383 182.748C157.645 182.049 156.907 181.343 156.741 180.255C155.616 179.619 156.131 178.029 154.891 177.634C155.094 177.31 155.12 177.246 155.164 177.196C155.209 177.151 155.272 177.094 155.329 177.094C157.861 177.087 160.392 177.087 162.873 177.087C163.636 177.685 163.789 178.595 164.247 179.326C165.366 181.107 166.55 182.85 167.593 184.688C169.215 187.544 170.811 190.419 172.567 193.212C173.947 195.406 175.276 197.651 176.593 200.234C178.228 197.543 179.773 195.069 181.255 192.55C182.788 189.955 184.156 187.233 185.822 184.746C187.47 182.265 188.538 179.454 190.459 177.151H198.194V177.157Z" fill="white"></path> <path d="M123.735 177.456C121.986 179.829 119.619 181.629 117.641 183.881H110.626V186.011C110.626 193.536 110.626 201.073 110.619 208.604C110.619 209.278 110.816 210.029 110.009 210.481H103.489V181.921C105.022 180.401 106.618 178.811 108.259 177.183H123.684C123.709 177.329 123.76 177.418 123.735 177.456Z" fill="white"></path> <path d="M191.65 151.434C189.125 151.434 187.064 149.379 187.064 146.854C187.064 144.329 189.119 142.268 191.65 142.268C194.182 142.268 196.236 144.323 196.236 146.854C196.23 149.379 194.175 151.434 191.65 151.434ZM191.65 143.114C189.589 143.114 187.917 144.793 187.917 146.854C187.917 148.915 189.596 150.588 191.65 150.588C193.705 150.588 195.384 148.909 195.384 146.854C195.384 144.787 193.711 143.114 191.65 143.114Z" fill="white"></path> <path d="M190.288 144.221C190.637 144.151 191.127 144.112 191.604 144.112C192.336 144.112 192.806 144.246 193.137 144.545C193.404 144.78 193.557 145.143 193.557 145.556C193.557 146.256 193.118 146.72 192.558 146.911V146.937C192.965 147.077 193.213 147.458 193.341 148.005C193.512 148.743 193.64 149.258 193.748 149.462H193.042C192.953 149.309 192.838 148.857 192.685 148.196C192.526 147.465 192.247 147.185 191.623 147.166H190.974V149.468H190.288V144.221ZM190.974 146.638H191.674C192.406 146.638 192.87 146.237 192.87 145.626C192.87 144.939 192.374 144.64 191.649 144.634C191.318 144.634 191.083 144.666 190.968 144.698V146.638H190.974Z" fill="white"></path> </svg> 