<?xml version="1.0" encoding="UTF-8"?> <svg xmlns="http://www.w3.org/2000/svg" width="363" height="236" viewBox="0 0 363 236" fill="none"> <rect y="156.2" width="184" height="52" rx="24.4388" transform="rotate(-5 0 156.2)" fill="#14234B"></rect> <path d="M35.176 167.578L37.6027 167.366L39.311 186.891L37.3584 187.062L35.9089 170.493L30.0755 182.527L29.7966 182.552L21.9621 171.713L23.4117 188.282L21.4592 188.453L19.7509 168.927L22.1777 168.715L29.6286 179.025L35.176 167.578ZM55.0232 183.746C53.7133 185.266 52.0449 186.114 50.018 186.292C47.9539 186.472 46.1542 185.927 44.6189 184.656C43.082 183.366 42.2232 181.689 42.0427 179.625C41.8621 177.561 42.4174 175.77 43.7087 174.252C44.9983 172.715 46.6751 171.856 48.7393 171.675C50.7848 171.496 52.576 172.052 54.1129 173.341C55.6668 174.611 56.534 176.277 56.7146 178.342C56.8936 180.387 56.3298 182.188 55.0232 183.746ZM45.8176 183.258C46.9703 184.225 48.3184 184.641 49.8618 184.506C51.4053 184.371 52.6606 183.727 53.6278 182.575C54.5918 181.385 55.0071 180.028 54.8736 178.503C54.7386 176.959 54.0948 175.704 52.9421 174.737C51.7878 173.751 50.4389 173.325 48.8954 173.461C47.352 173.596 46.0975 174.249 45.1319 175.42C44.1647 176.573 43.7486 177.921 43.8836 179.464C44.017 180.989 44.6617 182.254 45.8176 183.258ZM66.6314 170.11C68.6211 169.936 70.3751 170.494 71.8935 171.786C73.4304 173.075 74.2883 174.743 74.4673 176.788C74.6462 178.834 74.0909 180.625 72.8013 182.162C71.5302 183.697 69.8999 184.552 67.9101 184.726C65.4369 184.943 63.4693 184.084 62.0072 182.151L62.2464 184.884L60.4054 185.045L58.6972 165.52L60.5381 165.359L61.2653 173.671C62.3695 171.513 64.1582 170.326 66.6314 170.11ZM63.5703 181.705C64.723 182.672 66.071 183.088 67.6145 182.953C69.1579 182.818 70.4132 182.174 71.3805 181.022C72.3444 179.832 72.7597 178.474 72.6263 176.95C72.4913 175.406 71.8474 174.151 70.6947 173.184C69.5404 172.198 68.1915 171.772 66.6481 171.907C65.1047 172.042 63.8501 172.696 62.8846 173.867C61.9173 175.02 61.5012 176.368 61.6363 177.911C61.7697 179.436 62.4144 180.7 63.5703 181.705ZM78.8018 165.054C78.8344 165.426 78.7318 165.753 78.4943 166.037C78.2567 166.32 77.952 166.478 77.5801 166.51C77.2082 166.543 76.8806 166.44 76.5975 166.203C76.3144 165.965 76.1566 165.66 76.1241 165.288C76.0915 164.916 76.194 164.589 76.4316 164.306C76.6691 164.023 76.9739 163.865 77.3458 163.832C77.7177 163.8 78.0452 163.902 78.3283 164.14C78.6115 164.377 78.7693 164.682 78.8018 165.054ZM79.9794 183.333L78.1384 183.494L76.9183 169.547L78.7592 169.386L79.9794 183.333ZM85.727 182.83L83.886 182.991L82.1046 162.629L83.9455 162.468L85.727 182.83ZM97.2278 167.77L97.4303 170.086C98.1377 168.319 99.5327 167.344 101.615 167.162L101.772 168.947C100.433 169.064 99.3976 169.548 98.6663 170.399C97.9334 171.231 97.6345 172.419 97.7695 173.963L98.4479 181.717L96.607 181.878L95.3868 167.931L97.2278 167.77ZM115.547 168.922L115.308 166.189L117.149 166.028L118.369 179.974L116.528 180.135L116.289 177.402C115.185 179.56 113.396 180.747 110.923 180.963C108.933 181.137 107.17 180.579 105.633 179.29C104.114 177.998 103.266 176.33 103.087 174.285C102.908 172.239 103.454 170.449 104.725 168.913C106.015 167.376 107.654 166.521 109.644 166.347C112.117 166.13 114.085 166.989 115.547 168.922ZM106.862 177.917C108.014 178.885 109.363 179.301 110.906 179.166C112.449 179.031 113.705 178.387 114.672 177.234C115.636 176.044 116.051 174.687 115.918 173.162C115.783 171.619 115.139 170.363 113.986 169.396C112.832 168.41 111.483 167.985 109.94 168.12C108.396 168.255 107.142 168.908 106.176 170.079C105.209 171.232 104.793 172.58 104.928 174.123C105.061 175.648 105.706 176.913 106.862 177.917ZM128.493 164.698C130.482 164.524 132.236 165.082 133.755 166.374C135.292 167.663 136.15 169.331 136.329 171.376C136.508 173.422 135.952 175.213 134.663 176.75C133.392 178.285 131.761 179.14 129.771 179.314C127.298 179.53 125.331 178.672 123.869 176.739L124.108 179.472L122.267 179.633L120.559 160.108L122.399 159.947L123.127 168.259C124.231 166.101 126.02 164.914 128.493 164.698ZM125.432 176.293C126.584 177.26 127.932 177.676 129.476 177.541C131.019 177.406 132.275 176.762 133.242 175.609C134.206 174.42 134.621 173.062 134.488 171.537C134.353 169.994 133.709 168.739 132.556 167.771C131.402 166.786 130.053 166.36 128.509 166.495C126.966 166.63 125.712 167.283 124.746 168.455C123.779 169.607 123.363 170.955 123.498 172.499C123.631 174.024 124.276 175.288 125.432 176.293ZM140.663 159.642C140.696 160.014 140.593 160.341 140.356 160.624C140.118 160.908 139.813 161.065 139.441 161.098C139.07 161.13 138.742 161.028 138.459 160.79C138.176 160.553 138.018 160.248 137.985 159.876C137.953 159.504 138.055 159.177 138.293 158.894C138.531 158.61 138.835 158.453 139.207 158.42C139.579 158.388 139.907 158.49 140.19 158.728C140.473 158.965 140.631 159.27 140.663 159.642ZM141.841 177.921L140 178.082L138.78 164.135L140.621 163.974L141.841 177.921ZM151.919 162.986L152.075 164.771L148.058 165.122L148.798 173.574C148.865 174.336 149.061 174.872 149.388 175.181C149.713 175.471 150.174 175.599 150.771 175.565C151.366 175.513 152.108 175.43 152.998 175.314L153.139 176.932C151.175 177.404 149.685 177.394 148.667 176.902C147.667 176.39 147.097 175.334 146.957 173.735L146.218 165.283L143.289 165.539L143.133 163.754L146.061 163.498L145.768 160.151L147.561 159.432L147.902 163.337L151.919 162.986ZM159.924 160.992C161.356 160.867 162.636 161.045 163.765 161.528C164.894 162.01 165.806 162.792 166.5 163.874C167.213 164.955 167.642 166.332 167.789 168.006C167.932 169.642 167.776 171.07 167.321 172.291C166.884 173.509 166.191 174.479 165.242 175.199C164.312 175.917 163.187 176.334 161.866 176.45C160.602 176.56 159.48 176.378 158.502 175.901C157.523 175.424 156.739 174.706 156.149 173.746C155.576 172.765 155.23 171.596 155.111 170.239L154.982 168.761L165.219 167.865C165.034 166.176 164.484 164.931 163.571 164.13C162.675 163.309 161.483 162.964 159.995 163.094C159.047 163.177 158.209 163.344 157.481 163.595C156.771 163.826 156.04 164.143 155.288 164.546L155.1 162.398C155.833 161.997 156.565 161.689 157.296 161.475C158.025 161.243 158.901 161.082 159.924 160.992ZM157.719 170.489C157.811 171.324 158.006 172.056 158.305 172.686C158.62 173.295 159.064 173.763 159.636 174.087C160.206 174.393 160.9 174.511 161.718 174.439C162.89 174.337 163.778 173.884 164.382 173.082C165.004 172.259 165.321 171.173 165.334 169.822L157.719 170.489Z" fill="white"></path> <rect x="229" y="33.1289" width="128" height="39" rx="19.5" transform="rotate(-15 229 33.1289)" fill="#14234B"></rect> <path d="M254.197 44.3498L259.875 34.3807L257.742 34.9522L252.358 44.3458L250.37 36.9275L248.747 37.3623L253.095 53.5898L254.718 53.155L252.612 45.2962L262.322 51.1176L264.455 50.5461L254.197 44.3498ZM272.741 38.3375C271.221 36.9309 269.438 36.4894 267.375 37.0422C265.729 37.4832 264.47 38.4417 263.605 39.9408C262.762 41.4336 262.568 43.0262 263.021 44.7185C263.475 46.4108 264.439 47.6928 265.915 48.5646C267.414 49.4301 268.984 49.6307 270.63 49.1897C272.693 48.6368 274.016 47.3629 274.629 45.3849L275.238 47.6567L276.768 47.2468L273.662 35.6557L272.132 36.0656L272.741 38.3375ZM266.749 47.2232C265.625 46.5551 264.893 45.5836 264.551 44.3086C264.21 43.0335 264.358 41.826 265.003 40.709C265.642 39.5688 266.613 38.8364 267.888 38.4948C269.163 38.1532 270.371 38.3017 271.494 38.9697C272.611 39.6146 273.344 40.5862 273.685 41.8612C274.027 43.1362 273.878 44.3438 273.24 45.4839C272.595 46.6009 271.623 47.3333 270.348 47.675C269.073 48.0166 267.866 47.8681 266.749 47.2232ZM283.04 32.8447C280.977 33.3976 279.654 34.6715 279.041 36.6495L277.189 29.7412L275.659 30.1512L280.008 46.3787L281.538 45.9688L280.929 43.6969C282.449 45.1035 284.232 45.545 286.295 44.9922C287.941 44.5512 289.2 43.5927 290.042 42.0998C290.908 40.6007 291.102 39.0082 290.649 37.3159C290.195 35.6236 289.23 34.3415 287.731 33.476C286.255 32.6043 284.686 32.4037 283.04 32.8447ZM282.182 43.0878C281.059 42.4198 280.326 41.4482 279.985 40.1732C279.643 38.8982 279.792 37.6906 280.436 36.5736C281.075 35.4335 282.047 34.7011 283.322 34.3594C284.597 34.0178 285.804 34.1663 286.928 34.8344C288.044 35.4793 288.777 36.4508 289.119 37.7258C289.46 39.0008 289.312 40.2084 288.673 41.3486C288.028 42.4655 287.057 43.198 285.782 43.5396C284.507 43.8812 283.299 43.7327 282.182 43.0878ZM296.92 29.1255C295.135 29.6038 293.853 30.5685 293.028 32.032C292.203 33.4955 292.031 35.0819 292.497 36.8205C292.969 38.5824 293.94 39.8876 295.38 40.7191C296.821 41.5507 298.46 41.7327 300.291 41.242C302.54 40.6394 304.098 39.1287 304.677 37.2094L303.121 36.7815C302.789 38.1377 301.679 39.28 299.917 39.7521C297.436 40.4167 295.207 39.4238 294.279 37.1631L304.456 34.4362C304.398 34.1286 304.353 33.8674 304.309 33.7052C303.868 32.0592 302.95 30.7648 301.561 29.845C300.188 28.8959 298.636 28.6659 296.92 29.1255ZM297.318 30.6092C298.361 30.3297 299.381 30.4289 300.35 30.89C301.318 31.3511 302.036 32.1774 302.528 33.3625L293.881 35.6795C293.567 33.3037 294.907 31.2552 297.318 30.6092ZM309.814 38.3923L305.279 21.4692L303.749 21.8792L308.284 38.8022L309.814 38.3923ZM313.349 20.0524L313.759 21.5824L318.743 20.2469L322.681 34.9444L324.304 34.5096L320.366 19.8121L325.35 18.4766L324.94 16.9466L313.349 20.0524ZM337.634 30.9377L339.267 13.1075L337.505 13.5796L336.222 29.0054L327.398 16.2879L325.636 16.76L335.965 31.3849L337.634 30.9377Z" fill="white"></path> <rect x="236.934" y="110.366" width="117" height="39" rx="19.5" transform="rotate(-5.58682 236.934 110.366)" fill="#14234B"></rect> <path d="M257.332 115.54C257.784 114.99 257.7 114.13 257.15 113.677C256.599 113.225 255.739 113.309 255.287 113.86C254.834 114.41 254.918 115.27 255.469 115.723C256.019 116.175 256.879 116.091 257.332 115.54ZM257.401 134.488L259.073 134.324L257.437 117.604L255.765 117.768L257.401 134.488ZM267.06 121.196C265.269 121.371 264.001 122.219 263.257 123.739L263.075 121.875L261.499 122.03L262.667 133.973L264.243 133.818L263.631 127.56C263.335 124.527 264.773 122.963 267.066 122.739C269.144 122.536 270.436 123.663 270.644 125.789L271.361 133.122L272.938 132.968L272.221 125.635C271.929 122.649 269.95 120.914 267.06 121.196ZM281.148 120.108L277.708 120.444L277.381 117.1L275.851 117.732L276.132 120.598L273.624 120.844L273.773 122.372L276.281 122.127L276.989 129.364C277.26 132.135 279.021 132.879 282.316 132.051L282.18 130.665C279.897 130.985 278.767 131.264 278.566 129.21L277.858 121.973L281.297 121.636L281.148 120.108ZM288.542 119.095C286.702 119.275 285.28 120.017 284.226 121.326C283.173 122.634 282.744 124.171 282.92 125.963C283.097 127.778 283.842 129.225 285.126 130.281C286.411 131.336 287.998 131.784 289.885 131.6C292.202 131.373 293.987 130.137 294.872 128.339L293.407 127.662C292.857 128.946 291.575 129.891 289.76 130.068C287.204 130.318 285.167 128.974 284.621 126.592L295.107 125.567C295.1 125.254 295.099 124.989 295.082 124.821C294.916 123.125 294.222 121.698 293.002 120.564C291.803 119.403 290.309 118.922 288.542 119.095ZM288.691 120.624C289.766 120.519 290.757 120.783 291.636 121.397C292.516 122.01 293.09 122.942 293.381 124.192L284.471 125.064C284.551 122.668 286.207 120.867 288.691 120.624ZM298.578 118.403L297.001 118.557L298.169 130.5L299.746 130.346L299.096 123.705C298.828 120.958 300.309 119.584 302.482 119.371L302.333 117.842C300.541 118.018 299.369 118.856 298.772 120.385L298.578 118.403ZM310.073 116.989C308.282 117.164 307.014 118.011 306.271 119.531L306.089 117.668L304.512 117.822L305.68 129.765L307.257 129.611L306.645 123.353C306.348 120.319 307.787 118.756 310.08 118.531C312.158 118.328 313.45 119.456 313.658 121.582L314.375 128.915L315.951 128.76L315.234 121.427C314.942 118.442 312.964 116.706 310.073 116.989ZM323.321 115.693C321.482 115.873 320.059 116.615 319.006 117.924C317.952 119.232 317.524 120.769 317.699 122.561C317.876 124.376 318.621 125.823 319.906 126.879C321.191 127.934 322.778 128.382 324.665 128.197C326.982 127.971 328.766 126.735 329.651 124.937L328.186 124.26C327.637 125.544 326.354 126.489 324.539 126.666C321.983 126.916 319.947 125.572 319.4 123.19L329.886 122.164C329.88 121.852 329.878 121.587 329.862 121.419C329.696 119.723 329.001 118.296 327.781 117.162C326.582 116.001 325.089 115.52 323.321 115.693ZM323.471 117.222C324.545 117.116 325.536 117.381 326.416 117.995C327.296 118.608 327.869 119.54 328.16 120.79L319.251 121.661C319.33 119.266 320.986 117.465 323.471 117.222ZM337.76 114.57L334.321 114.906L333.994 111.562L332.464 112.194L332.744 115.06L330.236 115.306L330.386 116.835L332.894 116.589L333.602 123.827C333.873 126.597 335.634 127.342 338.929 126.513L338.793 125.127C336.509 125.447 335.379 125.727 335.178 123.672L334.47 116.435L337.91 116.099L337.76 114.57Z" fill="white"></path> <rect x="234.204" y="108.121" width="120" height="39" rx="19.5" transform="rotate(-5.58682 234.204 108.121)" stroke="#00DBC8" stroke-width="3"></rect> <rect x="257.188" y="174.795" width="90" height="37" rx="18.5" transform="rotate(15 257.188 174.795)" fill="white"></rect> <path d="M271.873 187.219L267.525 203.447L273.784 205.124C275.987 205.714 278.029 205.417 279.883 204.249C281.766 203.063 283 201.332 283.608 199.06C284.217 196.788 284.014 194.672 282.97 192.727C281.955 190.765 280.335 189.487 278.132 188.896L271.873 187.219ZM269.558 202.352L273.086 189.184L277.722 190.426C279.507 190.905 280.777 191.916 281.571 193.495C282.366 195.075 282.529 196.783 282.032 198.638C281.535 200.492 280.539 201.89 279.062 202.861C277.584 203.831 275.979 204.072 274.194 203.594L269.558 202.352ZM289.383 193.899C289.941 193.576 290.127 192.881 289.805 192.322C289.482 191.764 288.787 191.577 288.229 191.9C287.67 192.222 287.484 192.918 287.806 193.476C288.129 194.035 288.824 194.221 289.383 193.899ZM285.508 208.265L288.614 196.674L287.084 196.264L283.978 207.855L285.508 208.265ZM301.22 202.487C300.607 200.509 299.284 199.235 297.221 198.682C295.575 198.241 294.005 198.442 292.506 199.307C291.03 200.179 290.066 201.461 289.612 203.153C289.159 204.846 289.353 206.438 290.196 207.931C291.061 209.43 292.32 210.389 293.966 210.83C296.029 211.383 297.812 210.941 299.332 209.535L298.847 211.343C298.208 213.731 296.181 214.803 293.515 214.088C291.452 213.535 290.247 212.467 289.931 210.867L288.381 211.271C288.829 213.404 290.405 214.845 293.118 215.572C294.717 216 296.215 215.88 297.606 215.234C298.997 214.588 299.93 213.422 300.378 211.753L303.359 200.625L301.829 200.215L301.22 202.487ZM291.588 207.186C290.949 206.046 290.801 204.838 291.142 203.563C291.484 202.288 292.216 201.317 293.333 200.672C294.457 200.004 295.664 199.855 296.939 200.197C298.214 200.539 299.186 201.271 299.824 202.411C300.469 203.528 300.618 204.736 300.276 206.011C299.935 207.286 299.202 208.257 298.079 208.925C296.962 209.57 295.754 209.719 294.479 209.377C293.204 209.036 292.233 208.303 291.588 207.186ZM308.472 214.717C310.257 215.195 311.85 215.001 313.296 214.146C314.743 213.291 315.684 212.003 316.15 210.264C316.622 208.502 316.434 206.887 315.602 205.446C314.771 204.006 313.442 203.029 311.611 202.538C309.849 202.066 308.198 202.294 306.852 203.052L307.626 204.427C308.556 203.832 309.799 203.643 311.19 204.016C313.671 204.68 315.105 206.655 314.779 209.077L304.602 206.35C304.498 206.645 304.406 206.894 304.363 207.056C303.922 208.702 304.07 210.282 304.813 211.773C305.527 213.282 306.757 214.257 308.472 214.717ZM308.87 213.233C307.826 212.954 306.992 212.357 306.384 211.474C305.776 210.59 305.567 209.516 305.734 208.244L314.381 210.56C313.465 212.775 311.28 213.879 308.87 213.233ZM321.667 205.531L320.137 205.121L317.031 216.712L318.561 217.122L320.288 210.677C321.002 208.011 322.872 207.245 324.982 207.81L325.379 206.327C323.641 205.861 322.249 206.233 321.151 207.455L321.667 205.531Z" fill="#14234B"></path> <rect x="257.188" y="174.795" width="90" height="37" rx="18.5" transform="rotate(15 257.188 174.795)" stroke="#14234B" stroke-width="2"></rect> <rect x="23.8984" y="32.5645" width="168" height="56" rx="28" transform="rotate(15 23.8984 32.5645)" fill="#14234B"></rect> <path d="M40.217 63.7719L51.0382 56.8156L47.9549 55.9894L37.7675 62.4198L40.0575 53.8733L37.5423 53.1994L32.4694 72.1315L34.9847 72.8055L37.4197 63.718L43.1526 74.994L46.2358 75.8202L40.217 63.7719ZM58.8867 77.3838C60.6356 76.374 61.7881 74.8856 62.3244 72.8842C62.8607 70.8828 62.6068 69.0175 61.597 67.2686C60.5873 65.5197 59.0646 64.3869 57.0902 63.8579C55.1159 63.3289 53.2308 63.5485 51.4819 64.5582C49.7329 65.568 48.6075 67.0637 48.0712 69.0651C47.5349 71.0665 47.7617 72.9245 48.7715 74.6734C49.7812 76.4223 51.304 77.5551 53.2783 78.0841C55.2527 78.6131 57.1377 78.3935 58.8867 77.3838ZM53.8943 75.7852C52.5691 75.4301 51.5563 74.6659 50.8832 73.5C50.21 72.334 50.0546 71.0749 50.4242 69.6955C50.7938 68.3162 51.5579 67.3035 52.7239 66.6303C53.8898 65.9571 55.149 65.8017 56.4742 66.1568C57.8265 66.5192 58.8392 67.2833 59.5124 68.4493C60.1856 69.6152 60.341 70.8744 59.9714 72.2537C59.6018 73.633 58.8376 74.6458 57.6717 75.3189C56.5057 75.9921 55.2466 76.1475 53.8943 75.7852ZM81.609 70.4277C79.7158 69.9204 78.1065 70.3009 76.7468 71.5889C76.3215 69.8226 75.1991 68.7102 73.3871 68.2247C71.6291 67.7536 70.0811 68.1215 68.7775 69.3085L69.263 67.4965L66.91 66.866L63.2865 80.3889L65.6395 81.0194L67.6542 73.5007C68.3861 70.769 70.2433 69.7883 72.2176 70.3173C73.9756 70.7883 74.7584 72.3025 74.2003 74.3851L71.9683 82.7152L74.3213 83.3457L76.3359 75.8269C77.0824 73.0412 78.7357 72.0638 80.7641 72.6073C82.5762 73.0929 83.4131 74.6215 82.855 76.7041L80.623 85.0342L82.976 85.6647L85.2298 77.2534C86.1284 73.8997 84.6382 71.2394 81.609 70.4277ZM104.561 76.5777C102.668 76.0704 101.059 76.4509 99.6989 77.7388C99.2735 75.9726 98.1512 74.8602 96.3391 74.3746C94.5811 73.9036 93.0332 74.2715 91.7295 75.4585L92.2151 73.6464L89.8621 73.016L86.2386 86.5389L88.5916 87.1694L90.6062 79.6506C91.3382 76.919 93.1953 75.9382 95.1697 76.4673C96.9276 76.9383 97.7104 78.4525 97.1524 80.535L94.9203 88.8652L97.2733 89.4957L99.288 81.9769C100.034 79.1912 101.688 78.2138 103.716 78.7573C105.528 79.2428 106.365 80.7715 105.807 82.8541L103.575 91.1842L105.928 91.8147L108.182 83.4034C109.08 80.0497 107.59 77.3894 104.561 76.5777ZM120.225 88.8333C119.413 91.8624 117.46 92.8756 115.107 92.2451C113.025 91.6871 112.094 90.0753 112.681 87.8846L114.87 79.7167L112.517 79.0862L110.292 87.3893C109.371 90.8242 110.881 93.5188 114.046 94.3667C116.02 94.8957 117.684 94.5298 119.043 93.2418L118.522 95.1891L120.874 95.8196L124.498 82.2966L122.145 81.6661L120.225 88.8333ZM134.909 84.7094C132.935 84.1804 131.271 84.5463 129.911 85.8343L130.433 83.887L128.08 83.2565L124.457 96.7795L126.81 97.4099L128.73 90.2428C129.542 87.2136 131.495 86.2005 133.848 86.831C135.93 87.389 136.861 89.0008 136.274 91.1915L134.085 99.3594L136.438 99.9898L138.663 91.6868C139.583 88.2519 138.073 85.5573 134.909 84.7094ZM153.92 92.6732C153.236 90.5766 151.771 89.2275 149.526 88.626C147.633 88.1187 145.822 88.3871 144.127 89.4113C142.432 90.4356 141.306 91.9313 140.777 93.9056C140.248 95.88 140.468 97.765 141.424 99.4995C142.379 101.234 143.821 102.345 145.714 102.852C147.959 103.454 149.902 103.018 151.543 101.544L150.92 103.87L153.273 104.501L156.896 90.9778L154.543 90.3473L153.92 92.6732ZM146.62 100.66C145.268 100.298 144.255 99.5335 143.582 98.3676C142.916 97.1746 142.761 95.9154 143.13 94.5361C143.5 93.1568 144.264 92.144 145.43 91.4709C146.603 90.7706 147.862 90.6152 149.215 90.9776C150.594 91.3472 151.607 92.1113 152.273 93.3043C152.946 94.4703 153.101 95.7294 152.732 97.1088C152.362 98.4881 151.598 99.5008 150.425 100.201C149.259 100.874 148 101.03 146.62 100.66ZM159.191 106.086L164.481 86.3429L162.128 85.7124L156.838 105.456L159.191 106.086Z" fill="white"></path> <rect x="30.4532" y="29.8371" width="169" height="53" rx="26.5" transform="rotate(15 30.4532 29.8371)" stroke="#00DBC8" stroke-width="3"></rect> </svg> 