<?xml version="1.0" encoding="UTF-8"?> <svg xmlns="http://www.w3.org/2000/svg" width="329" height="175" viewBox="0 0 329 175" fill="none"> <rect y="132.508" width="173.585" height="51.2926" rx="24.4388" transform="rotate(-34.1754 0 132.508)" fill="#14234B"></rect> <path d="M32.3748 127.548L33.721 129.531L26.7363 134.273L30.209 139.388L36.9008 134.844L38.247 136.827L31.5552 141.37L36.0988 148.062L34.0034 149.485L23.2947 133.713L32.3748 127.548ZM48.4128 126.073L47.0972 124.135L49.0574 122.805L56.7065 134.07L54.7463 135.401L53.4306 133.463C53.479 135.603 52.5643 137.311 50.6867 138.585C49.0945 139.666 47.3626 140.008 45.491 139.611C43.5941 139.209 42.0847 138.182 40.9629 136.53C39.8512 134.893 39.4585 133.119 39.7847 131.207C40.111 129.296 41.0627 127.805 42.6399 126.734C44.5175 125.459 46.4418 125.239 48.4128 126.073ZM49.6495 136.524C50.7911 135.749 51.4849 134.719 51.7308 133.433C51.9563 132.116 51.6866 130.895 50.9217 129.768C50.1466 128.627 49.116 127.933 47.8298 127.687C46.5334 127.426 45.3144 127.683 44.1728 128.458C43.0462 129.223 42.3651 130.256 42.1293 131.557C41.8834 132.844 42.148 134.058 42.9231 135.199C43.688 136.326 44.7238 137.027 46.0304 137.303C47.3166 137.549 48.523 137.289 49.6495 136.524ZM60.9583 116.633L60.6823 128.639L66.6756 124.569L67.9454 126.439L59.2708 132.329L58.3835 131.022L58.637 119.033L53.1168 122.781L51.8471 120.91L60.071 115.327L60.9583 116.633ZM62.2321 110.864C61.8566 111.119 61.4545 111.205 61.0258 111.123C60.597 111.041 60.2603 110.82 60.0155 110.459C59.7707 110.099 59.6893 109.704 59.7713 109.276C59.8431 108.832 60.0667 108.483 60.4423 108.228C60.8028 107.983 61.2025 107.909 61.6414 108.006C62.0701 108.088 62.4069 108.309 62.6517 108.67C62.8964 109.03 62.9778 109.425 62.8959 109.853C62.8139 110.282 62.5926 110.619 62.2321 110.864ZM72.2422 123.522L70.282 124.853L62.6329 113.587L64.5931 112.256L72.2422 123.522ZM77.1929 120.161L75.2327 121.491L64.0651 105.044L66.0253 103.713L77.1929 120.161ZM84.7927 103.15L97.4875 106.381L94.9189 108.125L82.9743 105.175L88.1144 112.745L86.019 114.168L75.3103 98.3959L77.4058 96.9732L82.24 104.093L83.9849 92.5061L86.5535 90.7621L84.7927 103.15ZM106.683 98.0641C106.316 99.9808 105.299 101.505 103.632 102.637C101.964 103.769 100.172 104.152 98.2558 103.786C96.3391 103.419 94.8147 102.402 93.6827 100.735C92.5506 99.0675 92.1678 97.2755 92.5343 95.3588C92.9008 93.4422 93.9177 91.9178 95.585 90.7857C97.2523 89.6537 99.0443 89.2709 100.961 89.6373C102.903 90.0087 104.435 91.0205 105.557 92.6727C106.679 94.325 107.054 96.1222 106.683 98.0641ZM102.331 100.722C103.458 99.9571 104.144 98.9316 104.39 97.6454C104.636 96.3592 104.372 95.1453 103.596 94.0037C102.821 92.8621 101.791 92.1683 100.504 91.9224C99.2183 91.6765 98.0119 91.936 96.8853 92.7009C95.7738 93.4556 95.095 94.476 94.8491 95.7622C94.6032 97.0484 94.8678 98.2623 95.6429 99.4039C96.418 100.546 97.4486 101.239 98.7348 101.485C100.021 101.731 101.22 101.477 102.331 100.722ZM116.011 76.917C117.288 76.0501 118.59 75.7697 119.917 76.0757C121.259 76.3715 122.399 77.2104 123.337 78.5923L128.095 85.5995L126.135 86.9305L121.423 79.9908C120.841 79.1346 120.162 78.6192 119.385 78.4445C118.613 78.2445 117.844 78.4047 117.078 78.9248C116.207 79.5163 115.722 80.2733 115.624 81.1956C115.531 82.0928 115.867 83.1047 116.632 84.2312L120.885 90.4949L118.925 91.8259L114.213 84.8862C113.631 84.03 112.96 83.5095 112.198 83.3246C111.441 83.1145 110.694 83.2593 109.958 83.759C109.102 84.3403 108.607 85.115 108.475 86.083C108.347 87.0257 108.655 88.0454 109.399 89.1419L113.652 95.4056L111.692 96.7366L104.043 85.4709L106.003 84.14L107.028 85.6496C106.978 83.9278 107.689 82.5671 109.162 81.5676C110.679 80.5376 112.216 80.4263 113.774 81.234C113.688 79.4269 114.434 77.9879 116.011 76.917ZM129.184 67.9732C130.761 66.9024 132.498 66.5679 134.395 66.9698C136.291 67.3717 137.796 68.3913 138.907 70.0285C140.029 71.6808 140.427 73.4626 140.101 75.374C139.779 77.26 138.823 78.7436 137.23 79.8247C135.368 81.0893 133.444 81.3096 131.457 80.4854L132.773 82.4231L130.813 83.7541L120.104 67.9821L122.064 66.6512L126.44 73.0952C126.406 70.9452 127.321 69.2379 129.184 67.9732ZM135.698 78.1003C136.824 77.3354 137.51 76.3099 137.756 75.0237C137.982 73.7074 137.712 72.486 136.947 71.3595C136.172 70.2179 135.141 69.5241 133.855 69.2782C132.559 69.0172 131.347 69.2692 130.221 70.0341C129.079 70.8092 128.391 71.8474 128.155 73.1486C127.909 74.4348 128.173 75.6487 128.949 76.7903C129.713 77.9169 130.749 78.6181 132.056 78.8941C133.342 79.14 134.556 78.8755 135.698 78.1003ZM137.021 60.0841C136.646 60.3391 136.244 60.4256 135.815 60.3436C135.386 60.2616 135.049 60.0404 134.805 59.6799C134.56 59.3194 134.478 58.9248 134.56 58.496C134.632 58.0523 134.856 57.7029 135.231 57.4479C135.592 57.2032 135.991 57.1293 136.43 57.2263C136.859 57.3083 137.196 57.5295 137.441 57.89C137.685 58.2505 137.767 58.6451 137.685 59.0738C137.603 59.5026 137.382 59.8393 137.021 60.0841ZM147.031 72.7423L145.071 74.0732L137.422 62.8076L139.382 61.4766L147.031 72.7423Z" fill="white"></path> <rect x="156" y="107.469" width="78.7801" height="49.39" rx="23.085" transform="rotate(-3.98069 156 107.469)" fill="#14234B"></rect> <path d="M190.183 136.862L187.642 137.039L185.899 133.111L177.815 133.674L176.633 137.805L174.092 137.982L179.54 119.551L182.235 119.364L190.183 136.862ZM181.073 122.307L178.481 131.384L184.922 130.936L181.073 122.307ZM197.545 123.121C199.051 123.016 200.29 123.411 201.264 124.306C202.236 125.184 202.779 126.435 202.892 128.061L203.44 135.939L201.207 136.095L200.668 128.344C200.597 127.318 200.258 126.533 199.653 125.991C199.048 125.449 198.249 125.212 197.257 125.281C196.111 125.361 195.229 125.783 194.612 126.548C193.993 127.296 193.733 128.372 193.831 129.774L194.304 136.575L192.071 136.731L191.178 123.899L193.411 123.744L193.539 125.591C194.328 124.075 195.663 123.252 197.545 123.121ZM216.442 124.359L216.289 122.152L218.521 121.996L219.414 134.828L217.181 134.983L217.028 132.776C216.051 134.546 214.493 135.506 212.354 135.654C210.541 135.781 208.964 135.237 207.625 134.024C206.267 132.794 205.523 131.239 205.392 129.357C205.262 127.492 205.784 125.857 206.959 124.451C208.133 123.046 209.619 122.28 211.415 122.155C213.554 122.007 215.229 122.741 216.442 124.359ZM212.487 133.479C213.787 133.389 214.843 132.877 215.655 131.943C216.464 130.976 216.824 129.851 216.735 128.567C216.645 127.267 216.133 126.211 215.199 125.399C214.265 124.57 213.148 124.201 211.847 124.292C210.564 124.381 209.517 124.901 208.707 125.851C207.895 126.784 207.534 127.901 207.625 129.201C207.714 130.485 208.226 131.549 209.162 132.395C210.095 133.207 211.203 133.568 212.487 133.479Z" fill="white"></path> <rect x="153.601" y="104.493" width="76.7522" height="46.39" rx="21.585" transform="rotate(-3.98069 153.601 104.493)" stroke="#00DBC8" stroke-width="3"></rect> <rect x="196.117" width="140.78" height="49.39" rx="23.085" transform="rotate(20.2778 196.117 0)" fill="#14234B"></rect> <path d="M206.77 29.2232L204.791 34.5803L212.634 37.4779L211.849 39.6015L201.762 35.8747L208.003 18.983L217.969 22.6652L217.185 24.7887L209.463 21.9357L207.546 27.1238L214.665 29.754L213.889 31.8534L206.77 29.2232ZM216.441 41.2979L214.341 40.5222L220.85 22.9066L222.949 23.6823L216.441 41.2979ZM230.226 32.3221C231.642 32.8451 232.609 33.7146 233.129 34.9305C233.655 36.1303 233.635 37.4944 233.071 39.0227L230.333 46.4309L228.234 45.6553L230.927 38.3677C231.283 37.4024 231.297 36.5483 230.968 35.8052C230.64 35.062 230.009 34.5181 229.076 34.1734C227.998 33.7751 227.02 33.7979 226.143 34.2418C225.272 34.6696 224.593 35.543 224.105 36.8622L221.743 43.2569L219.643 42.4813L224.101 30.4157L226.201 31.1914L225.559 32.9288C226.901 31.8705 228.456 31.6682 230.226 32.3221ZM243.685 44.9189L246.047 38.5242L248.147 39.2999L243.689 51.3654L241.589 50.5897L242.231 48.8523C240.89 49.9106 239.334 50.1129 237.564 49.4591C236.149 48.936 235.178 48.0746 234.652 46.8747C234.132 45.6588 234.155 44.2867 234.72 42.7584L237.457 35.3502L239.556 36.1259L236.864 43.4134C236.507 44.3787 236.493 45.2328 236.822 45.976C237.151 46.7191 237.781 47.263 238.715 47.6077C239.792 48.006 240.767 47.9912 241.638 47.5634C242.515 47.1196 243.197 46.2381 243.685 44.9189ZM253.442 41.2564L252.693 43.2834C253.938 42.0429 255.469 41.7585 257.287 42.4301L256.476 44.626C255.464 44.1974 254.478 44.1439 253.518 44.4658C252.558 44.7876 251.835 45.6081 251.347 46.9272L248.984 53.322L246.885 52.5463L251.343 40.4808L253.442 41.2564ZM263.281 49.0052C264.184 46.5599 265.792 44.8047 268.106 43.7397C270.425 42.6585 272.807 42.5697 275.253 43.4731C277.698 44.3766 279.45 45.993 280.509 48.3224C281.59 50.6416 281.679 53.0238 280.776 55.4691C279.878 57.8983 278.262 59.6505 275.926 60.7257C273.607 61.8069 271.225 61.8957 268.78 60.9922C266.334 60.0888 264.582 58.4724 263.523 56.143C262.47 53.7976 262.389 51.4183 263.281 49.0052ZM278.531 54.6399C279.221 52.7738 279.17 50.9815 278.379 49.2631C277.626 47.5405 276.316 46.3344 274.45 45.6449C272.6 44.9614 270.813 45.0232 269.088 45.8305C267.38 46.6438 266.184 47.9754 265.501 49.8254C264.823 51.6594 264.866 53.4487 265.629 55.1934C266.42 56.9118 267.741 58.1128 269.591 58.7963C271.457 59.4858 273.233 59.429 274.92 58.6259C276.65 57.8026 277.854 56.4739 278.531 54.6399ZM287.61 53.8805L294.174 56.3056L289.716 68.3711L287.617 67.5954L291.325 57.5569L286.861 55.9075L283.152 65.946L281.053 65.1703L284.762 55.1318L282.831 54.4186L283.58 52.3916L285.511 53.1048L285.645 52.7429C286.821 49.5576 289.171 48.6158 292.695 49.9175C293.402 50.179 294.192 50.5897 295.064 51.1495L294.36 53.0558C293.346 52.5348 292.541 52.1644 291.946 51.9445C290.836 51.5343 289.946 51.4433 289.277 51.6714C288.623 51.9054 288.112 52.5211 287.744 53.5185L287.61 53.8805ZM297.972 61.4115C297.687 62.1837 298.261 63.0811 299.693 64.1039C300.24 64.4526 300.689 64.7736 301.037 65.0669C301.408 65.3502 301.784 65.7177 302.166 66.1695C302.563 66.6272 302.808 67.1289 302.899 67.6744C302.99 68.22 302.922 68.7984 302.696 69.4097C302.292 70.5037 301.542 71.2229 300.446 71.5675C299.349 71.912 298.15 71.8436 296.847 71.3621C295.688 70.9342 294.775 70.3134 294.107 69.4996C293.46 68.6757 293.121 67.7641 293.088 66.7646L295.281 66.3956C295.26 67.0461 295.452 67.6383 295.858 68.1723C296.265 68.7063 296.838 69.11 297.578 69.3834C298.302 69.6509 298.931 69.7281 299.467 69.6151C300.002 69.5021 300.371 69.1721 300.573 68.6252C300.876 67.8047 300.3 66.9152 298.844 65.9568C298.366 65.6159 298.006 65.3547 297.762 65.1732C297.518 64.9917 297.194 64.7072 296.788 64.3198C296.399 63.9383 296.125 63.5903 295.967 63.276C295.815 62.9455 295.706 62.5486 295.639 62.0852C295.595 61.6117 295.662 61.1336 295.84 60.651C296.226 59.6053 296.947 58.8933 298.001 58.5148C299.071 58.1422 300.217 58.1818 301.44 58.6336C302.421 58.9961 303.207 59.5423 303.796 60.2721C304.408 60.9918 304.761 61.8171 304.856 62.748L302.729 63.0866C302.675 61.8965 302.004 61.0637 300.717 60.5882C300.106 60.3623 299.538 60.3169 299.013 60.4519C298.503 60.5929 298.157 60.9128 297.972 61.4115Z" fill="white"></path> </svg> 