<?xml version="1.0" encoding="UTF-8"?> <svg xmlns="http://www.w3.org/2000/svg" width="200" height="181" viewBox="0 0 200 181" fill="none"> <path d="M157.253 180.725C180.829 180.725 199.942 161.392 199.942 137.542C199.942 113.693 180.829 94.3594 157.253 94.3594C133.677 94.3594 114.564 113.693 114.564 137.542C114.564 161.392 133.677 180.725 157.253 180.725Z" fill="#14234B"></path> <path d="M152.689 177.366C176.265 177.366 195.377 158.032 195.377 134.183C195.377 110.334 176.265 91 152.689 91C129.112 91 110 110.334 110 134.183C110 158.032 129.112 177.366 152.689 177.366Z" stroke="#00DBC8" stroke-width="3" stroke-miterlimit="10"></path> <path d="M40.878 158.821C60.2754 158.821 76.0001 142.915 76.0001 123.293C76.0001 103.67 60.2754 87.7637 40.878 87.7637C21.4806 87.7637 5.75586 103.67 5.75586 123.293C5.75586 142.915 21.4806 158.821 40.878 158.821Z" fill="#14234B"></path> <path d="M37.1221 156.058C56.5195 156.058 72.2442 140.151 72.2442 120.529C72.2442 100.907 56.5195 85 37.1221 85C17.7247 85 2 100.907 2 120.529C2 140.151 17.7247 156.058 37.1221 156.058Z" stroke="#00DBC8" stroke-width="3" stroke-miterlimit="10"></path> <path d="M106.674 67.8422C123.974 67.8422 137.999 53.6547 137.999 36.1535C137.999 18.6523 123.974 4.46484 106.674 4.46484C89.3727 4.46484 75.3477 18.6523 75.3477 36.1535C75.3477 53.6547 89.3727 67.8422 106.674 67.8422Z" fill="#14234B"></path> <path d="M103.326 65.3774C120.627 65.3774 134.652 51.1899 134.652 33.6887C134.652 16.1875 120.627 2 103.326 2C86.0251 2 72 16.1875 72 33.6887C72 51.1899 86.0251 65.3774 103.326 65.3774Z" stroke="#00DBC8" stroke-width="3" stroke-miterlimit="10"></path> <g clip-path="url(#clip0_4386_115818)"> <path d="M167.406 131.024H163.074V129.659C163.074 126.537 160.582 124 157.484 124C154.387 124 151.895 126.537 151.895 129.634V131H147.563C146.523 131 145.773 131.976 146.063 133L148.701 142.829C148.894 143.512 149.499 144 150.225 144H164.817C165.518 144 166.147 143.512 166.317 142.829L168.954 133C169.196 132 168.446 131.024 167.406 131.024ZM154.484 129.634C154.484 127.976 155.815 126.61 157.484 126.61C159.154 126.61 160.485 127.951 160.485 129.634V131H154.484V129.634Z" fill="white"></path> </g> <path d="M42.3055 112.092C41.9478 111.767 41.482 111.587 40.9988 111.587C40.5157 111.587 40.0499 111.767 39.6922 112.092L30.6302 120.335C30.3401 120.599 30.1365 120.944 30.0463 121.326C29.9561 121.707 29.9834 122.107 30.1246 122.473C30.2658 122.839 30.5144 123.153 30.8376 123.375C31.1609 123.597 31.5437 123.716 31.9357 123.716H32.2943C32.3679 123.716 32.4385 123.745 32.4905 123.797C32.5426 123.849 32.5718 123.92 32.5718 123.993V130.452C32.5721 130.967 32.7769 131.461 33.1411 131.825C33.5054 132.19 33.9994 132.395 34.5145 132.395H37.6573C37.9518 132.395 38.2341 132.278 38.4423 132.07C38.6505 131.861 38.7675 131.579 38.7675 131.285V127.689C38.754 127.145 38.9323 126.613 39.2712 126.187C39.6101 125.761 40.088 125.467 40.6214 125.358C40.9417 125.303 41.27 125.319 41.5834 125.405C41.8969 125.49 42.1879 125.643 42.4363 125.853C42.6846 126.062 42.8843 126.323 43.0214 126.618C43.1585 126.912 43.2298 127.233 43.2302 127.558V131.276C43.2302 131.57 43.3472 131.853 43.5554 132.061C43.7635 132.269 44.0459 132.386 44.3403 132.386H47.4831C47.9983 132.386 48.4923 132.181 48.8565 131.817C49.2208 131.452 49.4256 130.958 49.4259 130.443V123.989C49.4259 123.915 49.4551 123.845 49.5071 123.793C49.5592 123.741 49.6298 123.711 49.7034 123.711H50.0609C50.4521 123.711 50.834 123.592 51.1565 123.37C51.4791 123.149 51.7273 122.835 51.8686 122.47C52.0099 122.106 52.0378 121.707 51.9486 121.326C51.8594 120.945 51.6572 120.6 51.3686 120.335L42.3055 112.092Z" fill="white"></path> <path d="M112.27 33.5079C112.27 30.3363 112.253 27.1632 112.27 23.9869C112.282 22.4073 111.6 20.9558 109.363 21.001C106.197 21.0681 103.024 21.012 99.8612 21.0213C97.8901 21.0213 97.0011 21.9406 96.9996 23.9463C96.9996 30.316 96.9996 36.6857 96.9996 43.0555C96.9996 44.6694 97.7355 46.0382 99.8643 45.9992C103.059 45.943 106.255 45.943 109.45 45.9992C111.534 46.0335 112.283 44.6756 112.277 43.0992C112.26 39.9042 112.27 36.706 112.27 33.5079ZM98.9228 40.2959C98.8949 40.1936 98.8753 40.0893 98.8641 39.9838C98.8641 34.5781 98.8605 29.1725 98.8532 23.7668C98.8532 23.0722 99.1995 22.8849 99.8241 22.8881C102.99 22.9021 106.163 22.8881 109.323 22.8959C110.343 22.8959 110.416 22.9724 110.416 24.0072C110.416 29.1797 110.416 34.3518 110.416 39.5233V40.2959H98.9228ZM104.617 42.0394C105.405 42.0394 105.773 42.3937 105.778 43.1569C105.782 43.9202 105.394 44.2916 104.62 44.2838C103.845 44.276 103.487 43.8968 103.508 43.0352C103.525 42.3703 103.903 42.0316 104.617 42.0316V42.0394Z" fill="white"></path> <defs> <clipPath id="clip0_4386_115818"> <rect width="24" height="24" fill="white" transform="translate(145 122)"></rect> </clipPath> </defs> </svg> 