<?xml version="1.0" encoding="UTF-8"?> <svg xmlns="http://www.w3.org/2000/svg" width="607" height="569" viewBox="0 0 607 569" fill="none"> <path d="M606.705 440.108C593.4 407.838 583.525 374.045 570.35 341.572C555.943 306.074 549.67 289.391 509.708 275.789C473.145 263.347 404.15 243.223 366.537 248.28L334.911 146.984C332.583 139.51 324.527 135.285 317.059 137.624L280.911 148.912V24.2494C280.911 23.4439 280.87 22.6279 280.787 21.8223C280.709 21.0323 280.584 20.2371 280.428 19.4627C280.272 18.6935 280.075 17.9295 279.841 17.1863C279.612 16.4483 279.342 15.7154 279.04 14.9982C278.739 14.2914 278.401 13.5897 278.037 12.9193C277.673 12.2488 277.273 11.594 276.847 10.9599C276.421 10.331 275.964 9.71774 275.48 9.13044C274.997 8.54834 274.482 7.97664 273.947 7.44132C273.412 6.90599 272.845 6.39146 272.263 5.90811C271.676 5.42476 271.062 4.9622 270.434 4.54121C269.805 4.11503 269.145 3.71484 268.474 3.35103C267.799 2.98721 267.102 2.64939 266.395 2.35314C265.683 2.0517 264.95 1.78144 264.212 1.55275C263.464 1.31888 262.7 1.12138 261.931 0.965458C261.156 0.809538 260.361 0.684803 259.571 0.606843C258.771 0.523686 257.955 0.487305 257.144 0.487305H46.9437C46.1329 0.487305 45.317 0.528883 44.5166 0.61204C43.7266 0.695197 42.9314 0.814736 42.157 0.970655C41.3878 1.12657 40.6186 1.32407 39.8754 1.55795C39.1321 1.78663 38.3993 2.05689 37.6873 2.35834C36.9856 2.65459 36.284 2.99241 35.6084 3.36142C34.9379 3.72523 34.2778 4.12543 33.6542 4.55161C33.0253 4.97779 32.4068 5.44035 31.8247 5.9185C31.2426 6.40185 30.6709 6.91639 30.1356 7.45171C29.6003 7.98704 29.0857 8.55354 28.6024 9.13564C28.119 9.71774 27.6617 10.3362 27.2355 10.9651C26.8093 11.594 26.4091 12.254 26.0453 12.9245C25.6763 13.6001 25.3437 14.2966 25.0422 15.0034C24.7408 15.7154 24.4705 16.4483 24.2418 17.1915C24.0079 17.9399 23.8104 18.7039 23.6545 19.4731C23.4934 20.2475 23.3739 21.0427 23.2959 21.8327C23.2128 22.6331 23.1712 23.4491 23.1712 24.2598V229.388L10.0064 233.499C2.52223 235.832 -1.69279 243.873 0.646002 251.351L23.2335 323.693C23.1972 323.901 23.1712 324.114 23.1712 324.337V480.231C23.1712 481.042 23.2128 481.858 23.2959 482.658C23.3739 483.448 23.4986 484.243 23.6545 485.018C23.8104 485.782 24.0079 486.551 24.2418 487.299C24.4705 488.037 24.7408 488.775 25.0422 489.487C25.3385 490.194 25.6763 490.891 26.0453 491.566C26.4091 492.237 26.8093 492.897 27.2355 493.526C27.6617 494.155 28.119 494.773 28.6024 495.355C29.0857 495.937 29.6003 496.504 30.1356 497.044C30.6709 497.58 31.2374 498.094 31.8195 498.577C32.4068 499.061 33.0201 499.523 33.649 499.944C34.2778 500.371 34.9379 500.771 35.6084 501.135C36.284 501.498 36.9805 501.836 37.6873 502.133C38.3941 502.434 39.1321 502.699 39.8754 502.933C40.6238 503.167 41.3878 503.364 42.157 503.52C42.9314 503.676 43.7214 503.801 44.5166 503.879C45.317 503.962 46.1329 504.004 46.9437 504.004H257.139C257.944 504.004 258.76 503.962 259.566 503.879C260.356 503.796 261.151 503.676 261.926 503.52C262.69 503.364 263.459 503.167 264.207 502.933C264.95 502.704 265.683 502.434 266.39 502.133C267.092 501.836 267.793 501.498 268.469 501.129C269.139 500.766 269.799 500.365 270.428 499.939C271.057 499.513 271.676 499.056 272.258 498.572C272.84 498.094 273.406 497.574 273.947 497.039C274.482 496.504 274.997 495.937 275.48 495.35C275.964 494.768 276.421 494.149 276.847 493.521C277.273 492.892 277.673 492.232 278.037 491.561C278.401 490.891 278.739 490.189 279.04 489.482C279.342 488.77 279.612 488.032 279.841 487.294C280.075 486.551 280.272 485.782 280.428 485.013C280.589 484.238 280.709 483.443 280.787 482.653C280.87 481.853 280.911 481.037 280.911 480.226V438.486C282.663 437.774 284.373 437.005 286.031 436.189C288.167 435.134 290.215 434.011 292.138 432.842C292.143 432.842 292.138 432.837 292.148 432.837C306.238 424.266 320.972 410.831 331.362 397.937C333.321 399.428 335.27 400.935 337.203 402.443C324.314 418.575 306.17 442.249 298.343 461.183C285.906 491.28 318.462 509.144 345.384 482.949C351.481 477.019 356.371 469.893 359.469 461.957C363.918 459.135 374.91 445.674 378.553 440.44C380.84 443.008 383.07 445.648 385.258 448.361C374.297 459.031 364.999 473.308 360.389 487.918C354.157 507.668 356.844 528.686 378.72 536.248C397.409 542.703 412.554 527.776 413.396 509.721C415.86 506.706 417.289 504.476 418.614 502.153C434.404 528.857 453.4 551.653 480.286 567.977C484.23 570.363 487.869 564.355 483.919 561.969C454.772 544.262 435.771 518.909 419.55 489.607C411.291 474.691 404.431 461.666 393.792 447.893C366.35 412.38 329.932 387.999 293.91 362.262C292.294 361.114 290.682 359.934 289.097 358.723C286.873 357.029 284.705 355.272 282.637 353.427C276.462 347.928 271.224 341.66 268.355 333.978C263.017 319.738 267.923 307.826 280.651 304.863C282.549 304.416 284.622 304.177 286.862 304.151C287.616 304.141 288.385 304.161 289.18 304.203C301.28 304.858 314.528 310.544 325.234 316.391C339.215 324.026 351.2 332.154 363.024 340.184C368.517 343.905 373.98 347.611 379.369 351.098C397.711 362.969 420.88 375.411 442.21 380.578C454.637 383.587 470.052 384.834 480.457 375.931C483.971 372.938 479.402 367.595 475.894 370.588C469.496 376.056 460.188 376.347 452.231 375.328C457.922 371.066 460.188 365.199 462.558 359.066C465.058 352.58 467.708 345.73 475.925 341.078C479.943 338.817 476.507 332.71 472.495 334.976C462.079 340.865 458.966 348.921 456.019 356.556C454.185 361.306 452.428 365.854 448.509 369.169C448.748 364.575 448.099 359.04 447.402 353.094C445.822 339.597 443.962 323.724 452.043 317.212C455.635 314.312 451.222 308.855 447.631 311.755C443.276 315.268 440.947 320.164 439.845 325.741C423.495 326.115 402.996 321.453 387.654 315.944L368.652 255.088C404.296 250.629 472.609 270.582 507.442 282.431C544.587 295.071 550.346 311.095 563.729 344.009C576.966 376.565 586.862 410.426 600.198 442.779C601.95 447.051 608.441 444.395 606.695 440.123L606.705 440.108ZM414.524 495.028C413.77 496.415 413.032 497.808 412.232 499.17C411.915 498.011 411.536 496.857 411.083 495.709C409.41 491.416 402.882 493.967 404.561 498.26C410.844 514.268 399.821 536.113 381.001 529.606C362.961 523.379 362.047 505.942 367.078 490.023C371.251 476.79 379.754 463.683 389.598 453.927C399.826 467.482 406.395 480.527 414.524 495.028ZM373.673 435.118C371.994 438.98 366.277 446.422 362.062 449.489C360.591 446.438 356.002 447.041 355.431 450.435C353.679 460.902 348.056 470.58 340.488 477.934C319.896 497.969 294.965 487.746 304.829 463.87C312.386 445.58 330.224 422.395 342.687 406.814C353.627 415.628 364.022 424.88 373.668 435.118H373.673ZM30.5358 22.5603C30.5929 22.0094 30.6761 21.4585 30.7852 20.9232C30.8944 20.393 31.0295 19.8629 31.1906 19.3484C31.3518 18.8338 31.5389 18.3297 31.7468 17.836C31.9546 17.3474 32.1885 16.8641 32.438 16.3963C32.6927 15.9337 32.9681 15.4764 33.2644 15.0346C33.5606 14.598 33.8777 14.1718 34.2155 13.7613C34.5481 13.3559 34.9067 12.9609 35.2809 12.5919C35.6551 12.2228 36.0449 11.8642 36.4555 11.5264C36.8609 11.1938 37.2871 10.8715 37.7237 10.5753C38.1602 10.2791 38.6176 10.0036 39.0802 9.74893C39.5479 9.49426 40.0313 9.26038 40.525 9.05248C41.0136 8.84459 41.5229 8.65749 42.0374 8.49637C42.552 8.33526 43.0821 8.20013 43.6122 8.09098C44.1476 7.98184 44.6985 7.89868 45.2494 7.84151C45.8055 7.78434 46.3772 7.75835 46.9385 7.75835H257.134C257.7 7.75835 258.267 7.78434 258.823 7.84151C259.374 7.89868 259.925 7.98184 260.46 8.09098C260.99 8.20013 261.52 8.33526 262.04 8.49637C262.549 8.65749 263.059 8.8394 263.552 9.04729C264.041 9.25518 264.524 9.48906 264.992 9.73853C265.46 9.9932 265.917 10.2687 266.354 10.5649C266.79 10.856 267.216 11.1782 267.622 11.516C268.027 11.8486 268.422 12.2073 268.796 12.5815C269.171 12.9557 269.524 13.3455 269.862 13.7561C270.194 14.1614 270.517 14.5876 270.813 15.0242C271.109 15.466 271.39 15.9233 271.639 16.3859C271.894 16.8485 272.123 17.337 272.331 17.8256C272.538 18.3193 272.726 18.8286 272.887 19.338C273.048 19.8525 273.183 20.3826 273.292 20.918C273.401 21.4533 273.484 22.0042 273.542 22.5551C273.599 23.1164 273.625 23.6829 273.625 24.2442V151.168L169.829 183.589L168.53 183.989L30.4422 227.101V24.2494C30.4422 23.6881 30.4734 23.1164 30.5254 22.5603H30.5358ZM273.63 480.226C273.63 480.787 273.599 481.359 273.547 481.915C273.49 482.466 273.406 483.017 273.297 483.552C273.188 484.087 273.053 484.618 272.892 485.132C272.736 485.641 272.549 486.151 272.341 486.644C272.133 487.133 271.899 487.622 271.65 488.084C271.395 488.547 271.12 489.004 270.823 489.446C270.527 489.882 270.21 490.314 269.872 490.719C269.534 491.125 269.181 491.52 268.807 491.889C268.433 492.263 268.038 492.621 267.632 492.954C267.227 493.292 266.801 493.609 266.364 493.905C265.928 494.201 265.47 494.477 265.008 494.731C264.54 494.986 264.051 495.22 263.568 495.428C263.079 495.636 262.57 495.823 262.056 495.979C261.536 496.14 261.006 496.275 260.476 496.384C259.94 496.493 259.389 496.577 258.838 496.634C258.277 496.691 257.711 496.722 257.149 496.722H46.9437C46.3824 496.722 45.8107 496.691 45.2546 496.639C44.7037 496.582 44.1528 496.499 43.6174 496.389C43.0873 496.28 42.5572 496.145 42.0426 495.984C41.5281 495.823 41.0188 495.636 40.5302 495.428C40.0417 495.22 39.5583 494.986 39.0906 494.737C38.6228 494.482 38.1654 494.207 37.7289 493.91C37.2923 493.614 36.8661 493.297 36.4607 492.959C36.0553 492.621 35.6603 492.268 35.2861 491.894C34.9119 491.52 34.5533 491.125 34.2207 490.719C33.888 490.314 33.5658 489.888 33.2696 489.451C32.9733 489.014 32.6979 488.557 32.4432 488.095C32.1885 487.627 31.9546 487.143 31.7468 486.655C31.5389 486.161 31.3518 485.657 31.1958 485.142C31.0347 484.623 30.8996 484.093 30.7904 483.562C30.6813 483.027 30.5981 482.476 30.541 481.925C30.4838 481.369 30.4578 480.797 30.4578 480.236V346.811L56.143 429.074C58.6065 436.371 66.5376 440.419 73.897 438.122L196.528 399.834L203.487 397.651V397.64L274.955 375.328C264.067 385.344 245.918 396.533 237.67 406.471C231.589 413.804 228.174 423.32 234.551 431.683C244.146 444.255 259.457 445.04 273.63 441.002V480.231V480.226ZM289.601 370.869C290.298 370.225 291.005 369.585 291.722 368.946C302.771 376.887 314.824 385.588 325.738 393.716C316.638 404.943 304.154 416.626 291.8 424.765C290.703 425.498 289.606 426.189 288.51 426.854C287.616 427.395 286.68 427.941 285.708 428.466C272.045 435.919 250.959 441.646 240.128 427.442C235.929 421.943 239.239 415.576 243.07 410.956C250.959 401.45 267.892 389.938 281.187 378.592C282.003 377.901 282.798 377.189 283.588 376.477C285.631 374.627 287.59 372.735 289.601 370.869ZM412.601 329.971C421.161 331.614 430.329 332.835 439.055 332.757C438.754 339.644 439.622 347.045 440.427 353.905C441.441 362.543 442.33 370.162 440.828 372.953C424.279 368.39 407.315 359.768 392.576 351.005C397.617 346.13 400.777 342.419 403.506 339.223C406.458 335.772 408.864 332.96 412.601 329.971ZM390.299 324.389L390.258 324.239C394.847 325.73 399.504 327.035 404.098 328.131C401.988 330.2 400.205 332.284 398.178 334.654C395.32 338.006 391.942 341.951 386.381 347.226C385.248 346.514 384.182 345.834 383.195 345.194C381.911 344.368 380.658 343.542 379.411 342.72L380.939 342.242C388.418 339.914 392.638 331.868 390.299 324.395V324.389Z" fill="#14234B"></path> <path d="M119.108 255.066C116.314 257.837 116.293 262.341 119.071 265.134C145.565 291.734 155.298 322.65 148.831 359.66C148.154 363.533 150.751 367.218 154.636 367.893C155.727 368.082 156.804 368.016 157.8 367.733C160.354 367.008 162.405 364.89 162.892 362.104C170.109 320.801 158.775 284.799 129.19 255.102C126.411 252.316 121.894 252.295 119.093 255.066H119.108Z" fill="#00DBC8"></path> <path d="M91.107 276.065C88.3147 278.832 88.2929 283.33 91.0706 286.118C110.871 305.971 118.142 329.048 113.307 356.672C112.631 360.54 115.226 364.22 119.109 364.893C120.2 365.081 121.276 365.016 122.272 364.734C124.825 364.01 126.875 361.895 127.363 359.113C132.969 327.07 124.163 299.141 101.192 276.101C98.4148 273.313 93.8992 273.298 91.0997 276.065H91.107Z" fill="#00DBC8"></path> <path d="M69.0821 298.058C66.3228 300.815 66.3013 305.297 69.0461 308.076C80.6293 319.791 84.8831 333.404 82.052 349.701C81.3838 353.556 83.949 357.222 87.7861 357.894C88.864 358.081 89.9274 358.016 90.9118 357.735C93.434 357.013 95.4603 354.905 95.9417 352.134C99.5633 331.274 93.8795 313.093 79.0485 298.094C76.3036 295.315 71.8413 295.301 69.0749 298.058H69.0821Z" fill="#00DBC8"></path> <path d="M71.5152 127.9C71.8738 127.9 72.2376 127.884 72.6015 127.848C77.6844 127.344 81.7383 123.29 82.2425 118.212C82.5647 114.964 81.4317 111.788 79.1397 109.491C76.8425 107.194 73.6669 106.066 70.4186 106.388C65.3356 106.892 61.2817 110.946 60.7776 116.024C60.4553 119.272 61.5883 122.448 63.8804 124.745C65.9177 126.782 68.6515 127.905 71.5152 127.905V127.9Z" fill="#14234B"></path> <path d="M71.5152 92.808C71.8738 92.808 72.2376 92.7924 72.6015 92.756C77.6844 92.2519 81.7383 88.198 82.2425 83.1202C82.5647 79.8719 81.4317 76.6963 79.1397 74.3991C76.8425 72.1019 73.6669 70.9741 70.4186 71.2963C65.3356 71.8004 61.2817 75.8543 60.7776 80.9321C60.4553 84.1804 61.5883 87.356 63.8804 89.6532C65.9177 91.6906 68.6515 92.8132 71.5152 92.8132V92.808Z" fill="#14234B"></path> <path d="M71.5152 57.7102C71.8738 57.7102 72.2376 57.6946 72.6015 57.6582C77.6844 57.154 81.7383 53.1001 82.2425 48.0224C82.5647 44.774 81.4317 41.5933 79.1397 39.3013C76.8425 37.0092 73.6669 35.8762 70.4186 36.1985C65.3356 36.7026 61.2817 40.7565 60.7776 45.8343C60.4553 49.0826 61.5883 52.2582 63.8804 54.5554C65.9177 56.5927 68.6515 57.7154 71.5152 57.7154V57.7102Z" fill="#14234B"></path> <path d="M65.1592 140.608H90.2934C99.6122 140.608 107.19 133.03 107.19 123.712V40.3311C107.19 31.0123 99.6122 23.4346 90.2934 23.4346H65.1592C55.8404 23.4346 48.2627 31.0123 48.2627 40.3311V123.712C48.2627 133.03 55.8404 140.608 65.1592 140.608ZM55.5389 40.3311C55.5389 35.0246 59.8527 30.7108 65.1592 30.7108H90.2934C95.5999 30.7108 99.9137 35.0246 99.9137 40.3311V123.712C99.9137 129.018 95.5999 133.332 90.2934 133.332H65.1592C59.8527 133.332 55.5389 129.018 55.5389 123.712V40.3311Z" fill="#14234B"></path> </svg> 