<?xml version="1.0" encoding="UTF-8"?> <svg xmlns="http://www.w3.org/2000/svg" width="195" height="198" viewBox="0 0 195 198" fill="none"> <rect x="6.91992" y="41.5469" width="145.252" height="186.472" rx="12.7586" transform="rotate(-14.6355 6.91992 41.5469)" fill="#14234B"></rect> <rect x="1.83033" y="39.2491" width="142.252" height="183.472" rx="11.2586" transform="rotate(-14.6355 1.83033 39.2491)" stroke="#00DBC8" stroke-width="3"></rect> <rect x="33.625" y="73.8848" width="110.888" height="113.593" transform="rotate(-14.6355 33.625 73.8848)" fill="#14234B"></rect> <g clip-path="url(#clip0_4387_115963)"> <path fill-rule="evenodd" clip-rule="evenodd" d="M16.2599 36.9277C12.6264 39.2465 10.3781 42.9851 10.0622 47.2336L9.94268 48.8384L30.9605 129.323C51.1372 206.586 52.0068 209.851 52.6917 210.914C53.0841 211.523 53.5637 212.208 53.7573 212.437C53.951 212.665 54.0713 212.977 54.0248 213.131C53.9679 213.319 52.4918 213.789 49.5337 214.562C45.6826 215.567 45.0468 215.787 44.4894 216.309C42.6646 218.015 43.657 221.308 46.1602 221.852C46.9737 222.029 51.2696 220.929 126.567 201.266C193.26 183.85 206.218 180.414 206.749 180.007C208.256 178.85 208.515 176.834 207.347 175.355C206.12 173.8 205.971 173.802 198.944 175.48C195.556 176.289 192.717 176.91 192.634 176.861C192.551 176.812 192.536 176.274 192.6 175.665C192.917 172.692 193.909 176.689 172.62 95.152C160.308 47.9983 152.17 17.1613 151.511 15.1704C150.28 11.4473 149.471 10.0258 147.599 8.29587C145.955 6.77699 143.979 5.70012 141.974 5.23039C138.506 4.41781 144.426 3.01536 77.5625 20.4902C20.597 35.3783 17.3043 36.2612 16.2599 36.9277ZM139.436 11.5312C141.001 11.7169 142.57 12.5347 143.538 13.6687L144.405 14.6837L165.133 94.2937L185.861 173.904L185.569 175.171C185.409 175.868 184.977 176.9 184.61 177.466C183.27 179.531 188.417 178.054 122.785 195.199C69.7149 209.062 63.6318 210.614 62.8159 210.497C61.5504 210.315 59.9418 209.354 58.99 208.211L58.1857 207.245L37.3926 127.63L16.5996 48.0157L16.8661 46.7213C17.1634 45.2766 18.1963 43.6783 19.3564 42.8678C20.0134 42.4088 28.6084 40.1137 79.2663 26.8704C133.841 12.6034 138.488 11.4187 139.436 11.5312ZM49.2325 76.3345C47.3642 77.2573 45.8967 79.169 45.8564 80.7326C45.8423 81.2799 47.0827 86.2534 49.4381 95.0948L53.0411 108.62L53.9192 109.488C54.8843 110.443 56.1185 111.051 57.5157 111.26C58.3106 111.379 60.0435 110.974 71.3223 108.036L84.2198 104.676L85.2776 103.759C86.4615 102.732 87.0644 101.639 87.318 100.059C87.4805 99.0454 87.3227 98.3565 84.1137 86.0645C81.8525 77.4029 80.583 72.8618 80.267 72.3048C79.6493 71.2159 77.9043 70.045 76.3939 69.7063L75.1872 69.4355L62.6386 72.6732C55.7368 74.4539 49.7042 76.1015 49.2325 76.3345ZM100.947 62.929C99.6426 63.9611 99.4556 62.9088 104.112 80.7389L108.322 96.8624L108.961 97.3011C109.312 97.5422 109.915 97.7435 110.301 97.7484C110.686 97.7531 117.917 95.9385 126.369 93.7158C138.161 90.6146 141.833 89.5811 142.153 89.2733C143.187 88.2786 143.265 88.6906 138.772 71.4906C134.172 53.8832 134.516 54.8543 132.8 54.6058C131.61 54.4335 101.859 62.2073 100.947 62.929ZM75.9037 74.5879C76.1531 74.7356 77.0301 77.8307 79.4699 87.1735C82.6098 99.1974 82.6946 99.5731 82.3431 99.9013C82.106 100.122 77.8627 101.315 70.0673 103.35C62.272 105.386 57.9875 106.421 57.6725 106.344C57.2054 106.229 57.0954 105.859 53.9251 93.7187C52.1287 86.84 50.7071 81.1285 50.7661 81.027C50.8248 80.9253 56.4305 79.3909 63.2231 77.617C72.5377 75.1846 75.6543 74.4401 75.9037 74.5879ZM134.196 72.8435L137.56 85.7253L124.803 89.0567L112.046 92.3881L108.682 79.5063L105.318 66.6244L118.075 63.293L130.832 59.9616L134.196 72.8435ZM87.0083 73.3124C86.3304 74.5799 86.8248 75.9289 88.1975 76.5588C88.6829 76.7814 89.2817 76.6822 92.4692 75.8498C95.6567 75.0174 96.2276 74.8112 96.5422 74.3797C97.4395 73.148 97.1942 71.6484 95.977 70.9273L95.1715 70.4501L91.3169 71.4567L87.4623 72.4633L87.0083 73.3124ZM57.0827 84.6111L56.5383 85.4394L58.2606 92.2941C59.7333 98.1551 60.0572 99.232 60.4958 99.7234C61.4862 100.833 61.8078 100.803 68.9606 98.9341C75.0708 97.3378 75.4948 97.1988 76.0583 96.6102C76.3879 96.2658 76.687 95.7048 76.7227 95.3636C76.7599 95.0107 76.0437 91.8936 75.061 88.1305C73.1854 80.9482 73.0344 80.5993 71.7019 80.3625C71.3235 80.2954 68.7599 80.8755 64.3736 82.021L57.6272 83.7827L57.0827 84.6111ZM111.766 70.4446L111.22 71.3869L112.976 78.1108C113.978 81.9458 114.887 85.0535 115.092 85.3438C115.29 85.6239 115.825 85.9671 116.281 86.1063C117.061 86.3444 117.498 86.2583 123.652 84.6511C129.807 83.0439 130.23 82.9055 130.794 82.3165C131.123 81.9721 131.424 81.3995 131.461 81.0445C131.503 80.6425 130.833 77.8327 129.688 73.6081L127.847 66.8177L126.967 66.3614L126.087 65.905L119.199 67.7036L112.312 69.5023L111.766 70.4446ZM91.936 81.0331L91.39 81.9754L93.6988 90.8166C96.1945 100.373 96.235 100.478 97.6053 100.946C98.8315 101.365 100.313 100.521 100.524 99.2847C100.603 98.8177 99.9808 96.1402 98.274 89.6044L95.9146 80.5694L95.1091 80.0922C93.9181 79.3867 92.6765 79.7549 91.936 81.0331ZM104.256 99.9255C103.433 100.717 103.448 101.324 104.382 104.934L105.256 108.311L106.061 108.788L106.867 109.265L110.28 108.374L113.694 107.482L114.163 106.672C114.836 105.511 114.465 104.119 113.311 103.468C112.571 103.051 112.314 103.044 110.612 103.393L108.731 103.78L108.301 102.135C108.004 100.995 107.71 100.328 107.347 99.9638C106.465 99.0811 105.151 99.0649 104.256 99.9255ZM117.263 99.946L116.793 100.756L118.182 106.075L119.571 111.394L120.377 111.871L121.182 112.348L125.653 111.181L130.123 110.013L130.617 109.16C131.3 107.982 130.992 106.748 129.846 106.069L129.04 105.592L126.188 106.336L123.337 107.081L122.487 103.833C121.251 99.1079 120.68 98.3659 118.682 98.8879C117.923 99.0861 117.638 99.2986 117.263 99.946ZM61.1225 116.544C60.7669 116.749 60.3491 117.256 60.1936 117.671C59.9403 118.346 59.9954 118.748 60.7243 121.539C61.7962 125.644 62.3599 126.308 64.32 125.778C65.8999 125.35 66.3037 124.173 65.684 121.799L65.2489 120.133L67.0461 119.656C68.9155 119.16 69.203 118.955 69.6069 117.825C70.1144 116.407 68.9669 114.891 67.3733 114.875C66.2892 114.864 62.0946 115.984 61.1225 116.544ZM72.3837 115.17C72.0257 115.742 71.9206 116.264 72.0054 117.047C72.2633 119.424 73.2988 120.8 74.8257 120.792C76.6191 120.783 77.4484 119.485 77.0449 117.316C76.9093 116.587 76.5892 115.666 76.3338 115.268C75.3589 113.752 73.3031 113.7 72.3837 115.17ZM80.6534 114.161C79.7712 115.097 79.8284 116.53 80.7863 117.489C81.5549 118.259 82.2266 118.287 84.6624 117.651C86.789 117.096 86.8627 117.057 87.319 116.27C87.7032 115.606 87.7398 115.274 87.5207 114.435C87.3016 113.596 87.107 113.323 86.4476 112.933C85.66 112.466 85.5917 112.469 83.3916 113.05C81.6824 113.501 81.0238 113.768 80.6534 114.161ZM91.1249 111.823C90.7008 112.555 90.6264 112.947 90.7917 113.581C90.9571 114.214 91.2136 114.519 91.9414 114.95C92.8696 115.5 92.8967 115.501 94.8628 114.987L96.8473 114.469L97.3828 116.52C97.9044 118.517 97.9399 118.583 98.7493 119.039C99.3781 119.393 99.7881 119.453 100.434 119.285C101.08 119.116 101.409 118.863 101.784 118.246L102.28 117.432L101.308 113.712L100.337 109.993L99.5317 109.516L98.7262 109.039L95.1985 109.96L91.6708 110.881L91.1249 111.823ZM133.15 101.913L132.681 102.723L133.922 107.474L135.162 112.226L129.799 113.626C125.186 114.831 124.363 115.101 123.916 115.554C122.864 116.623 123.074 118.308 124.352 119.065L125.157 119.543L132.381 117.656L139.603 115.77L139.997 115.09L140.392 114.41L138.71 107.971L137.029 101.532L136.281 101.067C135.206 100.399 133.809 100.776 133.15 101.913ZM107.196 113.431C106.773 114.331 106.923 115.405 107.588 116.228C108.21 116.998 109.339 117.087 111.456 116.534L113.332 116.045L114.28 119.675L115.227 123.304L116.02 123.836C117.133 124.583 118.423 124.289 119.13 123.127L119.627 122.31L118.211 116.888L116.794 111.465L116.028 111.033L115.262 110.601L111.423 111.604L107.583 112.606L107.196 113.431ZM60.3109 132.244C59.9813 132.588 59.6822 133.149 59.6465 133.49C59.5517 134.392 67.6755 165.407 68.1651 166.013C68.3706 166.267 68.8585 166.568 69.2494 166.682C69.8944 166.869 71.398 166.512 85.5834 162.808C102.684 158.342 102.249 158.491 102.406 157.051C102.51 156.093 94.355 124.967 93.8586 124.426C93.6554 124.205 93.1264 123.913 92.6826 123.777C91.904 123.54 91.3403 123.671 76.3932 127.574C61.3026 131.515 60.8951 131.633 60.3109 132.244ZM100.769 123.79C99.4799 124.755 99.6031 126.846 101.005 127.787L101.829 128.34L106.154 127.21C110.954 125.957 111.324 125.752 111.528 124.236C111.611 123.616 111.533 123.341 111.081 122.659C110.176 121.293 109.518 121.273 104.993 122.471C102.897 123.027 100.996 123.62 100.769 123.79ZM93.7118 141.926L97.1464 154.849L84.3876 158.181L71.6288 161.512L68.2676 148.641L64.9063 135.77L66.2522 135.348C66.9925 135.116 72.7008 133.594 78.9376 131.965L90.2772 129.004L93.7118 141.926ZM126.55 124.488C125.384 125.415 125.414 125.739 127.335 133.098C129.287 140.573 129.351 140.707 131.062 140.928C132.436 141.106 143.612 138.178 144.728 137.347C146.067 136.352 146.046 136.063 144.094 128.585C142.49 122.445 142.346 122.002 141.768 121.446C140.792 120.507 140.06 120.588 133.247 122.389C128.529 123.636 127.032 124.105 126.55 124.488ZM71.4013 139.442L70.8568 140.27L72.5791 147.125C74.0519 152.986 74.3757 154.063 74.8143 154.554C75.8038 155.662 76.1307 155.632 83.2358 153.777C88.5787 152.382 89.7858 152.005 90.243 151.59C91.3231 150.61 91.2898 150.276 89.3888 142.997C87.4722 135.657 87.3301 135.338 85.933 135.221C85.4432 135.181 82.8399 135.768 78.5609 136.886L71.9458 138.613L71.4013 139.442ZM102.752 134.309L102.241 135.124L103.631 140.446C104.474 143.674 105.152 145.91 105.356 146.132C106.096 146.938 106.909 146.889 111.129 145.786C114.732 144.845 115.177 144.683 115.718 144.117C116.798 142.989 116.525 141.241 115.15 140.482C114.505 140.126 114.236 140.145 111.551 140.737L108.649 141.377L107.543 137.586L106.436 133.794L105.644 133.437C104.514 132.928 103.407 133.261 102.752 134.309ZM110.931 132.021C110.306 132.895 110.247 133.779 110.753 134.657C111.507 135.967 111.949 136.033 115.185 135.319L118.082 134.68L118.454 135.877C119.015 137.674 119.24 137.996 120.131 138.268C121.315 138.629 122.219 138.32 122.829 137.345L123.34 136.529L122.525 133.41C122.077 131.692 121.56 130.127 121.376 129.926C120.632 129.116 119.829 129.167 115.494 130.3C111.567 131.327 111.375 131.399 110.931 132.021Z" fill="white"></path> </g> <defs> <clipPath id="clip0_4387_115963"> <rect width="110.888" height="113.593" fill="white" transform="translate(32.9414 71.2676) rotate(-14.6355)"></rect> </clipPath> </defs> </svg> 