<?xml version="1.0" encoding="UTF-8"?> <svg xmlns="http://www.w3.org/2000/svg" width="85" height="75" viewBox="0 0 85 75" fill="none"> <g clip-path="url(#clip0_4368_115401)"> <path d="M28.4127 29.7485C31.3586 29.7485 33.7059 30.7077 35.4516 32.6261C37.2337 34.5446 38.1232 37.1132 38.1232 40.3333V56.1598H31.495V40.797C31.495 39.2559 31.1176 38.0572 30.3645 37.1995C29.6114 36.3433 28.5491 35.9145 27.1792 35.9145C25.6714 35.9145 24.4909 36.4115 23.6332 37.4041C22.8104 38.3982 22.3997 39.8363 22.3997 41.7199V56.1583H15.7715V40.7955C15.7715 39.2544 15.3942 38.0557 14.641 37.198C13.8879 36.3418 12.8256 35.913 11.4557 35.913C9.9828 35.913 8.80082 36.41 7.90978 37.4026C7.0536 38.3967 6.62475 39.8348 6.62475 41.7184V56.1568H-0.00195312V30.4683H6.62627V33.1914C8.16739 30.8956 10.548 29.7485 13.7682 29.7485C16.9883 29.7485 19.2493 30.982 20.7556 33.4475C22.4679 30.9805 25.0198 29.7485 28.4112 29.7485H28.4127ZM46.6289 20.191H52.795V56.1598H45.7046V27.6936L38.9218 29.5954L37.1746 23.5324L46.6289 20.1926V20.191ZM70.6111 56.8781C66.1241 56.8781 62.5949 55.1824 60.0263 51.791C57.4911 48.3663 56.2242 43.8262 56.2242 38.1739C56.2242 32.5216 57.4911 27.9997 60.0263 24.6083C62.5949 21.1821 66.1241 19.4697 70.6111 19.4697C75.0982 19.4697 78.6608 21.1821 81.196 24.6083C83.7312 27.9997 84.998 32.5216 84.998 38.1739C84.998 43.8262 83.7312 48.3648 81.196 51.791C78.6608 55.1824 75.133 56.8781 70.6111 56.8781V56.8781ZM65.1649 46.9615C66.3984 48.9482 68.2138 49.9423 70.6111 49.9423C73.0085 49.9423 74.8254 48.9315 76.0574 46.91C77.3242 44.8885 77.9592 41.9775 77.9592 38.1754C77.9592 34.3734 77.3257 31.4093 76.0574 29.3893C74.8239 27.3678 73.0085 26.3571 70.6111 26.3571C68.2138 26.3571 66.3984 27.3678 65.1649 29.3893C63.9314 31.4108 63.3147 34.3385 63.3147 38.1754C63.3147 42.0123 63.9314 44.94 65.1649 46.9615V46.9615Z" fill="#14234B"></path> <path d="M32.4964 22.6771C33.7359 22.8499 34.8831 21.9861 35.0558 20.745C35.2286 19.5055 34.3648 18.3583 33.1237 18.1856L32.4964 22.6771ZM27.9897 17.4673C26.7501 17.2946 25.6029 18.1583 25.4302 19.3994C25.2574 20.639 26.1212 21.7861 27.3623 21.9589L27.9897 17.4673V17.4673ZM33.1237 18.1856L27.9897 17.4673L27.3623 21.9589L32.4964 22.6771L33.1237 18.1856V18.1856Z" fill="#14234B"></path> <path d="M43.4013 11.2849C43.2604 12.529 44.156 13.6519 45.4001 13.7929C46.6442 13.9338 47.7671 13.0382 47.908 11.7941L43.4013 11.2849ZM48.9536 2.52155C49.0945 1.27743 48.199 0.154548 46.9548 0.0136183C45.7107 -0.127311 44.5878 0.768271 44.4469 2.01239L48.9536 2.52155ZM47.9065 11.7941L48.9536 2.52155L44.4469 2.01239L43.3998 11.2849L47.9065 11.7941Z" fill="#14234B"></path> <path d="M36.2641 14.629C37.0869 15.5731 38.5189 15.6731 39.463 14.8503C40.4071 14.0274 40.5071 12.5954 39.6843 11.6513L36.2641 14.629V14.629ZM33.9698 5.08826C33.147 4.14418 31.7149 4.04417 30.7709 4.86701C29.8268 5.68986 29.7268 7.12188 30.5496 8.06595L33.9698 5.08826V5.08826ZM39.6843 11.6513L33.9698 5.08826L30.5496 8.06595L36.2641 14.629L39.6843 11.6513Z" fill="#14234B"></path> <path d="M50.8116 13.8045C49.9721 14.7335 50.0448 16.167 50.9737 17.0065C51.9026 17.846 53.3377 17.7733 54.1757 16.8444L50.8101 13.8045H50.8116ZM58.1247 12.4725C58.9643 11.5436 58.8915 10.1101 57.9626 9.27056C57.0337 8.43105 55.5986 8.50378 54.7606 9.4327L58.1263 12.4725H58.1247ZM54.1772 16.8429L58.1247 12.4725L54.7591 9.4327L50.8116 13.803L54.1772 16.8429Z" fill="#14234B"></path> <path d="M6.50433 65.88C7.19837 66.6013 7.55145 67.4802 7.55145 68.5137C7.55145 69.5472 7.19685 70.4398 6.50433 71.1611C5.81029 71.8824 4.96017 72.237 3.96912 72.237C2.79471 72.237 1.90216 71.7702 1.29298 70.8353V72.0536H0.0625V62.1416H1.29449V66.1907C1.90367 65.2557 2.79471 64.7889 3.97063 64.7889C4.96168 64.7889 5.81181 65.1572 6.50584 65.88H6.50433ZM5.59814 70.3261C6.08003 69.8306 6.31945 69.235 6.31945 68.5137C6.31945 67.7924 6.07851 67.1969 5.59814 66.715C5.11625 66.2195 4.52223 65.9785 3.81455 65.9785C3.10687 65.9785 2.4977 66.2195 2.01581 66.715C1.53392 67.1969 1.29298 67.7909 1.29298 68.5137C1.29298 69.2366 1.53392 69.8306 2.01581 70.3261C2.4977 70.808 3.09172 71.0474 3.81455 71.0474C4.53738 71.0474 5.11777 70.8065 5.59814 70.3261Z" fill="#14234B"></path> <path d="M13.6848 64.9736H15.0017L12.1134 72.4914C11.5042 74.0916 10.3859 74.9841 8.97051 74.8841V73.737C9.83427 73.8082 10.4707 73.3263 10.8814 72.2929L11.0087 72.0246L7.92188 64.9736H9.23873L11.6451 70.5244L13.6833 64.9736H13.6848Z" fill="#14234B"></path> <path d="M23.2991 62.1412C24.2189 62.1412 24.9705 62.4533 25.5782 63.061C26.1874 63.6702 26.498 64.4203 26.498 65.3265C26.498 66.2327 26.1859 66.9828 25.5782 67.5919C24.969 68.2011 24.2189 68.5118 23.2991 68.5118H21.02V72.0517H19.7031V62.1396H23.2991V62.1412ZM23.2991 67.2813C23.8507 67.2813 24.3038 67.0964 24.6584 66.7297C25.013 66.3478 25.1963 65.8796 25.1963 65.328C25.1963 64.196 24.3886 63.3747 23.2991 63.3747H21.02V67.2828H23.2991V67.2813Z" fill="#14234B"></path> <path d="M33.253 64.973H34.485V72.0528H33.253V70.8344C32.6439 71.7694 31.7528 72.2361 30.5769 72.2361C29.5859 72.2361 28.7357 71.8815 28.0432 71.1602C27.3492 70.4374 26.9961 69.5463 26.9961 68.5129C26.9961 67.4794 27.3507 66.602 28.0432 65.8791C28.7373 65.1563 29.5859 64.7881 30.5769 64.7881C31.7513 64.7881 32.6439 65.2548 33.253 66.1898V64.9714V64.973ZM32.5317 70.3252C33.0136 69.8297 33.253 69.2342 33.253 68.5129C33.253 67.7915 33.0121 67.196 32.5317 66.7141C32.0498 66.2186 31.4558 65.9777 30.733 65.9777C30.0102 65.9777 29.4298 66.2186 28.9494 66.7141C28.4675 67.196 28.2266 67.79 28.2266 68.5129C28.2266 69.2357 28.4675 69.8297 28.9494 70.3252C29.4313 70.8071 30.0253 71.0466 30.733 71.0466C31.4407 71.0466 32.0498 70.8056 32.5317 70.3252Z" fill="#14234B"></path> <path d="M38.8043 67.947C39.909 68.1879 41.3819 68.5986 41.3668 70.114C41.3668 70.7519 41.1122 71.2747 40.6167 71.6581C40.1211 72.04 39.4983 72.2385 38.7194 72.2385C37.3465 72.2385 36.313 71.5869 35.9023 70.5822L36.9646 69.973C37.1919 70.6519 37.8572 71.0777 38.7209 71.0777C39.5286 71.0777 40.1226 70.7807 40.1226 70.1155C40.1226 69.5639 39.4998 69.2517 38.7209 69.0684C37.6026 68.7713 36.1584 68.4031 36.1584 66.9014C36.1584 66.2922 36.3994 65.783 36.8661 65.386C37.348 64.989 37.942 64.792 38.6649 64.792C39.812 64.792 40.7606 65.3436 41.2137 66.2649L40.1802 66.8453C39.9256 66.2361 39.415 65.9391 38.6649 65.9391C37.9708 65.9391 37.4041 66.2786 37.4041 66.8877C37.4041 67.4393 38.0269 67.7379 38.8058 67.95L38.8043 67.947Z" fill="#14234B"></path> <path d="M49.0256 67.7056V72.0517H47.7936V67.7753C47.7936 66.6282 47.1283 65.9629 46.0373 65.9629C44.8053 65.9629 43.9839 66.713 43.9839 68.2996V72.0517H42.752V62.1396H43.9839V65.9902C44.4795 65.1825 45.2447 64.787 46.2782 64.787C47.9345 64.787 49.0256 65.9053 49.0256 67.7041V67.7056Z" fill="#14234B"></path> <path d="M56.6042 64.973H57.8362V72.0528H56.6042V70.8344C55.995 71.7694 55.104 72.2361 53.928 72.2361C52.937 72.2361 52.0869 71.8815 51.3928 71.1602C50.6988 70.4374 50.3457 69.5463 50.3457 68.5129C50.3457 67.4794 50.7003 66.602 51.3928 65.8791C52.0869 65.1563 52.937 64.7881 53.928 64.7881C55.1024 64.7881 55.995 65.2548 56.6042 66.1898V64.9714V64.973ZM55.8829 70.3252C56.3647 69.8297 56.6042 69.2342 56.6042 68.5129C56.6042 67.7915 56.3632 67.196 55.8829 66.7141C55.401 66.2186 54.8069 65.9777 54.0841 65.9777C53.3613 65.9777 52.7809 66.2186 52.3005 66.7141C51.8186 67.196 51.5792 67.79 51.5792 68.5129C51.5792 69.2357 51.8202 69.8297 52.3005 70.3252C52.7824 70.8071 53.3764 71.0466 54.0841 71.0466C54.7918 71.0466 55.401 70.8056 55.8829 70.3252Z" fill="#14234B"></path> <path d="M63.426 62.1412C64.3459 62.1412 65.0975 62.4533 65.7052 63.061C66.3143 63.6702 66.625 64.4203 66.625 65.3265C66.625 66.2327 66.3128 66.9828 65.7052 67.5919C65.096 68.2011 64.3459 68.5118 63.426 68.5118H61.1469V72.0517H59.8301V62.1396H63.426V62.1412ZM63.426 67.2813C63.9776 67.2813 64.4307 67.0964 64.7853 66.7297C65.1399 66.3478 65.3233 65.8796 65.3233 65.328C65.3233 64.196 64.5156 63.3747 63.426 63.3747H61.1469V67.2828H63.426V67.2813Z" fill="#14234B"></path> <path d="M73.3815 64.973H74.6135V72.0528H73.3815V70.8344C72.7723 71.7694 71.8813 72.2361 70.7054 72.2361C69.7143 72.2361 68.8642 71.8815 68.1702 71.1602C67.4761 70.4374 67.123 69.5463 67.123 68.5129C67.123 67.4794 67.4776 66.602 68.1702 65.8791C68.8642 65.1563 69.7143 64.7881 70.7054 64.7881C71.8798 64.7881 72.7723 65.2548 73.3815 66.1898V64.9714V64.973ZM72.6602 70.3252C73.1421 69.8297 73.3815 69.2342 73.3815 68.5129C73.3815 67.7915 73.1406 67.196 72.6602 66.7141C72.1783 66.2186 71.5843 65.9777 70.8615 65.9777C70.1386 65.9777 69.5582 66.2186 69.0779 66.7141C68.596 67.196 68.3566 67.79 68.3566 68.5129C68.3566 69.2357 68.5975 69.8297 69.0779 70.3252C69.5598 70.8071 70.1538 71.0466 70.8615 71.0466C71.5691 71.0466 72.1783 70.8056 72.6602 70.3252Z" fill="#14234B"></path> <path d="M81.4251 64.9736H82.7419L79.8536 72.4914C79.2444 74.0916 78.1261 74.9841 76.7107 74.8841V73.737C77.5745 73.8082 78.211 73.3263 78.6216 72.2929L78.7489 72.0246L75.6621 64.9736H76.979L79.3854 70.5244L81.4235 64.9736H81.4251Z" fill="#14234B"></path> </g> <defs> <clipPath id="clip0_4368_115401"> <rect width="85" height="74.891" fill="white"></rect> </clipPath> </defs> </svg> 