<?xml version="1.0" encoding="UTF-8"?> <svg xmlns="http://www.w3.org/2000/svg" width="106" height="31" viewBox="0 0 106 31" fill="none"> <rect x="1.45898" y="0.5" width="103.852" height="29.145" rx="7.5" fill="white" stroke="#14234B"></rect> <path d="M53.2046 13.7007C51.5847 13.7007 50.2613 14.9044 50.2613 16.5651C50.2613 18.2123 51.5847 19.4286 53.2046 19.4286C54.8279 19.4286 56.1512 18.2123 56.1512 16.5651C56.1512 14.9044 54.8279 13.7007 53.2046 13.7007ZM53.2046 18.3007C52.3157 18.3007 51.551 17.5844 51.551 16.5651C51.551 15.5323 52.3157 14.8286 53.2046 14.8286C54.0934 14.8286 54.8615 15.5323 54.8615 16.5651C54.8615 17.5844 54.0934 18.3007 53.2046 18.3007V18.3007ZM46.7827 13.7007C45.1594 13.7007 43.8395 14.9044 43.8395 16.5651C43.8395 18.2123 45.1594 19.4286 46.7827 19.4286C48.4052 19.4286 49.726 18.2123 49.726 16.5651C49.726 14.9044 48.4052 13.7007 46.7827 13.7007ZM46.7827 18.3007C45.893 18.3007 45.1258 17.5844 45.1258 16.5651C45.1258 15.5323 45.893 14.8286 46.7827 14.8286C47.6716 14.8286 48.4363 15.5323 48.4363 16.5651C48.4363 17.5844 47.6716 18.3007 46.7827 18.3007ZM39.141 14.5787V15.7958H42.1179C42.0308 16.4759 41.7981 16.9758 41.4411 17.3243C41.0066 17.7452 40.3299 18.2123 39.141 18.2123C37.3091 18.2123 35.8745 16.7688 35.8745 14.9801C35.8745 13.1915 37.3091 11.748 39.141 11.748C40.1316 11.748 40.8523 12.1259 41.3842 12.6158L42.2627 11.7581C41.5187 11.0645 40.529 10.5317 39.141 10.5317C36.6289 10.5317 34.5176 12.5274 34.5176 14.9801C34.5176 17.4329 36.6289 19.4286 39.141 19.4286C40.4989 19.4286 41.5187 18.9943 42.3205 18.1795C43.1421 17.3773 43.3981 16.2494 43.3981 15.3387C43.3981 15.0559 43.374 14.7958 43.3309 14.5787H39.141ZM70.3889 15.5222C70.1466 14.8817 69.3992 13.7007 67.8767 13.7007C66.368 13.7007 65.112 14.8615 65.112 16.5651C65.112 18.1694 66.3551 19.4286 68.0216 19.4286C69.369 19.4286 70.1466 18.6264 70.4665 18.1593L69.4664 17.5086C69.1328 17.985 68.6785 18.3007 68.0216 18.3007C67.3689 18.3007 66.9008 18.0086 66.6008 17.4329L70.5242 15.8479L70.3889 15.5222V15.5222ZM66.3887 16.4759C66.3551 15.3715 67.2672 14.8059 67.9207 14.8059C68.4328 14.8059 68.8673 15.0559 69.0121 15.4136L66.3887 16.4759V16.4759ZM63.1998 19.2543H64.4895V10.8373H63.1998V19.2543ZM61.0876 14.3388H61.0445C60.7549 14.0038 60.2023 13.7007 59.5022 13.7007C58.0332 13.7007 56.6901 14.9599 56.6901 16.5743C56.6901 18.1795 58.0332 19.4286 59.5022 19.4286C60.2023 19.4286 60.7549 19.123 61.0445 18.7779H61.0876V19.1887C61.0876 20.2838 60.4885 20.8721 59.5221 20.8721C58.7341 20.8721 58.2453 20.3166 58.0436 19.8494L56.922 20.3065C57.2452 21.0657 58.1013 22 59.5221 22C61.0342 22 62.3101 21.1314 62.3101 19.0178V13.875H61.0876V14.3388V14.3388ZM59.6126 18.3007C58.7238 18.3007 57.9798 17.5743 57.9798 16.5743C57.9798 15.5651 58.7238 14.8286 59.6126 14.8286C60.4885 14.8286 61.179 15.5651 61.179 16.5743C61.179 17.5743 60.4885 18.3007 59.6126 18.3007V18.3007ZM76.4271 10.8373H73.3425V19.2543H74.6287V16.0651H76.4271C77.8556 16.0651 79.2565 15.0559 79.2565 13.4508C79.2565 11.8465 77.8521 10.8373 76.4271 10.8373V10.8373ZM76.4607 14.8943H74.6287V12.0081H76.4607C77.4211 12.0081 77.9694 12.7867 77.9694 13.4508C77.9694 14.1022 77.4211 14.8943 76.4607 14.8943ZM84.4119 13.6848C83.4825 13.6848 82.5161 14.0854 82.1187 14.9734L83.2601 15.4406C83.5058 14.9734 83.9576 14.8219 84.4352 14.8219C85.1024 14.8219 85.7792 15.2133 85.7895 15.9043V15.9927C85.5568 15.8614 85.0585 15.667 84.4455 15.667C83.2162 15.667 81.9635 16.3277 81.9635 17.5608C81.9635 18.6887 82.9705 19.4151 84.1024 19.4151C84.968 19.4151 85.4456 19.0338 85.7456 18.5902H85.7895V19.2409H87.0318V16.0121C87.0318 14.5197 85.8904 13.6848 84.4119 13.6848ZM84.2567 18.2973C83.836 18.2973 83.2498 18.0936 83.2498 17.5844C83.2498 16.9329 83.9808 16.6829 84.6136 16.6829C85.18 16.6829 85.4456 16.805 85.7895 16.9657C85.6887 17.7452 85.0016 18.2973 84.2567 18.2973V18.2973ZM91.5579 13.8691L90.0794 17.5179H90.0354L88.5069 13.8691H87.1198L89.4164 18.9682L88.106 21.8056H89.45L92.989 13.8691H91.5579V13.8691ZM79.9634 19.2543H81.2531V10.8373H79.9634V19.2543Z" fill="#14234B"></path> <path d="M14.2162 8.22244C14.0357 8.43903 13.9444 8.71623 13.9609 8.99771V21.2255C13.9453 21.5069 14.0365 21.7837 14.2162 22.0008L14.258 22.0426L21.1054 15.1905V15.028L14.258 8.18066L14.2162 8.22244Z" fill="url(#paint0_linear_4368_115368)"></path> <path d="M23.3895 17.4749L21.1055 15.1909V15.0284L23.3895 12.749L23.4405 12.7769L26.147 14.3135C26.9223 14.7499 26.9223 15.4694 26.147 15.9104L23.4405 17.447L23.3895 17.4749Z" fill="url(#paint1_linear_4368_115368)"></path> <path d="M23.441 17.4471L21.1199 15.126L14.2168 22.0012C14.3759 22.132 14.574 22.2062 14.7799 22.2121C14.9858 22.218 15.1878 22.1552 15.3542 22.0337L23.4271 17.4471" fill="url(#paint2_linear_4368_115368)"></path> <path d="M23.441 12.7769L15.3542 8.18566C15.1896 8.05916 14.9863 7.9937 14.7788 8.00048C14.5714 8.00725 14.3727 8.08583 14.2168 8.2228L21.106 15.112L23.441 12.7769Z" fill="url(#paint3_linear_4368_115368)"></path> <path opacity="0.1" d="M23.3883 17.3965L15.3525 21.9552C15.1922 22.0747 14.9976 22.1392 14.7977 22.1392C14.5978 22.1392 14.4032 22.0747 14.243 21.9552L14.2012 21.997L14.243 22.0388C14.4032 22.1582 14.5978 22.2227 14.7977 22.2227C14.9976 22.2227 15.1922 22.1582 15.3525 22.0388L23.4254 17.4522L23.3883 17.3965Z" fill="black"></path> <path opacity="0.07" d="M14.2161 21.9274C14.0361 21.7087 13.9449 21.4303 13.9607 21.1475V21.2264C13.9452 21.5077 14.0364 21.7846 14.2161 22.0016L14.2579 21.9599L14.2161 21.9274Z" fill="black"></path> <path opacity="0.07" d="M26.1462 15.8272L23.3887 17.3963L23.4397 17.4474L26.1462 15.8922C26.3049 15.8224 26.4423 15.7117 26.5443 15.5714C26.6462 15.4311 26.7091 15.2663 26.7265 15.0938C26.6948 15.2532 26.6257 15.4029 26.5248 15.5305C26.4239 15.658 26.2941 15.7597 26.1462 15.8272Z" fill="black"></path> <path opacity="0.3" d="M15.3536 8.26942L26.147 14.3926C26.2934 14.4585 26.4223 14.558 26.5232 14.683C26.624 14.808 26.6939 14.955 26.7272 15.1122C26.7108 14.9393 26.6483 14.7741 26.5462 14.6336C26.4442 14.4932 26.3063 14.3827 26.147 14.3137L15.3536 8.18586C14.5923 7.74949 13.9609 8.11159 13.9609 8.99826V9.07718C13.9609 8.19515 14.5923 7.82841 15.3536 8.26942Z" fill="white"></path> <defs> <linearGradient id="paint0_linear_4368_115368" x1="20.5019" y1="8.86772" x2="11.2219" y2="18.1477" gradientUnits="userSpaceOnUse"> <stop stop-color="#008EFF"></stop> <stop offset="0.01" stop-color="#008FFF"></stop> <stop offset="0.26" stop-color="#00ACFF"></stop> <stop offset="0.51" stop-color="#00C0FF"></stop> <stop offset="0.76" stop-color="#00CDFF"></stop> <stop offset="1" stop-color="#00D1FF"></stop> </linearGradient> <linearGradient id="paint1_linear_4368_115368" x1="26.2398" y1="15.112" x2="12.8608" y2="15.112" gradientUnits="userSpaceOnUse"> <stop stop-color="#FFD800"></stop> <stop offset="1" stop-color="#FF8A00"></stop> </linearGradient> <linearGradient id="paint2_linear_4368_115368" x1="22.1737" y1="16.3794" x2="9.59307" y2="28.96" gradientUnits="userSpaceOnUse"> <stop stop-color="#FF3A44"></stop> <stop offset="1" stop-color="#B11162"></stop> </linearGradient> <linearGradient id="paint3_linear_4368_115368" x1="12.4806" y1="4.15151" x2="18.1024" y2="9.76868" gradientUnits="userSpaceOnUse"> <stop stop-color="#328E71"></stop> <stop offset="0.07" stop-color="#2D9571"></stop> <stop offset="0.48" stop-color="#15BD74"></stop> <stop offset="0.8" stop-color="#06D575"></stop> <stop offset="1" stop-color="#00DE76"></stop> </linearGradient> </defs> </svg> 