<?xml version="1.0" encoding="UTF-8"?> <svg xmlns="http://www.w3.org/2000/svg" width="106" height="31" viewBox="0 0 106 31" fill="none"> <rect x="0.970703" y="0.5" width="103.852" height="29.145" rx="7.5" fill="white" stroke="#14234B"></rect> <path d="M27.7731 15.1056C27.7536 13.0002 29.5412 11.9759 29.6229 11.9282C28.6106 10.4892 27.0415 10.2926 26.4901 10.2769C25.1722 10.1417 23.8939 11.0457 23.2226 11.0457C22.5378 11.0457 21.5041 10.2899 20.3899 10.3121C18.9561 10.3337 17.6148 11.1431 16.8792 12.3999C15.361 14.9625 16.4933 18.7284 17.9478 20.7998C18.6754 21.8143 19.5256 22.947 20.6384 22.9071C21.7272 22.8634 22.1338 22.2304 23.4477 22.2304C24.7494 22.2304 25.1313 22.9071 26.2663 22.8816C27.4347 22.8634 28.1704 21.8626 28.8725 20.839C29.7133 19.6762 30.051 18.5311 30.0644 18.4723C30.0369 18.4632 27.7952 17.629 27.7731 15.1056Z" fill="#14234B"></path> <path d="M25.6291 8.91423C26.2147 8.20025 26.6153 7.22889 26.5041 6.24316C25.6566 6.27975 24.5967 6.81474 23.9863 7.51305C23.4463 8.12839 22.9639 9.13698 23.0886 10.0855C24.0406 10.1547 25.0181 9.61711 25.6291 8.91423Z" fill="#14234B"></path> <path d="M43.5292 18.8231H42.0077L41.1742 16.2696H38.2772L37.4833 18.8231H36.002L38.8722 10.1299H40.6449L43.5292 18.8231ZM40.923 15.1983L40.1692 12.9283C40.0895 12.6964 39.9401 12.1503 39.7197 11.2907H39.6929C39.6051 11.6604 39.4637 12.2065 39.2695 12.9283L38.5291 15.1983H40.923V15.1983Z" fill="#14234B"></path> <path d="M50.9101 15.6077C50.9101 16.6738 50.6146 17.5164 50.0237 18.135C49.4944 18.6857 48.8371 18.9607 48.0526 18.9607C47.2057 18.9607 46.5974 18.6642 46.2269 18.071H46.2001V21.3731H44.7717V14.6141C44.7717 13.9439 44.7536 13.2561 44.7188 12.5506H45.975L46.0547 13.5441H46.0815C46.5579 12.7955 47.2808 12.4219 48.2509 12.4219C49.0093 12.4219 49.6424 12.7139 50.149 13.2985C50.6568 13.8838 50.9101 14.6533 50.9101 15.6077ZM49.4549 15.6586C49.4549 15.0485 49.3142 14.5455 49.0314 14.1497C48.7226 13.7368 48.3078 13.5304 47.7879 13.5304C47.4355 13.5304 47.1153 13.6454 46.8292 13.8721C46.5424 14.1007 46.3548 14.3992 46.2671 14.7689C46.2229 14.9414 46.2007 15.0825 46.2007 15.1935V16.2387C46.2007 16.6947 46.3441 17.0794 46.6309 17.3936C46.9176 17.7078 47.2901 17.8646 47.7484 17.8646C48.2864 17.8646 48.7051 17.6621 49.0046 17.2584C49.3048 16.8541 49.4549 16.321 49.4549 15.6586Z" fill="#14234B"></path> <path d="M58.3039 15.6077C58.3039 16.6738 58.0085 17.5164 57.4169 18.135C56.8882 18.6857 56.231 18.9607 55.4464 18.9607C54.5996 18.9607 53.9912 18.6642 53.6214 18.071H53.5946V21.3731H52.1662V14.6141C52.1662 13.9439 52.1481 13.2561 52.1133 12.5506H53.3695L53.4492 13.5441H53.476C53.9517 12.7955 54.6746 12.4219 55.6454 12.4219C56.4032 12.4219 57.0363 12.7139 57.5442 13.2985C58.05 13.8838 58.3039 14.6533 58.3039 15.6077ZM56.8487 15.6586C56.8487 15.0485 56.7073 14.5455 56.4246 14.1497C56.1158 13.7368 55.7024 13.5304 55.1818 13.5304C54.8287 13.5304 54.5091 13.6454 54.2224 13.8721C53.9356 14.1007 53.7487 14.3992 53.6609 14.7689C53.6174 14.9414 53.5946 15.0825 53.5946 15.1935V16.2387C53.5946 16.6947 53.738 17.0794 54.0234 17.3936C54.3102 17.7072 54.6827 17.8646 55.1423 17.8646C55.6803 17.8646 56.099 17.6621 56.3985 17.2584C56.6986 16.8541 56.8487 16.321 56.8487 15.6586Z" fill="#14234B"></path> <path d="M66.5704 16.3827C66.5704 17.1222 66.3071 17.7238 65.7785 18.1883C65.1976 18.6958 64.389 18.9493 63.3498 18.9493C62.3904 18.9493 61.6213 18.769 61.0391 18.4078L61.37 17.247C61.9971 17.6167 62.6852 17.8022 63.4349 17.8022C63.9729 17.8022 64.3917 17.6833 64.6925 17.4468C64.992 17.2104 65.1414 16.8929 65.1414 16.497C65.1414 16.1443 65.0181 15.8471 64.7709 15.606C64.525 15.365 64.1143 15.1409 63.5408 14.9339C61.9797 14.3662 61.1999 13.5346 61.1999 12.4411C61.1999 11.7265 61.4732 11.1405 62.0206 10.6846C62.566 10.228 63.2936 10 64.2034 10C65.0147 10 65.6887 10.1378 66.2267 10.4128L65.8696 11.5482C65.3671 11.2816 64.799 11.1484 64.1632 11.1484C63.6607 11.1484 63.2681 11.2692 62.9867 11.5096C62.7489 11.7245 62.6296 11.9865 62.6296 12.2968C62.6296 12.6404 62.7656 12.9245 63.039 13.1479C63.2768 13.3543 63.7089 13.5778 64.336 13.8188C65.1032 14.1199 65.6666 14.472 66.0291 14.8757C66.3902 15.2781 66.5704 15.7818 66.5704 16.3827Z" fill="#14234B"></path> <path d="M71.2943 13.5963H69.7198V16.6397C69.7198 17.4138 69.9972 17.8005 70.5533 17.8005C70.8085 17.8005 71.0203 17.779 71.1878 17.7358L71.2273 18.7934C70.9459 18.896 70.5754 18.9476 70.1165 18.9476C69.5523 18.9476 69.1115 18.7797 68.7932 18.4446C68.4763 18.1088 68.3169 17.5458 68.3169 16.7547V13.595H67.3789V12.5498H68.3169V11.4021L69.7198 10.9893V12.5498H71.2943V13.5963Z" fill="#14234B"></path> <path d="M78.3987 15.6325C78.3987 16.596 78.116 17.3871 77.5519 18.0057C76.9603 18.6426 76.1751 18.9601 75.1962 18.9601C74.2529 18.9601 73.5018 18.655 72.9417 18.0449C72.3816 17.4348 72.1016 16.6646 72.1016 15.7364C72.1016 14.765 72.3897 13.9694 72.9678 13.3508C73.5447 12.7315 74.3232 12.4219 75.3021 12.4219C76.2454 12.4219 77.0045 12.7269 77.5773 13.3377C78.1254 13.9302 78.3987 14.6951 78.3987 15.6325ZM76.9167 15.6776C76.9167 15.0995 76.7901 14.6037 76.5335 14.1902C76.234 13.6898 75.8059 13.4403 75.2511 13.4403C74.677 13.4403 74.2408 13.6905 73.9413 14.1902C73.6847 14.6043 73.5581 15.108 73.5581 15.7037C73.5581 16.2818 73.6847 16.7776 73.9413 17.1905C74.2502 17.6908 74.6817 17.9404 75.2384 17.9404C75.7838 17.9404 76.2119 17.6856 76.5208 17.1774C76.7841 16.7561 76.9167 16.255 76.9167 15.6776Z" fill="#14234B"></path> <path d="M83.0452 13.7754C82.9038 13.7499 82.7531 13.7368 82.5949 13.7368C82.0925 13.7368 81.7039 13.9217 81.4305 14.2921C81.1927 14.6187 81.0734 15.0315 81.0734 15.53V18.819H79.6457L79.6591 14.5246C79.6591 13.8022 79.641 13.1443 79.6055 12.5512H80.8496L80.9019 13.7505H80.9414C81.0922 13.3384 81.33 13.0065 81.6556 12.7576C81.9739 12.5336 82.3176 12.4219 82.6881 12.4219C82.8201 12.4219 82.9393 12.431 83.0452 12.4474V13.7754Z" fill="#14234B"></path> <path d="M89.4284 15.3892C89.4284 15.6388 89.4117 15.8491 89.3762 16.0209H85.091C85.1077 16.6402 85.3148 17.1138 85.7127 17.4404C86.0738 17.7324 86.5408 17.8787 87.1143 17.8787C87.7488 17.8787 88.3277 17.78 88.8482 17.5821L89.072 18.5489C88.4637 18.8076 87.7454 18.9363 86.9167 18.9363C85.9198 18.9363 85.1372 18.6502 84.5677 18.0786C83.9996 17.507 83.7148 16.7394 83.7148 15.7766C83.7148 14.8314 83.9795 14.0442 84.5094 13.4165C85.0642 12.7462 85.8139 12.4111 86.7572 12.4111C87.6838 12.4111 88.3853 12.7462 88.8616 13.4165C89.2388 13.9488 89.4284 14.6073 89.4284 15.3892ZM88.0664 15.028C88.0758 14.6151 87.9826 14.2585 87.789 13.9573C87.5418 13.57 87.1619 13.3766 86.6507 13.3766C86.1837 13.3766 85.8038 13.5654 85.5137 13.9443C85.2759 14.2454 85.1345 14.6066 85.091 15.0273H88.0664V15.028Z" fill="#14234B"></path> </svg> 