<?xml version="1.0" encoding="UTF-8"?> <svg xmlns="http://www.w3.org/2000/svg" width="352" height="341" viewBox="0 0 352 341" fill="none"> <g clip-path="url(#clip0_4384_115644)"> <path d="M55.9145 159.357C60.7362 169.198 72.4426 173.632 82.0618 169.261C91.6809 164.89 95.5694 153.369 90.748 143.528L55.9145 159.357ZM70.7887 102.79C65.967 92.9494 54.2606 88.5152 44.6414 92.8862C35.0224 97.2571 31.1338 108.779 35.9553 118.62L70.7887 102.79ZM90.748 143.528L70.7887 102.79L35.9553 118.62L55.9145 159.357L90.748 143.528Z" fill="#00DBC8"></path> <path d="M189.684 187.182C180.195 191.811 176.618 203.446 181.692 213.167C186.767 222.889 198.571 227.016 208.06 222.387L189.684 187.182ZM278.755 187.888C288.242 183.257 291.821 171.624 286.746 161.901C281.672 152.18 269.866 148.052 260.378 152.683L278.755 187.888ZM208.06 222.387L278.755 187.888L260.378 152.683L189.684 187.182L208.06 222.387Z" fill="#00DBC8"></path> <path d="M131.244 150.288C128.571 160.582 134.855 171.487 145.278 174.645C155.7 177.801 166.316 172.016 168.987 161.721L131.244 150.288ZM187.555 90.1819C190.226 79.8864 183.942 68.9813 173.521 65.8252C163.097 62.6674 152.482 68.4537 149.81 78.7474L187.555 90.1819ZM168.987 161.721L187.555 90.1819L149.81 78.7474L131.244 150.288L168.987 161.721Z" fill="#00DBC8"></path> <path d="M207.986 252.732C197.318 250.828 187.531 257.878 186.125 268.476C184.718 279.074 192.227 289.21 202.894 291.112L207.986 252.732ZM253.067 300.065C263.736 301.969 273.522 294.919 274.929 284.321C276.335 273.723 268.826 263.587 258.16 261.685L253.067 300.065ZM202.894 291.112L253.067 300.065L258.16 261.685L207.986 252.732L202.894 291.112Z" fill="#00DBC8"></path> </g> <defs> <clipPath id="clip0_4384_115644"> <rect width="78.5527" height="44" fill="white" transform="translate(117.352) scale(4.00453) rotate(41.7592)"></rect> </clipPath> </defs> </svg> 